<?xml version="1.0" encoding="utf-8"?>
<!-- Generator: Adobe Illustrator 24.3.0, SVG Export Plug-In . SVG Version: 6.00 Build 0)  -->
<svg version="1.1" id="Слой_1" xmlns="http://www.w3.org/2000/svg" xmlns:xlink="http://www.w3.org/1999/xlink" x="0px" y="0px"
	 viewBox="0 0 425.5 137.4" enable-background="new 0 0 425.5 137.4" xml:space="preserve">
<path fill="#2F2F2F" d="M42.3,77.9c2.4-1.5,5.5-2.3,6.6-6c-4.1,0-8.1,0-12.3,0c0.2,0.4,0.4,0.8,1,2c-3.3-2.7-5.9-1.7-8.5,0.1
	c-1.2,0.8-2.6,1.2-3.9,1.8c2.6-2,5.3-3.9,7.9-5.9c-0.2-0.4-0.4-0.8-0.6-1.1c-3,1-6.1,1.9-8.8,2.8c0.7-3.1,4.9-5.6,8.8-4.7
	c3.5,0.8,4.8,0.3,6-2.4c-0.8-0.2-1.6-0.5-2.3-0.5c-5.7,0.4-11.3,1.4-15.6,5.5c-1.3,1.2-2.4,2.9-3,4.6c-0.8,2.1,0.4,3.2,2.7,2.8
	c1.6-0.3,3.1-0.7,4.7-1.1c-3.8,3-7.9,4.1-12.9,1.9c0.3-0.9,0.7-1.9,0.9-3c0.2-1,0.1-2.2,0.3-3.2c0.3-1.1,0.6-2.2,1.3-3
	c4.1-4.5,9.6-6.8,15.2-8.3c10.8-3,21.8-5.8,32.8-7.5c22.3-3.4,44.7-6,67.1-8.7c6.2-0.8,12.6-1.5,17.4-5.5c4.8-4,10.3-6.9,15.7-9.7
	c10.4-5.3,20.8-10.9,31.8-14.5c9.5-3.1,19.9-3.9,29.9-5.2c6.5-0.9,13.1-1.4,19.6-1.2c10.2,0.3,20.4,1.3,30.5,2.3
	c8.4,0.8,16.8,1.9,25.2,3c4.2,0.6,8.3,1.4,12.4,2.4c1.2,0.3,3.2,0.2,3.3,2.4c0,0.3,1.1,0.5,1.6,0.7c11.4,4.3,22.8,8.7,34.4,12.8
	c7,2.5,14,5.3,21.3,6.6c7.1,1.2,14.5,0.6,21.8,1.1c2.2,0.2,4.4,1.3,6.3,2.4c1.6,1,1.6,2.6,0.3,4.2c-2.7,3.2-2.5,8.1,0.2,11.3
	c1.5,1.8,2.9,3.6,3.8,5.7c0.5,1.2,0.1,4.2-0.2,4.3c-1.9,0.4-4,0.1-6-0.1c-0.2,0-0.5-1.3-0.5-1.9c0-4-4-6.4-7.5-4.3
	c-1.3,0.8-2.4,0.8-3.9,0.9c-10.8,1-21.8,0.5-32.3,3.4c-0.6,0.2-1.1,0.4-2.1,0.8c1.9,1.5,3.7,2.7,5.3,4c1.9,1.5,3.9,3,5.4,4.8
	c1.7,2.2,3.3,2.5,5.7,1.2c5.7-3.2,12.1-3.8,18.5-4.3c8.7-0.7,17.3-1.6,26.4-2.5c-0.6,4.6,0.8,9.4-1,14.2c-1.1,3-1,6.4-1.5,9.7
	c-0.3,1.8-0.4,3.9-1.4,5.3c-0.9,1.2-2.9,1.8-4.4,2c-11.3,1.9-22.7,3.8-34.1,5.4c-3.5,0.5-7.1-0.4-10.9-0.7c-1.1,2.8-2.2,5.5-3.4,8.7
	c1.7,0.1,3,0.2,4.3,0.3c5.7,0.7,11.4,1.2,17,2.3c2.2,0.4,5.3,1.2,4.9,4.7c-0.4,3.2-3.2,4.1-5.7,4.4c-11.5,1.1-23.1,2.5-34.6,2.6
	c-45.3,0.5-90.6,0.5-136,0.7c-23.1,0.1-46.2,0.3-69.3,0.5c-23.5,0.2-46.9,0.7-70.4,0.8c-8.7,0-17.4-0.8-26.1-1.5
	c-1.9-0.1-3.8-0.9-5.7-1.6c-2.8-1.1-3.2-3.7-0.7-5.3c2.2-1.3,4.7-2,7.2-2.7c1.9-0.5,3.9-0.4,5.9-0.8c0.7-0.2,1.9-1,1.9-1.5
	c-0.1-1.3-0.8-2.4-2.5-1.9c-1.8,0.5-3.6,1.1-5.4,1.6c-1.7-2.3-2.1-2.3-4-0.1c-0.4,0.4-1.3,0.7-1.8,0.5c-1.4-0.3-2.9-0.5-4.1-1.3
	c-3.5-2.3-7.6-2.4-11.5-3.3c-1.8-0.4-3.5-1.6-5.1-2.7c-0.7-0.5-1.1-1.7-1-2.6c0.2-4.6,0.5-9.1,0.8-14c0.7,0.3,1.2,0.6,1.9,1
	c1.1-1.9,0.9-3.6-0.7-4.7C16,89,14.6,90,13.4,90.5c-0.4-2.6-0.8-5.7-1.2-8.2c7,0,13.8,0.3,20.6-0.1c2.4-0.1,4.8-1.8,7.1-2.9
	C40.7,78.9,41.5,78.3,42.3,77.9c-1.2,2.4-2.5,4.9-3.8,7.4c1.8-1.8,3-3.8,4.2-5.9C42.9,79.1,42.5,78.4,42.3,77.9z M95.6,68.8
	c0,0.3,0,0.6-0.1,0.9c2,1.8,4.4,3.3,5.9,5.4c2.6,3.6,5.9,3.9,9.5,2.8c2.4-0.7,4.6-2.3,6.9-3.4c1.3-0.7,2.7-1.5,4.1-1.7
	c2.9-0.4,5.9-0.5,8.9-0.6c31.4-1,62.7-2.2,94.1-2.9c25.2-0.6,50.5-2,75.7,0.8c5.2,0.6,9.6,0.2,13.5-3.5c1.1-1,2.5-1.6,3.8-2.4
	c-6-1-11.8-1.6-17.6-1.6c-16.1,0-32.1,0.3-48.2,0.5c-8.9,0.1-17.9,0.3-26.8,0.6c-7.9,0.2-15.8,0.7-23.7,0.9
	c-13.6,0.3-27.1,0.5-40.7,0.7c-2.4,0-4.8,0.2-7.3,0.3c-7,0.3-13.9,0.6-20.9,0.9c-9.4,0.4-18.8,0.7-28.2,1.2
	C101.6,67.6,98.6,68.3,95.6,68.8z M356.6,99.2c0.1-13.2-10.5-24-23.6-24c-13.6-0.1-24.5,10.6-24.6,23.8c0,13.2,10.7,24,24,24.1
	C345.6,123.1,356.5,112.3,356.6,99.2z M73.8,77.9c-13.2,0-23.7,10.4-23.7,23.3c0,13.4,11,24.2,24.3,24.1c13-0.1,23.5-10.8,23.4-23.9
	C97.8,88.6,86.7,77.8,73.8,77.9z M129.8,100.7c0.1,0.3,0.1,0.6,0.2,0.8c1.3,0,2.6,0,3.9,0c18.2-0.5,36.5-0.9,54.7-1.5
	c27.5-0.8,55-1.8,82.4-2.8c1.6-0.1,3.4-0.6,4.8-1.4c1.2-0.7,2.1-2.2,3.1-3.3c-1.4-0.4-2.7-0.8-4.1-1.1c-0.7-0.1-1.4,0-2.2,0
	c-32.5,0.5-65,1-97.6,1.7c-6.5,0.1-13.1-0.9-19.6,0.9c-7.5,2.1-15.2,3.7-22.8,5.6C131.8,100,130.8,100.4,129.8,100.7z M177.9,33.3
	c1.2,2.6,2.6,4.5,2.8,6.6c0.3,2.3,1.2,2.6,3.1,2.5c7-0.2,14-0.4,21-0.6c5.9-0.2,11.8-0.6,17.8-0.8c2.1-0.1,3.4-0.9,3.7-3
	c0.4-2.2,0.8-4.4,1.1-6.6c0.4-2.5,0.2-5.1,2.8-6.9c1-0.7,1-2.7,1.4-4.1c-1.2-0.4-2.4-1.1-3.6-1c-15.8,0.5-31,3.7-45,11.4
	C181.2,31.8,179.2,32.7,177.9,33.3z M101.8,116.1c1.2,0.1,2,0.2,2.9,0.2c17-0.1,34-0.2,51-0.4c31.4-0.4,62.9-0.8,94.3-1.2
	c17.4-0.2,34.9-0.4,52.3-0.6c0.8,0,1.6-0.2,2.8-0.4c-0.6-1.4-1-2.4-1.5-3.3c-0.9-1.6-5.8-1.6-6.2,0c-0.4,1.9-1.5,1.6-2.8,1.6
	c-7-0.1-14.1-0.2-21.1-0.2c-33.6,0.2-67.2,0.4-100.8,0.8c-8.9,0.1-17.8,1-26.8,1.4c-2.2,0.1-4.4-0.4-6.6-0.4
	c-7.8,0.3-15.6,0.7-23.4,1c-1.8,0.1-4.2,0.9-4.4-2.3c0-0.2-0.7-0.5-1.1-0.7C105.5,109.9,103.7,110.8,101.8,116.1z M280.5,22.7
	c-10.7-0.9-20.9-1.7-31.1-2.4c-0.6,0-1.6,1.1-1.7,1.8c-0.7,5-1.3,10-1.9,15c-0.2,1.7,0.5,2.3,2.1,2.2c9.3-0.4,18.7-0.8,28-1.3
	c0.7,0,1.7-0.8,1.8-1.4C278.7,32.3,279.5,28,280.5,22.7z M275,105c0-0.3-0.1-0.6-0.1-0.8c-1.6-0.1-3.1-0.5-4.7-0.4
	c-29.7,0.7-59.3,1.4-89,2.2c-11.5,0.3-23,0.8-34.5,1.3c-1.4,0.1-2.7,0.5-4.1,0.7c0,0.3,0.1,0.5,0.1,0.8c0.5,0.2,0.9,0.5,1.4,0.5
	c3.7,0.3,7.4,0.9,11,0.8c31.1-0.6,62.2-1.3,93.3-2.1c7.6-0.2,15.2-1.2,22.8-1.9C272.6,106,273.8,105.4,275,105z M101.1,63.3
	c-0.1,0.2-0.1,0.4-0.2,0.7c1.1,0.4,2.2,1.1,3.3,1.2c3,0.2,6.1,0.4,9.1,0.2c8.3-0.5,16.6-1.4,24.9-1.9c13.8-0.9,27.6-1.5,41.4-2.3
	c7.6-0.4,15.1-1.1,20.5-1.5c-2.3,0-6.8-0.2-11.3,0c-18.3,0.8-36.6,1.8-54.9,2.6c-0.7,0-1.7,0.2-2.1-0.2c-1.8-1.9-4-1-6-0.9
	c-3.5,0.2-7,0.3-10.5,0.6C110.7,62.3,105.9,62.8,101.1,63.3z M280.8,37.9c3-0.1,5.5-0.1,8-0.4c0.6-0.1,1.4-1.1,1.5-1.7
	c0.4-2.9,0.5-5.9,0.6-8.8c0-0.6-0.4-1.6-0.8-1.7c-1.8-0.6-3.6-0.9-5.5-1.2c-0.4-0.1-1.3,0.7-1.4,1.2
	C282.4,29.3,281.7,33.3,280.8,37.9z M232.8,57.5c0,0.2,0,0.5,0.1,0.7c19.6-1,39.3-2.1,58.9-3.1c0.2-2.8-0.8-3.4-2.7-3.3
	c-3.4,0.3-6.8,0.3-10.2,0.8c-2.9,0.4-5.7,1.7-8.6,2c-8.1,0.8-16.3,1.3-24.4,1.9C241.4,56.9,237.1,57.2,232.8,57.5z M90.5,52.2
	c-13.7-0.5-49.9,5.8-56.8,9.8C52.5,58.7,72.4,55.3,90.5,52.2z M294.1,37.2c5.1,0.8,6.3-0.3,7-6.3c0.3-2.6-1.6-4-6.3-4.1
	C294.6,30.2,294.3,33.6,294.1,37.2z M153.9,42c3,2.8,6.3,1.5,9.4,1.4c0.6,0,1.2-0.9,1.8-1.3c-0.7-0.4-1.3-1.1-2-1.2
	c-1.8-0.1-3.6,0.2-5.4,0.1c-0.6,0-1.2-0.9-1.8-1.4c1.1-1.3,2.1-2.7,3.4-3.7c0.8-0.6,2.1-0.6,3.1-0.8c-0.1-0.3-0.1-0.6-0.2-0.9
	c-2.2,0.6-4.9,0.6-6.4,1.9C154.5,37.4,154.5,40.1,153.9,42z M209.9,53.6c5.3-0.3,10.8-0.6,15.9-0.8C221.9,50,213.7,50.3,209.9,53.6z
	 M308.1,48.8c-3.8-2.1-10.7-1.8-13.8,0.8C298.9,49.3,303.6,49,308.1,48.8z M318.4,50.8c0,0.3,0,0.6,0,0.9c6.5-0.3,13-0.6,20-0.9
	C331.4,50.8,324.9,50.8,318.4,50.8z M293.6,50.7c0,0.3,0.1,0.6,0.1,1c5.2-0.2,10.3-0.5,15.5-0.7c0-0.1,0-0.2,0-0.3
	C303.9,50.7,298.8,50.7,293.6,50.7z M209.6,54.8c0,0.3,0,0.6,0.1,0.9c4.3-0.3,8.7-0.6,13-0.8c0-0.3,0-0.6-0.1-0.9
	C218.3,54.2,214,54.5,209.6,54.8z M176.6,36.9c0.9,1.9,1.7,3.4,2.4,4.9C180.1,38.1,179.4,36.8,176.6,36.9z"/>
<path fill="#2F2F2F" d="M335.6,89.3c0.1,0.1,0.2,0.3,0.2,0.4c1.1-1.1,2.3-2.2,3.1-3.5c0.2-0.3-0.8-1.9-1.5-2.3
	c-1.6-0.7-1.6-1.7-1.4-3c0.2-1.1,0.4-2.3,0.6-3.4c5-0.3,11.8,4.5,13.5,9.3c-1.7-1.5-3.4-3-5.2-4.5c-0.2,0.2-0.3,0.3-0.5,0.5
	c1.4,1.7,2.8,3.4,4.3,5.4c-3.3,2.8-6.8,4.4-10.7,5.1C336.3,93.8,335.2,91.9,335.6,89.3z"/>
<path fill="#2F2F2F" d="M332.9,104.1c2.2,3.7,4.5,7.4,6.5,11.1c0.2,0.4-0.5,1.7-1,1.9c-4.3,1.6-8.7,1.7-13.4-0.3
	c2.3-4.2,4.5-8.3,6.8-12.4C332.1,104.3,332.5,104.2,332.9,104.1z"/>
<path fill="#2F2F2F" d="M324.3,100.5c-0.3,0.3-0.6,0.5-1.1,0.9c2.9,1.4,1.4,2.8,0.1,4.3c-1.7,2-3.4,4.1-5.5,6.1
	c0.5-1.9,0.8-3.3-1.8-3.1c-0.5,0.1-1.5-0.6-1.7-1.2c-0.9-2.3-1.5-4.7-2.2-7.1c-0.3-1.1-0.6-2.3-1-3.7c4.3,0.9,8.7,1.9,13.1,2.9
	C324.2,99.9,324.3,100.2,324.3,100.5z"/>
<path fill="#2F2F2F" d="M320.8,91.5c-2-0.8-4.1-1.5-7.1-2.7c2.6-2.6,4.6-4.6,6.6-6.5c0-0.1,0-0.2,0-0.3c-1.7,1-3.3,2.1-5,3.1
	c3-4.1,6.8-6.7,12.4-7.9c0.4,4.8,0.9,9.4,1.3,14.3c-1.3,0-2,0-2.8,0c0,0.6,0,1.1,0,2.1C324.2,92.9,322.5,92.2,320.8,91.5
	c0.4-0.1,0.8,0.1,1.2-0.1c1.2-0.3,3.3-0.7,3.3-1.2c0.1-2-0.5-3.9-0.8-5.9c-1.3,0.3-2.6,0.5-3.9,0.8c0.1,0.3,0.1,0.5,0.2,0.8
	c0.8-0.1,1.6-0.2,2.4-0.4C319.9,86.7,320.2,89,320.8,91.5z"/>
<path fill="#2F2F2F" d="M346.7,110.8c-1.6-2.7,2.4-4.2,1.3-6.9c-1.3-0.7-2.2-0.2-3,1.3c-1.2,2.1-2,2-3.2-0.2
	c-0.5-0.9-1.3-1.7-1.9-2.5c-0.4-0.5-1-1.2-0.9-1.6c0.1-0.6,0.8-1.4,1.4-1.6c3.5-0.9,7.1-1.7,11.2-2.7
	C351.6,102.1,350.3,106.7,346.7,110.8z"/>
<path fill="#2F2F2F" d="M339.2,94.9c4.2-2.8,10.5-3.7,11.8-1.6c-2.5,1.4-5,2.9-7.6,4.1C341.2,98.5,339.6,97.7,339.2,94.9z"/>
<path fill="#2F2F2F" d="M324,93.9c-0.8,1.7-1.2,2.7-1.8,3.9c-3.5-1.6-7.1-3.2-10.7-4.8c0.1-0.3,0.2-0.6,0.4-1
	C315.9,92.7,319.9,93.3,324,93.9z"/>
<path fill="#2F2F2F" d="M327.9,104.5c0.4,0.5,0.8,1.1,1,1.4c-2.5,3.3-5,6.6-7.4,9.9c-0.3-0.2-0.6-0.3-0.9-0.5
	c1.5-3.2,2.9-6.4,4.7-9.5C325.6,105,327,104.9,327.9,104.5C327.9,104.5,327.9,104.5,327.9,104.5z"/>
<path fill="#2F2F2F" d="M331.5,76.3c0.9,0.8,1.2,0.9,1.2,1.1c0.4,3,0.8,6,0.9,9.1c0,0.9-1.1,1.9-1.8,2.8c-0.5-0.9-1.1-1.8-1.3-2.8
	c-0.3-1.6-0.6-3.4,2.3-3.4C329.9,81.2,331.4,79,331.5,76.3z"/>
<path fill="#2F2F2F" d="M335.4,105.5c1.2-1.4,2.1-2.5,3.6-0.7c2.7,2.9,4,4.1,1,6.6C338.5,109.4,337,107.5,335.4,105.5z"/>
<path fill="#2F2F2F" d="M334.7,98.3c0.2,2-0.6,3.3-2.6,3.3c-1.9,0-2.9-1.1-2.7-3.2c0.9,0.8,1.7,2.2,2.4,2.1
	C332.8,100.4,333.6,99.2,334.7,98.3z"/>
<path fill="#2F2F2F" d="M327.9,104.5c0-0.8-0.1-1.6,0.2-2.3c0.1-0.3,1.4-0.5,1.5-0.3c0.5,0.7,0.6,1.5,1.1,2.7
	C329.4,104.6,328.6,104.5,327.9,104.5C327.9,104.5,327.9,104.5,327.9,104.5z"/>
<path fill="#2F2F2F" d="M91.1,91.4c-2.4,0.9-5.2,2.1-8,2.8c-1.4,0.4-2.9,2.3-4.5,0.4c-0.5-0.6-1.3-1.4-1.3-2.1
	c0.1-4.2,0.4-8.3,0.7-12.9C84.8,80.9,89.3,84.1,91.1,91.4z"/>
<path fill="#2F2F2F" d="M57.3,91.8c1.1-1.8,1.8-2.8,2.5-3.9c-0.2-0.1-0.3-0.3-0.5-0.4c-1.2,1.1-2.3,2.3-3.9,3.7
	C55.9,86,63.7,80,69,80.3c0.5,2.9,1.4,5.7-0.1,8.7c-0.3,0.5,0.3,1.4,0.5,2.1c0.3,1.2,1.2,2.9,0.7,3.4c-0.8,0.8-2.6,1.4-3.6,1.1
	C63.4,94.6,60.5,93.2,57.3,91.8z"/>
<path fill="#2F2F2F" d="M89.5,114.2c-3.1-2-5.6-5-7.5-8.3c-0.5-0.8,0.9-3.8,2-4.2c3.6-1.4,7.5-2.1,11.4-3c-0.5,2.1-0.9,3.9-1.3,5.6
	c-0.6,2.5-0.9,5-3.4,6.6C89.9,111.2,89.9,112.8,89.5,114.2z"/>
<path fill="#2F2F2F" d="M79.5,116.2c1,0.8,1.8,1.5,2.9,2.4c-4.9,2.3-9.3,2.1-13.8,0.6c-0.4-0.2-1-1.6-0.7-2.1
	c1.7-3.2,3.4-6.3,5.3-9.3c0.2-0.4,1.9-0.5,2.1-0.2c1.7,2.4,3.1,5,4.6,7.5C80.1,115.5,79.6,116,79.5,116.2z M69.7,117
	c2.4-0.1,4.5-0.2,6.5-0.3C70.3,115.2,70.3,115.2,69.7,117z"/>
<path fill="#2F2F2F" d="M61.7,110c-0.2,1.2-0.5,2.4-0.8,4.2c-4-4.5-5.2-9-5.7-14.5c4.5,0.9,8.6,1.8,13.4,2.8
	C65.8,105.5,66.1,110,61.7,110z"/>
<path fill="#2F2F2F" d="M52.7,94.7c3,0.2,5.4,0.2,7.6,0.6c2.4,0.4,4.7,1.2,7.1,1.9c-1.3,3.3-3.4,3.9-6.2,2.4c-2.1-1.1-4.3-2-6.4-3.1
	C54.1,96.1,53.6,95.5,52.7,94.7z"/>
<path fill="#2F2F2F" d="M73.2,79.3c0.4,0.2,0.7,0.2,0.7,0.3c0.6,3.9,1.3,7.8,1.8,11.7c0.1,0.6-0.7,1.2-1.1,1.8
	c-0.6-0.5-1.5-0.9-1.7-1.5c-0.4-1.5-0.7-3.1-0.7-4.7c0-2,0.3-4.1,0.5-6.1C72.8,80.3,73,79.9,73.2,79.3z"/>
<path fill="#2F2F2F" d="M94.8,94.5c-0.7,0.5-1.3,1.2-2.1,1.6c-1.7,1-3.4,1.9-5.1,2.8c-0.9,0.4-1.9,1-2.7,0.8
	c-0.8-0.2-1.7-1.1-2.1-1.9c-0.2-0.4,0.5-1.8,1-1.9c3.5-0.8,7-1.5,10.4-2.1C94.3,94.1,94.5,94.3,94.8,94.5z"/>
<path fill="#2F2F2F" d="M77.4,108.7c2.5-2.6,5.7-1.1,6.8,2.6c0.3,1,0.2,2.2,0.2,3.2c-1-0.4-2.3-0.5-3-1.2
	C79.9,112,78.7,110.3,77.4,108.7z"/>
<path fill="#2F2F2F" d="M68.3,113c-1.1-0.6-2-1.1-3.4-1.8c1.2-1.6,2.2-3.1,3.5-4.4c0.3-0.3,1.6-0.2,2,0.2c0.4,0.3,0.7,1.4,0.5,1.9
	C70.2,110.3,69.3,111.6,68.3,113z"/>
<path fill="#2F2F2F" d="M72.1,100.6c0.7,0.8,1.4,2.3,2.2,2.4c0.8,0.1,1.7-1.2,3-1.9c-0.3,0.8-0.5,2-1.1,2.2
	c-0.9,0.4-2.3,0.7-3.1,0.2c-0.8-0.4-1-1.8-1.5-2.8C71.8,100.7,71.9,100.6,72.1,100.6z"/>
<path fill="#2F2F2F" d="M74.5,94.1c0.6,0.7,1.4,1.3,1.3,1.7c-0.2,0.6-0.9,1.4-1.4,1.4c-0.6,0-1.2-0.8-1.8-1.2
	C73.2,95.5,73.7,95,74.5,94.1z"/>
<path fill="#2F2F2F" d="M79.4,101.1c-0.3-0.9-0.7-1.8-1-2.7c0.6-0.1,1.3-0.2,1.9-0.3c0.1,0.9,0.3,1.8,0.4,2.7
	C80.2,100.9,79.8,101,79.4,101.1z"/>
<path fill="#2F2F2F" d="M69.7,117c0.7-1.8,0.7-1.8,6.5-0.3C74.2,116.8,72.1,116.9,69.7,117z"/>
</svg>
