<?xml version="1.0" encoding="utf-8"?>
<!-- Generator: Adobe Illustrator 24.3.0, SVG Export Plug-In . SVG Version: 6.00 Build 0)  -->
<svg version="1.1" id="Слой_1"  height="140pt" width="140pt" xmlns="http://www.w3.org/2000/svg" xmlns:xlink="http://www.w3.org/1999/xlink" x="0px" y="0px"
	 viewBox="0 0 226.8 226.8" style="enable-background:new 0 0 226.8 226.8;" xml:space="preserve">
<style type="text/css">
	.st0{fill:#313131;}
	.st1{display:none;}
	.st2{display:inline;opacity:0.6;fill:#020203;enable-background:new    ;}
	.st3{fill:#313131;stroke:#D3D3D3;stroke-width:3;stroke-miterlimit:10;}
	.st4{fill:#313131;stroke:#D3D3D3;stroke-miterlimit:10;}
	.st5{fill:#313131;stroke:#D3D3D3;stroke-width:2;stroke-linecap:round;stroke-miterlimit:10;}
</style>
<rect x="-3.3" y="-0.3" class="st0" width="233.4" height="233.4"/>
<g id="Слой_1_1_" class="st1">
	<path class="st2" d="M166.1,113V74.5c0-4.3-3.5-7.7-7.8-7.8h-7.7V60c0-1.8-1.5-3.2-3.2-3.2H139c-1.8,0-3.2,1.5-3.2,3.2v6.8h-14.5
		V60c0-1.8-1.4-3.2-3.2-3.2h-8.4c-1.8,0-3.2,1.5-3.2,3.2v6.8H91.7V60c0-1.8-1.4-3.2-3.2-3.2h-8.4c-1.8,0-3.2,1.5-3.2,3.2v6.8h-7.7
		c-4.3,0-7.7,3.5-7.8,7.7v82.2c0,1,0.8,1.8,1.8,1.8l0,0h70c9.7,13.1,28.2,15.9,41.3,6.2s15.9-28.2,6.2-41.3
		C177,118.5,171.9,114.9,166.1,113z M139.4,60.4h7.6v16.4h-7.6V60.4z M109.9,60.4h7.6v16.4h-7.6V60.4z M80.5,60.4h7.6v16.4h-7.6
		V60.4z M65,74.5c0-2.3,1.8-4.1,4.1-4.1h7.7v6.8c0,1.8,1.5,3.2,3.2,3.2h8.4c1.8,0,3.2-1.5,3.2-3.2v-6.8h14.5v6.8
		c0,1.8,1.5,3.2,3.2,3.2h8.4c1.8,0,3.2-1.5,3.2-3.2v-6.8h14.5v6.8c0,1.8,1.5,3.2,3.2,3.2h8.4c1.8,0,3.2-1.5,3.2-3.2v-6.8h7.7
		c2.3,0,4.1,1.8,4.1,4.1v9.9H65V74.5z M65,154.9V88.1h97.5V112c-1.5-0.3-3-0.4-4.5-0.5v-17c0-1-0.8-1.8-1.8-1.8l0,0H71.3
		c-1,0-1.8,0.8-1.8,1.8v54c0,1,0.8,1.8,1.8,1.8h57.5c0.5,1.6,1.2,3.1,1.9,4.5L65,154.9z M154.3,106.2H141v-9.8h13.3V106.2z
		 M137.3,106.2H124v-9.8h13.3V106.2z M120.3,106.2H107v-9.8h13.3V106.2z M103.4,123.3v9.8H90.1v-9.8H103.4z M90.1,119.7v-9.8h13.3
		v9.8H90.1z M107.1,123.3h13.3v9.8h-13.3V123.3z M107.1,119.7v-9.8h13.3v9.8H107.1z M103.4,106.2H90.1v-9.8h13.3V106.2z M86.4,106.2
		H73.2v-9.8h13.3L86.4,106.2z M73.2,109.8h13.3v9.8H73.2V109.8z M73.2,123.3h13.3v9.8H73.2V123.3z M73.2,136.8h13.3v9.8H73.2V136.8z
		 M90.1,136.8h13.3v9.8H90.1V136.8z M107.1,136.8h13.3v9.8h-13.3V136.8z M124,136.8h3.6c-0.5,3.3-0.4,6.6,0.2,9.8H124V136.8z
		 M128.4,133.2H124v-9.8h9.2C131,126.3,129.4,129.6,128.4,133.2L128.4,133.2z M136.5,119.7H124v-9.8h13.3v9.1
		C137,119.2,136.7,119.4,136.5,119.7L136.5,119.7z M141,109.8h13.3v1.8c-4.7,0.4-9.3,2-13.3,4.5V109.8z M158.7,166.8v-3.4
		c0-1-0.8-1.8-1.8-1.8s-1.8,0.8-1.8,1.8l0,0v3.4c-12.8-0.9-23-11.1-23.9-23.9h3.4c1,0,1.8-0.9,1.8-1.9s-0.8-1.7-1.8-1.8h-3.4
		c0.9-12.8,11.1-23,23.9-23.9v3.4c0,1,0.8,1.8,1.8,1.8s1.8-0.8,1.8-1.8l0,0v-3.4c12.8,0.9,23,11.1,23.9,23.9h-3.4
		c-1,0-1.8,0.9-1.8,1.9s0.8,1.7,1.8,1.8h3.4C181.7,155.6,171.5,165.8,158.7,166.8L158.7,166.8z M169.3,139.2H162
		c-0.6-1.5-1.8-2.7-3.3-3.3v-7.4c0-1-0.8-1.8-1.8-1.8s-1.8,0.8-1.8,1.8v7.3c-2.8,1-4.3,4.1-3.3,7c1,2.8,4.1,4.3,7,3.3
		c1.5-0.5,2.8-1.8,3.3-3.3h7.3c1,0,1.8-0.9,1.8-1.9C171.1,140,170.3,139.2,169.3,139.2L169.3,139.2z M156.8,142.8
		c-1,0-1.8-0.8-1.8-1.8s0.8-1.8,1.8-1.8s1.8,0.8,1.8,1.8S157.8,142.8,156.8,142.8L156.8,142.8z"/>
</g>
<g>
	<path class="st3" d="M173.9,219H42.4c-6.4,0-11.5-5.1-11.5-11.5V93.8c0-6.4,5.1-11.5,11.5-11.5h131.5c6.4,0,11.5,5.1,11.5,11.5
		v113.6C185.5,213.8,180.3,219,173.9,219z"/>
	<line class="st3" x1="32.1" y1="113.7" x2="185.5" y2="113.7"/>
	<rect x="121.4" y="95.1" class="st4" width="0.2" height="0.4"/>
	<g>
		<path class="st3" d="M69.3,95.2H58.6c-1.6,0-2.9-1.3-2.9-2.9v-19c0-1.6,1.3-2.9,2.9-2.9h10.8c1.6,0,2.9,1.3,2.9,2.9v19.1
			C72.3,93.9,71,95.2,69.3,95.2z"/>
		<path class="st3" d="M98.8,95.2H88c-1.6,0-2.9-1.3-2.9-2.9v-19c0-1.6,1.3-2.9,2.9-2.9h10.8c1.6,0,2.9,1.3,2.9,2.9v19.1
			C101.8,93.9,100.5,95.2,98.8,95.2z"/>
		<path class="st3" d="M128.4,95.2h-10.8c-1.6,0-2.9-1.3-2.9-2.9v-19c0-1.6,1.3-2.9,2.9-2.9h10.8c1.6,0,2.9,1.3,2.9,2.9v19.1
			C131.4,93.9,130,95.2,128.4,95.2z"/>
		<path class="st3" d="M157.8,95.2h-10.8c-1.6,0-2.9-1.3-2.9-2.9v-19c0-1.6,1.3-2.9,2.9-2.9h10.8c1.6,0,2.9,1.3,2.9,2.9v19.1
			C160.8,93.9,159.4,95.2,157.8,95.2z"/>
	</g>
	<g>
		<path class="st3" d="M81,161.7H55c-1.6,0-2.8-1.3-2.8-2.8V133c0-1.6,1.3-2.8,2.8-2.8H81c1.6,0,2.8,1.3,2.8,2.8V159
			C83.8,160.5,82.5,161.7,81,161.7z"/>
		<path class="st3" d="M161.9,161.7h-26.1c-1.6,0-2.8-1.3-2.8-2.8V133c0-1.6,1.3-2.8,2.8-2.8h26.1c1.6,0,2.8,1.3,2.8,2.8V159
			C164.6,160.5,163.4,161.7,161.9,161.7z"/>
		<path class="st3" d="M121.4,161.7H95.4c-1.6,0-2.8-1.3-2.8-2.8V133c0-1.6,1.3-2.8,2.8-2.8h26.1c1.6,0,2.8,1.3,2.8,2.8V159
			C124.3,160.5,123,161.7,121.4,161.7z"/>
	</g>
	<g>
		<path class="st3" d="M81,204.4H55c-1.6,0-2.8-1.3-2.8-2.8v-26.1c0-1.6,1.3-2.8,2.8-2.8H81c1.6,0,2.8,1.3,2.8,2.8v26.1
			C83.8,203.2,82.5,204.4,81,204.4z"/>
		<path class="st3" d="M161.9,204.4h-26.1c-1.6,0-2.8-1.3-2.8-2.8v-26.1c0-1.6,1.3-2.8,2.8-2.8h26.1c1.6,0,2.8,1.3,2.8,2.8v26.1
			C164.6,203.2,163.4,204.4,161.9,204.4z"/>
		<path class="st3" d="M121.4,204.4H95.4c-1.6,0-2.8-1.3-2.8-2.8v-26.1c0-1.6,1.3-2.8,2.8-2.8h26.1c1.6,0,2.8,1.3,2.8,2.8v26.1
			C124.3,203.2,123,204.4,121.4,204.4z"/>
	</g>
	<g>
		<circle class="st3" cx="168" cy="182.3" r="41"/>
	</g>
	<g>
		<g>
			<line class="st5" x1="168" y1="141.4" x2="168" y2="149.2"/>
			<line class="st5" x1="168" y1="215.6" x2="168" y2="223.4"/>
		</g>
		<g>
			<line class="st5" x1="208.9" y1="182.3" x2="201.2" y2="182.3"/>
			<line class="st5" x1="134.7" y1="182.3" x2="127" y2="182.3"/>
		</g>
		<path class="st5" d="M193.6,182.3c0,0-15.2,0-25.6,0c0-9.7,0-25.6,0-25.6"/>
	</g>
</g>
</svg>
