<svg xmlns="http://www.w3.org/2000/svg"  height="140pt" width="140pt" viewBox="0 0 95 118.75" x="0px" y="0px" style="fill: #d3d3d3;"><path d="M71.178,47.124V25.6a4.348,4.348,0,0,0-4.344-4.343h-4.34V17.446a1.816,1.816,0,0,0-1.814-1.814H55.954a1.817,1.817,0,0,0-1.815,1.814v3.813H46V17.446a1.816,1.816,0,0,0-1.813-1.814H39.461a1.816,1.816,0,0,0-1.814,1.814v3.813H29.51V17.446A1.816,1.816,0,0,0,27.7,15.632H22.969a1.816,1.816,0,0,0-1.814,1.814v3.813H16.814A4.348,4.348,0,0,0,12.471,25.6V71.623A1.028,1.028,0,0,0,13.5,72.651H52.705A16.531,16.531,0,1,0,71.178,47.124ZM56.2,17.688h4.242v9.2H56.2Zm-16.492,0h4.241v9.2H39.7Zm-16.493,0h4.242v9.2H23.211ZM14.527,25.6a2.29,2.29,0,0,1,2.287-2.287h4.341v3.813a1.816,1.816,0,0,0,1.814,1.814H27.7a1.816,1.816,0,0,0,1.813-1.814V23.315h8.137v3.813a1.816,1.816,0,0,0,1.814,1.814h4.728A1.816,1.816,0,0,0,46,27.128V23.315h8.137v3.813a1.817,1.817,0,0,0,1.815,1.814H60.68a1.816,1.816,0,0,0,1.814-1.814V23.315h4.34A2.29,2.29,0,0,1,69.121,25.6v5.551H14.527Zm0,44.993V33.21H69.121V46.584a16.6,16.6,0,0,0-2.531-.277V36.769a1.028,1.028,0,0,0-1.028-1.029H18.086a1.029,1.029,0,0,0-1.028,1.029V67.037a1.028,1.028,0,0,0,1.028,1.028H50.3a16.392,16.392,0,0,0,1.083,2.53ZM64.534,43.307H57.1V37.8h7.439Zm-9.5,0H47.6V37.8h7.438Zm-9.5,0H38.1V37.8h7.439Zm-9.495,9.624v5.51H28.61v-5.51ZM28.61,50.874V45.363h7.439v5.511ZM38.1,52.931h7.439v5.51H38.1Zm0-2.057V45.363h7.439v5.511Zm-2.056-7.567H28.61V37.8h7.439Zm-9.5,0H19.115V37.8h7.439Zm-7.439,2.056h7.439v5.511H19.115Zm0,7.568h7.439v5.51H19.115Zm0,7.567h7.439v5.511H19.115Zm9.5,0h7.439v5.511H28.61Zm9.495,0h7.439v5.511H38.1Zm9.5,0H49.62a15.71,15.71,0,0,0,.132,5.511H47.6Zm2.444-2.057H47.6v-5.51h5.151A16.464,16.464,0,0,0,50.045,58.441Zm4.524-7.567H47.6V45.363h7.438v5.084C54.88,50.587,54.722,50.728,54.569,50.874ZM57.1,45.363h7.439v.987A16.414,16.414,0,0,0,57.1,48.89Zm9.917,31.9V75.364a1.028,1.028,0,1,0-2.056,0v1.895a14.49,14.49,0,0,1-13.41-13.408h1.9a1.029,1.029,0,0,0,0-2.057h-1.9a14.491,14.491,0,0,1,13.41-13.409v1.9a1.028,1.028,0,1,0,2.056,0v-1.9A14.492,14.492,0,0,1,80.421,61.794h-1.9a1.029,1.029,0,0,0,0,2.057h1.9A14.491,14.491,0,0,1,67.012,77.259Zm5.959-15.465H68.855a3.055,3.055,0,0,0-1.843-1.843V55.836a1.028,1.028,0,0,0-2.056,0v4.115a3.054,3.054,0,1,0,3.9,3.9h4.116a1.029,1.029,0,0,0,0-2.057Zm-6.987,2.033a1,1,0,1,1,1.005-1A1.005,1.005,0,0,1,65.984,63.827Z"/></svg>