<svg xmlns="http://www.w3.org/2000/svg" height="140pt" width="140pt" viewBox="0 0 64 80" x="0px" y="0px " style="fill: #d3d3d3;"><path  d="M15,23h2a4,4,0,0,1,4-4V17a4,4,0,0,1-4-4H15a4,4,0,0,1-4,4v2A4,4,0,0,1,15,23Zm1-6.69A6.044,6.044,0,0,0,17.69,18,6.044,6.044,0,0,0,16,19.69,6.044,6.044,0,0,0,14.31,18,6.044,6.044,0,0,0,16,16.31Z"/><path d="M47,23h2a4,4,0,0,1,4-4V17a4,4,0,0,1-4-4H47a4,4,0,0,1-4,4v2A4,4,0,0,1,47,23Zm1-6.69A6.044,6.044,0,0,0,49.69,18,6.044,6.044,0,0,0,48,19.69,6.044,6.044,0,0,0,46.31,18,6.044,6.044,0,0,0,48,16.31Z"/><path d="M33,14a4,4,0,0,1,4-4V8a4,4,0,0,1-4-4H31a4,4,0,0,1-4,4v2a4,4,0,0,1,4,4ZM30.31,9A6.044,6.044,0,0,0,32,7.31,6.044,6.044,0,0,0,33.69,9,6.044,6.044,0,0,0,32,10.69,6.044,6.044,0,0,0,30.31,9Z"/><path d="M14.547,44.163l-7-4.576A1,1,0,0,0,6,40.361l-.279,4.453a1,1,0,0,0,.475.915l4,2.454a1,1,0,0,0,1.1-.037l3.279-2.331a1,1,0,0,0-.032-1.652ZM10.68,46.132,7.756,44.339,7.891,42.2l4.334,2.833Z"/><path d="M49,44.98a1,1,0,0,0,.421.835L52.7,48.146a1,1,0,0,0,1.1.037l4-2.454a1,1,0,0,0,.475-.915L58,40.361a1,1,0,0,0-1.545-.774l-7,4.576A1,1,0,0,0,49,44.98ZM56.109,42.2l.135,2.138L53.32,46.132l-1.545-1.1Z"/><path d="M61.894,30.553A1,1,0,0,0,61,30H57a1,1,0,0,0-.707.293l-1,1a1,1,0,0,0-.188,1.154L55.882,34l-.382.764L54.073,31.91a13,13,0,0,0-10.764-7.159L32.066,24q-.066,0-.132,0l-11.243.749a12.952,12.952,0,0,0-7.258,2.821A13.111,13.111,0,0,0,9.927,31.91L8.5,34.764,8.118,34,8.9,32.447a1,1,0,0,0-.188-1.154l-1-1A1,1,0,0,0,7,30H3a1,1,0,0,0-.894.553l-1,2A1,1,0,0,0,1.292,33.7l1,1A1,1,0,0,0,3,35H6.382l.476.953L4.553,37.1a1.018,1.018,0,0,0-.385.34l-2,3A1.006,1.006,0,0,0,2,41V53.746A3.061,3.061,0,0,0,3,56H3v1.939A3.034,3.034,0,0,0,6,61h4a3.009,3.009,0,0,0,2.9-2.3l3,.3c.034,0,.067.005.1.005a.993.993,0,0,0,.394-.081l3.251-1.393.46.921A1,1,0,0,0,21,59H43a1,1,0,0,0,.9-.553l.46-.921,3.251,1.393A.993.993,0,0,0,48,59c.033,0,.066,0,.1-.005l2.986-.3A2.957,2.957,0,0,0,54,61h4a3.034,3.034,0,0,0,3-3.061V56.087a3.057,3.057,0,0,0,1-2.25V41a1.006,1.006,0,0,0-.168-.555l-2-3a1.018,1.018,0,0,0-.385-.34l-2.3-1.152L57.618,35H61a1,1,0,0,0,.708-.294l1-1a1,1,0,0,0,.186-1.153Zm-47.21-1.419a10.949,10.949,0,0,1,6.14-2.387L32,26l11.176.745a11.006,11.006,0,0,1,9.108,6.058L53.381,35H10.618l1.1-2.2A10.92,10.92,0,0,1,14.684,29.134ZM52.585,37l-6.109,6.11L39.86,45H36.236l-1.789-.9A1,1,0,0,0,34,44H30a1,1,0,0,0-.447.1l-1.789.9H24.14l-6.616-1.891L11.414,37Zm-46.2-4H3.415l-.2-.2.4-.8H6.586l.2.2ZM5.2,53.4A1,1,0,0,0,5,54v1.033l-.544-.4A1.075,1.075,0,0,1,4,53.746V47.414l3.25,3.25ZM10,59H6a1.033,1.033,0,0,1-1-1.061v-.431l.41.3.009-.013A.979.979,0,0,0,5.9,58l4.934.494A.975.975,0,0,1,10,59Zm31.394-4.919-.788,1.838,1.908.818L42.382,57H21.618l-.132-.263,1.908-.818-.788-1.838-6.763,2.9L7,56.1V54.333l2.336-3.116,11.512,1.771A.964.964,0,0,0,21,53H43a.961.961,0,0,0,.151-.012l11.512-1.77L57,54.333V56.1l-8.843.884Zm18.149.646L59,55.1V54a1,1,0,0,0-.2-.6l-2.051-2.735L60,47.414v6.423A1.074,1.074,0,0,1,59.543,54.727ZM58,59H54a.975.975,0,0,1-.834-.511L58.1,58a.973.973,0,0,0,.458-.183l.008.012.434-.3v.413A1.033,1.033,0,0,1,58,59Zm2-17.7v3.283l-4.476,4.476L42.923,51H21.077l-12.6-1.938L4,44.586V41.3l1.685-2.528L8.8,37.217l7.49,7.49a1.006,1.006,0,0,0,.432.255l7,2A1.02,1.02,0,0,0,24,47h4a1,1,0,0,0,.447-.1l1.789-.9h3.528l1.789.9A1,1,0,0,0,36,47h4a1.02,1.02,0,0,0,.275-.038l7-2a1.006,1.006,0,0,0,.432-.255L55.2,37.216l3.119,1.559Zm.585-8.3H57.618l-.4-.8.2-.2h2.968l.4.8Z"/><rect x="31" y="46.999" width="2" height="2"/></svg>