<svg xmlns="http://www.w3.org/2000/svg"  height="140pt" width="140pt" viewBox="0 0 128 160" x="0px" y="0px" style="fill: #d3d3d3;"><path d="M100.17,44.86c.83,0,1.5-.67,1.5-1.5,0-5.99-4.89-10.86-10.89-10.86s-10.89,4.87-10.89,10.86c0,.83,.67,1.5,1.5,1.5h18.79Zm-9.39-9.36c3.84,0,7.04,2.74,7.75,6.36h-15.5c.71-3.62,3.91-6.36,7.75-6.36Z"/><path d="M108.86,92.63v-26.18c0-1.09-.68-1.26-3.2-2.71,3.93-2.26,3.2-.89,3.2-8.13,0-1.09-.67-1.26-3.21-2.72,2.38-1.37,3.21-1.59,3.21-2.72v-9.17c0-6.54-3.65-12.63-9.36-15.78V14.88c0-2.37-1.93-4.29-4.3-4.29h-8.86c-2.37,0-4.29,1.93-4.29,4.29v10.35c-5.71,3.15-9.36,9.23-9.36,15.78,0,9.9-.26,9.89,.75,10.47l2.46,1.42c-3.93,2.26-3.21,.9-3.21,8.14,0,1.09,.68,1.26,3.2,2.71-2.5,1.44-3.2,1.62-3.2,2.71v24.94h-6.8V53.6c0-2.63-1.04-5.16-2.85-7.06v-13.88c0-.83-.67-1.5-1.5-1.5h-1.8v-4.2c4.42-.6,7.84-4.37,7.84-8.94,0-4.98-4.06-9.03-9.06-9.03H26.24c-.83,0-1.5,.67-1.5,1.5v1.47h-7.65c-.83,0-1.5,.67-1.5,1.5v9.12c0,.83,.67,1.5,1.5,1.5h7.65v17.78c0,3.52,9.76,.87,9.76-6.73v-8.08h7.24v4.1h-1.81c-.83,0-1.5,.67-1.5,1.5v13.19c-4.16,3.56-3.58,7.65-3.58,12.67h-7.61c-5.65,0-10.25,4.58-10.25,10.21v48.77c0,.83,.67,1.5,1.5,1.5H107.36c.83,0,1.5-.67,1.5-1.5v-11.92c4.76-3.03,4.7-9.95,0-12.95Zm-3,14.11v9.26h-3.44v-3.36c0-1.98-3-1.98-3,0v3.36h-3.3v-3.36c0-1.98-3-1.98-3,0v3.36h-3.3v-3.36c0-1.98-3-1.98-3,0v3.36h-3.3v-3.36c0-1.98-3-1.98-3,0v3.36h-3.3v-3.36c0-1.98-3-1.98-3,0v3.36h-3.3v-3.36c0-1.98-3-1.98-3,0v3.36h-3.3v-3.36c0-1.98-3-1.98-3,0v3.36h-3.3v-3.36c0-1.98-3-1.98-3,0v3.36h-3.3v-3.36c0-1.98-3-1.98-3,0v3.36h-2.54v-9.26c.85,.13,58.35,.15,59.36,0ZM19.99,68.73c0-3.98,3.25-7.21,7.25-7.21h9.11c.83,0,1.5-.67,1.5-1.5v-6.42c0-4.04,3.27-7.21,7.25-7.21,11.18,0,10.75-.01,11.23,.03,3.53,.33,6.57,3.26,6.57,7.18v37.79h-5.29V56.93c0-1.52-.6-2.96-1.68-4.04-3.59-3.57-9.77-1.05-9.77,4.04v11h-15.41c-3.16,0-5.73,2.56-5.73,5.7v37.28c0,.83,.67,1.5,1.5,1.5h16.98v3.59H19.99v-47.27Zm21.44-24.68v-9.89h18.62c0,11.72,.1,10.26-.24,10.11-1.02-.45-2.1-.73-3.1-.83-.92-.1-11.75-.1-12.79,.01-.93,.1-1.83,.34-2.49,.59Zm-9.93-8.92c0,2.37-1.59,4.37-3.76,5.02v-13.1h3.76v8.08ZM18.58,14.97h6.15v6.12h-6.15v-6.12Zm9.15,9.08V12h30.79c3.34,0,6.06,2.7,6.06,6.03,0,3.08-2.37,6.03-6.34,6.03H27.74Zm17,3h12.01v4.1h-12.01v-4.1Zm9.87,64.33c-6.67,0-9.51-.59-12.4,2.26-3.55,3.54-2.77,9.39,1.29,11.95v3.81h-15.48v-35.78c0-1.49,1.22-2.7,2.73-2.7h16.91c.83,0,1.5-.67,1.5-1.5v-12.5c0-1.49,1.22-2.71,2.73-2.71s2.73,1.22,2.73,2.71v34.46Zm53.43,11.06c-.79,.79-2,1.38-3.35,1.38-59.04,0-57.56,.26-59.04-.48-4.54-2.13-2.97-8.96,2.05-8.96h57c4.24,0,6.29,5.12,3.35,8.06Zm-32.34-35.13c3.92-2.26,4.71-2.44,4.71-3.58s-.68-1.26-4.71-3.57v-3.69l3.96-2.28c1-.58,1-2.02,0-2.6l-3.96-2.29v-8.31c0-10.95,11.57-18.4,21.66-13.52,5.17,2.5,8.51,7.8,8.51,13.52v8.31c-3.72,2.15-4.71,2.37-4.71,3.58s.69,1.26,4.71,3.58v3.69l-3.96,2.27c-1,.58-1,2.02,0,2.6l3.96,2.28v24.16c-.74-.12-1.47-.09-3.57-.09v-18.89c0-1.98-3-1.98-3,0v18.89h-6.49v-18.89c0-1.98-3-1.98-3,0v18.89h-6.49v-18.89c0-1.98-3-1.98-3,0v18.89h-4.62v-24.07Zm9.36-52.44c0-.71,.58-1.29,1.29-1.29h8.86c.71,0,1.29,.58,1.29,1.29v2.87h-11.45v-2.87Zm0,9.02v-3.16h11.46v3.16c-3.8-1.27-8.01-1.15-11.46,0Z"/></svg>