<?xml version="1.0" encoding="utf-8"?>
<!-- Generator: Adobe Illustrator 24.3.0, SVG Export Plug-In . SVG Version: 6.00 Build 0)  -->

<svg version="1.1" id="Слой_1"  height="140pt" width="140pt"  xmlns="http://www.w3.org/2000/svg" xmlns:xlink="http://www.w3.org/1999/xlink" x="0px" y="0px"
	 viewBox="0 0 226.8 226.8" style="enable-background:new 0 0 226.8 226.8;" xml:space="preserve">
<style type="text/css">
	.st0{fill:#313131;}
	.st1{display:none;}
	.st2{display:inline;opacity:0.45;}
	.st3{fill:#020203;}
	.st4{fill:#323232;}
	.st5{fill:none;stroke:#D3D3D3;stroke-width:2;stroke-miterlimit:10;}
	.st6{fill:#323232;stroke:#D3D3D3;stroke-width:3;stroke-miterlimit:10;}
	.st7{fill:none;stroke:#D3D3D3;stroke-width:3;stroke-miterlimit:10;}
	.st8{fill:#323232;stroke:#D3D3D3;stroke-width:2;stroke-miterlimit:10;}
	.st9{fill:#D3D3D3;}
</style>
<rect x="-8.7" y="-2.3" class="st0" width="244.2" height="231.3"/>
<g id="Слой_1_1_" class="st1">
	<g class="st2">
		<path class="st3" d="M75,89.4L75,89.4c0-6.6,5.3-11.9,11.9-11.9v-2.4c-5.3,0-9.6-4.3-9.6-9.6h-4.8c0,5.3-4.3,9.6-9.6,9.6v2.4
			C69.7,77.5,75,82.8,75,89.4z M75,73.4c1.1,1.6,2.4,3,4,4c-1.6,1.1-3,2.4-4,4c-1.1-1.6-2.4-3-4-4C72.6,76.4,74,75,75,73.4z"/>
		<path class="st3" d="M151.5,89.4L151.5,89.4c0-6.6,5.3-11.9,11.9-11.9v-2.4c-5.3,0-9.6-4.3-9.6-9.6H149c0,5.3-4.3,9.6-9.6,9.6v2.4
			C146.1,77.5,151.5,82.8,151.5,89.4z M151.5,73.4c1.1,1.6,2.4,3,4,4c-1.6,1.1-3,2.4-4,4c-1.1-1.6-2.4-3-4-4
			C149,76.4,150.4,75,151.5,73.4z"/>
		<path class="st3" d="M115.6,67.9c0-5.3,4.3-9.6,9.6-9.6v-4.8c-5.3,0-9.6-4.3-9.6-9.6h-4.8c0,5.3-4.3,9.6-9.6,9.6v4.8
			c5.3,0,9.6,4.3,9.6,9.6H115.6z M109.2,56c1.6-1.1,3-2.4,4-4c1.1,1.6,2.4,3,4,4c-1.6,1.1-3,2.4-4,4C112.2,58.4,110.8,57,109.2,56z"
			/>
		<path class="st3" d="M71.6,140l-16.7-11c-1.1-0.7-2.6-0.4-3.3,0.7c-0.2,0.3-0.4,0.7-0.4,1.2l-0.7,10.6c-0.1,0.9,0.4,1.7,1.1,2.2
			l9.6,5.9c0.8,0.5,1.8,0.5,2.6-0.1l7.8-5.6c1.1-0.8,1.3-2.3,0.6-3.3C72,140.3,71.8,140.1,71.6,140L71.6,140z M62.3,144.7l-7-4.3
			l0.3-5.1L66,142L62.3,144.7z"/>
		<path class="st3" d="M153.9,141.9c0,0.8,0.4,1.5,1,2l7.8,5.6c0.8,0.6,1.8,0.6,2.6,0.1l9.6-5.9c0.8-0.5,1.2-1.3,1.1-2.2l-0.7-10.6
			c-0.1-1.3-1.2-2.3-2.5-2.2c-0.4,0-0.8,0.2-1.2,0.4L154.9,140C154.3,140.4,153.9,141.1,153.9,141.9z M170.8,135.3l0.3,5.1l-7,4.3
			l-3.7-2.6L170.8,135.3z"/>
		<path class="st3" d="M184.7,107.4c-0.4-0.8-1.2-1.3-2.1-1.3H173c-0.6,0-1.2,0.3-1.7,0.7l-2.4,2.4c-0.7,0.7-0.9,1.8-0.4,2.8
			l1.9,3.7l-0.9,1.8l-3.4-6.8c-4.9-9.9-14.7-16.4-25.7-17.1L115,91.9c-1.2,0-2.4,0-3.6,0l-25.2,1.7c-6.3,0.4-12.4,2.8-17.3,6.7
			c-3.5,2.8-6.4,6.3-8.4,10.4l-3.4,6.8l-0.9-1.8l1.9-3.7c0.5-0.9,0.3-2-0.4-2.8l-2.4-2.4c-0.5-0.5-1.1-0.7-1.7-0.7H44
			c-0.9,0-1.7,0.5-2.1,1.3l-2.4,4.8c-0.5,0.9-0.3,2,0.4,2.7l2.4,2.4c0.4,0.5,1.1,0.7,1.7,0.7h8.1l1.1,2.3l-5.5,2.7
			c-0.4,0.2-0.7,0.5-0.9,0.8L42,131c-0.3,0.4-0.4,0.9-0.4,1.3v30.4c0,2.1,0.9,4,2.4,5.4l0,0v4.6c0,4,3.2,7.3,7.2,7.3h9.6
			c3.3,0,6.2-2.3,6.9-5.5l7.2,0.7c0.1,0,0.2,0,0.2,0c0.3,0,0.6-0.1,0.9-0.2l7.8-3.3l1.1,2.2c0.4,0.8,1.2,1.3,2.1,1.3h52.5
			c0.9,0,1.7-0.5,2.1-1.3l1.1-2.2l7.8,3.3c0.3,0.1,0.6,0.2,0.9,0.2c0.1,0,0.2,0,0.2,0l7.1-0.7c0.7,3.2,3.6,5.5,7,5.5h9.6
			c4,0,7.2-3.3,7.2-7.3v-4.4c1.5-1.4,2.4-3.3,2.4-5.4v-30.7c0-0.5-0.1-0.9-0.4-1.3l-4.8-7.2c-0.2-0.3-0.5-0.6-0.9-0.8l-5.5-2.8
			l1.1-2.3h8.1c0.6,0,1.2-0.3,1.7-0.7l2.4-2.4c0.7-0.7,0.9-1.8,0.4-2.7L184.7,107.4z M71.9,104.1c4.2-3.4,9.3-5.4,14.7-5.7l25.1-1.7
			c1.1-0.1,2.2-0.1,3.3,0l25.1,1.7c9.3,0.6,17.6,6.1,21.8,14.5l2.6,5.2H62.2l2.6-5.3C66.5,109.4,68.9,106.4,71.9,104.1z
			 M162.4,122.8l-14.6,14.6L132,142h-8.7l-4.3-2.1c-0.3-0.2-0.7-0.2-1.1-0.2h-9.6c-0.4,0-0.7,0.1-1.1,0.2l-4.3,2.1h-8.7l-15.8-4.5
			l-14.6-14.6L162.4,122.8L162.4,122.8z M52.1,113.3H45l-0.5-0.5l1-1.9h7.1l0.5,0.5L52.1,113.3z M49.2,162c-0.3,0.4-0.5,0.9-0.5,1.4
			v2.5l-1.3-1c-0.7-0.5-1.1-1.3-1.1-2.1v-15.1l7.8,7.8L49.2,162z M60.7,175.4h-9.6c-1.4,0-2.4-1.2-2.4-2.5v-1l1,0.7l0,0
			c0.3,0.3,0.7,0.4,1.1,0.5l11.8,1.2C62.3,174.9,61.5,175.4,60.7,175.4z M135.7,163.6l-1.9,4.4l4.6,2l-0.3,0.6H88.5l-0.3-0.6l4.6-2
			l-1.9-4.4l-16.2,6.9l-21.1-2.1v-4.2l5.6-7.4l27.5,4.2c0.1,0,0.2,0,0.4,0h52.5c0.1,0,0.2,0,0.4,0l27.5-4.2l5.6,7.4v4.2l-21.1,2.1
			L135.7,163.6z M179,165.2l-1.3,0.9v-2.6c0-0.5-0.2-1-0.5-1.4l-4.9-6.5l7.8-7.8v15.3C180.1,163.9,179.7,164.7,179,165.2z
			 M175.4,175.4h-9.6c-0.8,0-1.6-0.5-2-1.2l11.8-1.2c0.4,0,0.8-0.2,1.1-0.4l0,0l1-0.7v1C177.8,174.2,176.7,175.3,175.4,175.4z
			 M180.1,133.1v7.8l-10.7,10.7l-30.1,4.6H87.2l-30.1-4.6L46.4,141v-7.8l4-6l7.4-3.7l17.9,17.9c0.3,0.3,0.6,0.5,1,0.6l16.7,4.8
			c0.2,0.1,0.4,0.1,0.7,0.1h9.6c0.4,0,0.7-0.1,1.1-0.2l4.3-2.1h8.4l4.3,2.1c0.3,0.2,0.7,0.2,1.1,0.2h9.6c0.2,0,0.4,0,0.7-0.1
			l16.7-4.8c0.4-0.1,0.7-0.3,1-0.6l17.9-17.9l7.4,3.7L180.1,133.1z M181.5,113.3h-7.1l-1-1.9l0.5-0.5h7.1l1,1.9L181.5,113.3z"/>
		<rect x="110.9" y="146.7" class="st3" width="4.8" height="4.8"/>
	</g>
</g>
<g id="Слой_3">
</g>
<g>
	<circle class="st4" cx="128.8" cy="63.1" r="7.8"/>
	<circle class="st5" cx="128.8" cy="63.1" r="7.8"/>
</g>
<g>
	<circle class="st4" cx="200.9" cy="14.3" r="10.4"/>
	<circle class="st5" cx="200.9" cy="14.3" r="10.4"/>
</g>
<circle class="st4" cx="164.4" cy="42.8" r="21"/>
<circle class="st5" cx="162.7" cy="42.8" r="21"/>
<g>
	<g>
		<circle class="st4" cx="197.6" cy="80.5" r="6.7"/>
	</g>
	<g>
		<circle class="st5" cx="197.6" cy="80.5" r="6.7"/>
	</g>
</g>
<g>
	<g>
		<path class="st4" d="M124,129.1c0.9,1,1.7,2.1,2.5,3.1c-0.5-0.7,0.2,0.3,0.3,0.3c0.2,0.3,0.5,0.7,0.6,1c0.3,0.5,0.6,1,1.1,1.5
			c1.6,2.3,3,4.6,4.5,6.9c3.3,4.9,6.9,9.4,11.8,12.7c1.7,1.2,4.4,0.5,5.3-1.5c0.9-2,0.5-4.5-1.4-5.6c-0.6-0.3-1.1-0.8-1.6-1.2
			c-0.3-0.3,0.3,0.3-0.2-0.2c-0.3-0.2-0.5-0.5-0.8-0.7c-0.9-0.8-1.9-1.8-2.7-2.8c-0.5-0.5-0.8-1-1.1-1.3c-0.2-0.3-0.5-0.5-0.6-0.8
			c0,0-0.6-0.8-0.3-0.5c0.3,0.3-0.3-0.3-0.3-0.5c-0.2-0.3-0.5-0.7-0.6-0.8c-0.3-0.5-0.8-1.2-1.1-1.6c-3.1-4.6-6-9.6-9.7-13.7
			c-1.4-1.6-4.1-1.6-5.5,0C122.4,125,122.4,127.5,124,129.1L124,129.1z"/>
	</g>
</g>
<g>
	<g>
		<path class="st4" d="M127.4,139.7c6.3,7.3,11.4,15.7,14.9,24.7c2.4-1,4.7-2.1,7.2-3.1c-1.4-3-2-6.1-1.7-9.4c-2.2,1-4.4,2-6.7,3
			c3.1,3.3,6.1,6.8,8.6,10.6c1.1,1.5,2.7,2.5,4.4,1.8c1.6-0.5,3-2.1,2.8-4c-0.8-10.4-2.5-20.8-5.3-30.7c-2.5,0.7-5,1.5-7.5,2.1
			c2.2,7.4,4.4,14.8,6.6,22.1c2.4-1,4.7-2.1,7.2-3.1c-5.2-7.9-8.9-16.5-11.3-25.7c-1.3-4.8-7.2-3.3-7.7,1.2
			c-0.6,5.9-0.6,11.7-0.2,17.6c2.2-1,4.4-2,6.7-3c-4.4-5.8-8-12.2-10.8-19c-0.6-1.6-2.8-2.3-4.4-1.8c-1.7,0.5-2.8,2.1-2.8,4
			c-0.9,13.5,0.2,27.2,3.4,40.4c0.5,2.1,2.8,3.5,4.9,2.8c2.2-0.7,3.1-2.8,2.7-5.1c-3-19,3.1-37.9,8.6-55.7c-2.4,0.3-4.7,0.7-7.2,1
			c5.3,11.2,9.2,23.3,11.6,35.5c2.2-1.3,4.4-2.6,6.6-4c-5.8-6.3-10.5-13.5-14.1-21.3c-1.6-3.3-6.3-2.3-7.2,1
			c-3.8,15,0,31.2,9.7,42.7c2,2.5,5.6,1,6.6-1.8c2.8-8.7,2.7-18.5-0.2-27.2c-1.1-3.3-5.3-4.1-7.2-1c-3.6,6.1-6.9,12.5-9.7,19.1
			c-2.7,6.3-5.5,13.5-2.8,20.3c0.8,2,2.2,3.3,4.2,3c1.7-0.3,3.6-2,3.4-4.1c-0.6-7.4-0.2-14.7,1.7-21.9c-1.9,0.8-3.8,1.6-5.8,2.5
			c6,4.5,9.2,11.9,9.2,19.5c2-1.2,3.9-2.3,6-3.6c-5-2.6-8.6-7.8-9.1-13.7c-2.5,0.7-4.9,1.3-7.4,2.1c2.4,4.9,3.4,10.9,2.7,16.5
			c2.2-0.7,4.4-1.2,6.6-1.8c-2.4-3.1-1.3-8.1-0.5-11.5c1.3-5.3,2.8-10.4,4.7-15.3c1.9-4.9,4.2-9.6,6.9-14c1.3-2.1,2.7-4.3,4.1-6.4
			c0.8-1,1.4-2.1,2.2-3.1c0.5-0.5,0.8-1.2,1.3-1.6c0.2-0.2,0.3-0.3,0.5-0.5c0.5-0.5,0.5-0.7,0-0.2c-0.6,0-1.4,0-2,0
			c-2-0.3-0.6-1.5-0.8-0.3c-0.2,0.5,0.3,1.3,0.3,1.8c0.2,1.3,0.5,2.5,0.6,3.8c0.3,2.8,0.5,5.6,0.5,8.2c0,5.4-0.8,10.9-2.2,16.2
			c1.6-1,3.3-2,4.9-2.8c-2.5-1-3.9-3.8-4.7-6.4c-1.1-4.3-0.3-8.9,0.2-13.2c0.2-1.8-1.4-3.5-2.8-4c-1.7-0.5-3.4,0.3-4.4,1.8
			c-6.7,9.6-9.1,21.8-6.9,33.5c0.9,4.6,7.8,3.5,7.7-1.2c-0.5-11.5,5.2-21.9,10.3-31.7c-2.5-0.7-4.9-1.3-7.4-2.1
			c-0.2,12.9-1.4,25.7-3.6,38.4c2.5,0.3,5.2,0.7,7.7,1.2c-1.1-10.7-0.2-21.4,3-31.7c-2.5,0-5,0-7.5,0c2.7,8.6,3.4,17.5,2.8,26.4
			c2.5-0.3,5.2-0.7,7.7-1.2c-1.6-6.9,0.9-14.2,6-18.8c-2-0.3-4.1-0.5-6.1-0.8c0.8,1.6,0,4-0.3,5.6c-0.6,2.5-1.6,4.9-2.4,7.4
			c-1.6,5.3-3.3,10.4-4.9,15.7c2.5,0.3,5.2,0.7,7.7,1.2c0.3-12.4,4.9-24.6,12.7-33.8c-2.2-0.7-4.4-1.2-6.6-1.8
			c2.5,7.1,1.7,14.7-2.4,20.9c2.5,0.7,4.9,1.3,7.4,2.1c0.5-5.4,2-11,4.2-16c0.8-1.8,0.6-4-0.9-5.3c-1.6-1.2-3.8-1.2-5.2,0.3
			c-6.7,7.6-12.7,16.2-17.6,25.2c-1.9,3.5,2,8.1,5.3,5.6c10.7-7.8,21.8-16.5,25.7-30.2c-2.5,0-5,0-7.5,0c0.5,1.2,0.8,2.3,1.3,3.5
			c0.6,2,2.2,3.3,4.2,3c1.7-0.3,3.6-2,3.4-4.1c-0.3-2.3,0-4.1,0.8-6.3c-1.6,1-3.3,2-4.9,2.8c1.7,0.3,2.8,1,3.9,2.5
			c0.6-2.3,1.1-4.6,1.7-6.9c-2.4,0.7-4.7,1.3-7.1,2c-4.9,1.3-2.8,9.2,2,7.9c2.4-0.7,4.7-1.3,7.1-2c3-0.8,3.6-4.6,1.7-6.9
			c-1.9-2.3-4.5-4-7.4-4.6c-2.2-0.5-3.9,0.7-4.9,2.8c-0.9,2.6-1.4,5.6-0.9,8.4c2.5-0.3,5.2-0.7,7.7-1.2c-0.5-1.2-0.8-2.3-1.3-3.5
			c-1.3-3.8-6.4-4.1-7.5,0c-3.3,11.4-13.3,18.8-22.1,25.2c1.7,1.8,3.6,3.8,5.3,5.6c4.5-8.6,10-16.3,16.5-23.6
			c-2-1.6-4.1-3.3-6.1-4.9c-2.8,6.4-4.5,13-5.3,20.1c-0.2,1.8,1.4,3.5,2.8,4c1.7,0.5,3.4-0.3,4.4-1.8c5.2-7.9,6.4-18.5,3.1-27.4
			c-0.9-2.6-4.4-4.3-6.6-1.8c-9.2,10.9-14.6,24.9-15,39.6c-0.2,4.8,6.4,5.4,7.7,1.2c1.9-5.9,3.8-12,5.6-18c1.7-5.8,3.6-11.2,1.1-17
			c-1.1-2.6-4.4-2.5-6.1-0.8c-7.2,6.6-10.2,17.2-8,26.9c1.1,4.8,7.4,3.3,7.7-1.2c0.8-9.6-0.3-19.5-3.1-28.7c-1.3-4-6.3-4-7.5,0
			c-3.4,10.9-4.5,22.4-3.3,33.8c0.2,2,1.3,3.8,3.4,4.1c1.7,0.2,3.9-1,4.2-3c2.4-13.4,3.6-26.9,3.9-40.6c0-4.1-5.3-5.6-7.4-2.1
			c-6,10.9-12.1,22.8-11.4,35.8c2.5-0.3,5.2-0.7,7.7-1.2c-1.9-9.6,0.6-19.3,6.1-27c-2.5-0.7-4.9-1.3-7.4-2.1
			c-0.8,5.6-1.4,11.5,0.6,17c1.7,4.9,4.9,8.6,9.6,10.4c2,0.8,4.2-0.8,4.9-2.8c2.2-7.9,3-16.5,2.4-24.7c-0.3-3.8-0.5-8.6-2.2-11.9
			c-0.9-1.8-2.5-3.1-4.4-3.3c-2.4-0.2-4.1,1.2-5.5,3c-9.4,11.7-16.5,25.7-20.4,40.6c-2,7.9-3.6,16.5,1.6,23.4
			c1.7,2.3,6.1,1.2,6.6-1.8c1.1-7.9,0-15.7-3.4-22.8c-1.7-3.6-7.7-2-7.4,2.1c0.8,8.7,5.5,16.8,13,20.8c2.7,1.3,6-0.3,6-3.6
			c0-10.6-5-20.4-13.2-26.6c-2-1.6-5.2,0-5.8,2.5c-2,7.8-2.7,16-2,24.1c2.5-0.3,5.2-0.7,7.7-1.2c-2.2-5.4,0.8-11.2,3-16
			c2.7-5.8,5.6-11.5,8.8-17c-2.4-0.3-4.7-0.7-7.2-1c2.5,7.4,2.5,15.3,0.2,22.8c2.2-0.7,4.4-1.2,6.6-1.8c-7.8-9.4-10.7-22.6-7.7-34.6
			c-2.4,0.3-4.7,0.7-7.2,1c3.9,8.4,9.2,16.2,15.4,22.9c2.8,3.1,7.4-0.2,6.6-4c-2.5-13-6.7-25.6-12.5-37.4c-1.6-3.3-6.1-2.1-7.2,1
			c-6,19.5-11.8,39.4-8.6,60c2.5-0.7,5-1.5,7.5-2.1c-3.1-12.5-4.1-25.4-3.1-38.3c-2.5,0.7-4.9,1.3-7.4,2.1
			c3.1,7.4,7.2,14.2,12.1,20.6c2,2.6,7.1,0.5,6.7-3c-0.5-5.9-0.5-11.7,0.2-17.6c-2.5,0.3-5.2,0.7-7.7,1.2
			c2.5,9.9,6.6,19.3,12.1,27.7c2.4,3.6,8.6,1.5,7.2-3.1c-2.2-7.4-4.4-14.8-6.6-22.1c-1.6-5.1-9.1-3-7.5,2.1
			c2.7,9.2,4.4,18.8,5.2,28.5c2.5-0.7,4.9-1.3,7.4-2.1c-3-4.3-6.3-8.4-9.9-12.2c-2.5-2.6-6.4-0.5-6.7,3c-0.3,4.8,0.8,9.4,2.8,13.5
			c2,4.1,8.9,1.2,7.2-3.1c-4.1-10.4-9.7-20-16.9-28.4C129.5,130,124,135.7,127.4,139.7L127.4,139.7z"/>
	</g>
</g>
<g>
	<g>
		<path class="st4" d="M146,158.6c9,2.2,17.5-1.9,26.1-6.6c6.5-3.8,15.7-11,22.1-4.1c4.9,5.3,9.5-8.2,4.5-13.5
			c-7.7-8.5-17.1-4.4-25.2,0.3c-7.9,4.4-16.6,11-25.2,8.8c-2.3-0.6-4.9,0.9-5.6,5.3C142.4,152.6,143.7,157.9,146,158.6L146,158.6z"
			/>
	</g>
</g>
<g>
	<g>
		<path class="st4" d="M132.1,130c-0.8,5.3-3.4,9.9-6,14.5c-2.7,4.9-4.9,10.2-5,16c2.5-0.3,5.2-0.7,7.7-1.2c-0.6-4,0.9-8.2,1.7-12
			c1.1-4.5,2-8.7,3.1-13.2c-2.5-0.3-5.2-0.7-7.7-1.2c-0.2,7.4-0.6,14.8-1.7,22.3c2.5,0,5,0,7.5,0c-2.4-7.1-2.4-14.5-0.2-21.6
			c-2.5,0-5,0-7.5,0c1.7,9.1,1.9,18.6,0.3,27.9c2.2-0.7,4.4-1.2,6.6-1.8c-0.8-0.7-0.5-2.6-0.6-3.6c-0.2-2.5-0.5-4.8-0.9-7.3
			c-0.9-4.5-2.5-8.7-4.7-12.9c-2.2-4.1-8.5-1.3-7.2,3.1c2,7.6,2.8,15.3,2,23.3c2.7,0,5.2,0,7.8,0c-0.2-11.5,1.1-23.1,3.8-34.3
			c-2.5-0.3-5.2-0.7-7.7-1.2c-0.3,9.4-2.7,18.8-6.7,27.2c1.1-0.7,2.2-1.3,3.4-2c-0.2,0-0.3,0-0.3,0c0.6,0.2,1.3,0.3,2,0.5
			c0.2,0,1.1,1.3,0.9,1.3c0,0,0-1.8,0-2c0-1.2,0-2.1,0-3.3c0-2.5,0.2-4.8,0.5-7.3c0.3-4.6,0.9-9.1,1.7-13.7c-2.4,0.3-4.7,0.7-7.2,1
			c0.6,1.2,0.3,2.6,0,4c-0.5,2-1.3,4.1-1.9,6.1c-1.4,4.3-2.8,8.7-4.4,13c-1.4,4.1-3,8.4-4.5,12.5c-0.8,2.1-1.6,4.1-2.4,6.3
			c-0.3,1-0.8,2-1.1,3c-0.2,0.5-0.5,1-0.6,1.5c0,0.2-0.6,1.3-0.3,1c0.6-0.3,1.1-0.7,1.7-1c-0.2,0-0.3,0-0.5,0.2c0.9,0.2,2,0.3,3,0.5
			c0.6,1.2,0.8,1.3,0.5,0.2c-0.2-0.5-0.2-1-0.3-1.5c-0.2-0.8-0.3-1.5-0.3-2.3c-0.2-1.6-0.3-3.5-0.5-5.1c-0.2-3.3,0-6.8,0.3-10.1
			c0.6-6.6,2.5-13.2,5.3-19.3c-2.4-0.3-4.7-0.7-7.2-1c1.6,8.6,0.6,17.3-2.5,25.4c2.5,0.3,5.2,0.7,7.7,1.2
			c-1.1-8.4,0.5-16.7,4.5-23.9c2.5-4.6-4.2-8.7-6.7-4.1c-4.7,8.4-6.7,18.3-5.5,28c0.6,4.6,6,5.6,7.7,1.2c3.6-9.6,4.2-19.8,2.5-29.8
			c-0.6-3.5-5.8-4.1-7.2-1c-6.3,13.5-8.2,28.7-5.6,43.4c0.3,1.8,0.6,3.5,1.9,4.8c1.6,1.8,4.2,2.1,6.1,0.7c1.4-1.2,1.9-3,2.7-4.8
			c0.8-2,1.6-3.8,2.2-5.8c2.8-7.4,5.6-14.8,8.2-22.4c1.4-4.1,2.8-8.2,4.1-12.4c1.3-4.1,2-8.4-0.2-12.2c-1.6-2.8-6.6-2.6-7.2,1
			c-1.1,6.4-1.9,13-2.2,19.5c-0.3,5.1-2,14.5,5,15.2c1.3,0.2,2.8-0.8,3.4-2c4.7-9.7,7.4-20.3,7.8-31.3c0.2-4.6-6.6-5.6-7.7-1.2
			c-2.8,11.9-4.1,24.2-3.9,36.6c0,5.4,7.4,5.3,7.8,0c0.8-8.6-0.2-17.2-2.4-25.4c-2.4,1-4.7,2.1-7.2,3.1c2,4.1,3.4,8.4,4.2,13
			c0.6,4.1-0.3,9.4,3.3,12.4c2,1.8,6,1.5,6.6-1.8c1.7-10.7,1.7-21.6-0.3-32.2c-0.8-4.3-6.4-3.6-7.5,0c-2.7,8.4-2.7,17.6,0.2,26.1
			c0.6,1.8,2,3,3.8,3c1.6,0,3.4-1.3,3.8-3c1.3-8.1,1.9-16.2,2-24.4c0.2-4.6-6.6-5.6-7.7-1.2c-1.1,4.9-2.4,9.9-3.4,14.8
			c-1.1,4.9-2.4,9.7-1.4,14.8c0.8,4.8,7.5,3.5,7.7-1.2c0.2-4.9,2.7-9.2,4.9-13.5c2.5-4.6,5.2-9.4,6-14.8c0.3-2.1-0.5-4.5-2.7-5.1
			C135.1,126.7,132.4,127.8,132.1,130L132.1,130z"/>
	</g>
</g>
<g>
	<g>
		<path class="st4" d="M118.5,139.7c1.4,0.2,2.1,0.7,2.6,1.5c0.2,0.4,0,0.7,0,1.1s-0.5,0.9-0.9,1.5c3.5,0.4,7.1,0.9,10.8,1.3
			c-1.2-3.3-2.4-6.5-2.8-10c-0.9-5.4-9.9-4.8-11.3,0c-0.9,3.5-2.4,6.7-3.8,10c-0.7,1.7-1.6,3.3-2.6,4.8c-0.5,0.7-0.9,1.5-1.4,2.2
			c-0.2,0.4-0.7,0.9-0.9,1.5c-0.7,1.1-0.7,0.9,0.5,0c0.9-0.2,1.9-0.4,3.1-0.7c3.3-0.2,3.1,2.6,2.4,0.4c-0.2-0.4-0.5-1.1-0.7-1.5
			c-0.5-1.5-0.9-3-1.2-4.6c-0.5-2.6-0.7-5.4-0.5-8.3c-3.1,1.5-5.9,3-8.9,4.8c2.8,1.3,4.5,3.9,6.1,6.5c1.4,2,4,3,6.6,2.4
			c2.4-0.7,4.7-2.8,4.2-5.2c-0.7-5.9-1.6-11.7-2.4-17.6c-3.1,1.5-5.9,3-8.9,4.8c-0.7-0.4-0.5-0.9-0.2,0.2c0,0.7,0.5,1.5,0.5,2.4
			c0.5,1.7,0.7,3.7,0.9,5.4c0.5,4.1,0.7,8.3,0.5,12.2c3.3-1.3,6.6-2.6,10.1-3.9c-2.6-2.2-3.5-5-3.3-8c-3.8,0.9-7.3,1.7-11.1,2.8
			c2.4,3.9,0.7,8.9-0.7,12.8c-2.1,6.1-4,12.2-2.4,18.5c3.8-0.9,7.5-2,11.3-2.8c-1.2-3.7,1.9-7.6,4.2-10.6c0.5-0.7,0.9-1.1,1.4-1.7
			c0.7-1.1,0.7-0.2,0-0.2c-0.5,0-1.4-0.2-1.9-0.4c-0.5,0-0.2-0.7,0,0.2c0,0,0.5,0.9,0.2,0.4c0.2,0.7,0.5,1.7,0.5,2.4
			c0.2-0.9,0.5-1.7,0.7-2.8c1.9-1.7,3.5-2.2,4.9-1.1c-0.2-0.2-0.7-0.7-0.9-0.9c-2.8-3-9.2-1.5-9.9,2.4c-0.7,3.7-0.9,7.2-0.7,10.9
			c0.9-1.5,1.9-3,2.8-4.8c-0.2,0-0.2,0.2-0.5,0.2c0.9-0.2,1.9-0.4,3.1-0.7c-0.2,0-0.2,0-0.5,0c0.9,0.2,1.9,0.4,3.1,0.7
			c1.2,2,1.6,2.4,1.2,1.3c0-0.4-0.2-0.7-0.2-1.1c-0.2-0.7-0.5-1.5-0.5-2.2c-0.2-1.1-0.5-2.2-0.5-3.5c-0.5-2.8-0.7-5.9-0.9-8.7
			c-0.7-6.1-1.9-12.2-5.4-17.6c-3.8-6.1-13.9-0.7-10.1,5.4c4.5,7.4,4,16.5,5.2,24.8c0.7,4.6,2.1,11.3,8.5,11.3
			c4.2,0.2,6.6-2.8,6.6-6.5c0-2.4,0-4.8,0.5-7.2c-3.3,0.9-6.6,1.5-9.9,2.4c1.9,2.2,4.7,3.7,7.8,3.7c4,0,7.5-3,7.5-7
			c0-5.2-3.3-11.3-8.9-12.6c-7.1-1.5-11.5,4.3-14.8,8.9c-3.5,5-5.9,11.1-4,17c2.1,6.7,12.9,3.9,11.3-2.8c-1.4-5.4,2.1-11.1,3.5-16.3
			c1.6-5.9,1.9-12.2-1.6-17.6c-3.1-4.8-10.8-2.6-11.1,2.8c-0.2,5.9,2.4,11.5,6.8,15.6c3.8,3.5,9.9,0.9,10.1-3.9
			c0.2-5.4-0.2-10.9-0.9-16.3c-0.7-4.8-1.6-10.4-6.4-13.3c-3.5-2-9.4,0.7-8.9,4.8c0.7,5.9,1.6,11.7,2.4,17.6
			c3.8-0.9,7.3-1.7,11.1-2.8c-2.6-4.1-5.6-8-10.4-10.4c-4-2-8.7,0.4-8.9,4.8c-0.2,5,0.5,10,1.9,14.8c1.6,4.8,4.7,11.3,11.5,9.6
			c4.9-1.3,7.3-7.6,9.2-11.3c2.4-4.6,4.2-9.3,5.9-14.1c-3.8,0-7.5,0-11.3,0c0.7,3.5,1.6,6.7,2.8,10c1.9,4.6,7.8,5.2,10.8,1.3
			c5.9-7.4,0.9-18.3-8.7-20.2c-3.1-0.7-6.4,0.9-7.3,3.7C113.5,135.6,115.2,139,118.5,139.7L118.5,139.7z"/>
	</g>
</g>
<g>
	<g>
		<path class="st4" d="M37.8,128.3c-0.3,0.3-1.7,1.6-1.7,2.3c0,0-0.2,0.2,0,0.2c0.5-0.2,0.8-0.2,1.3,0c0.5,0.5,0.9,1,1.4,1.5
			c0,0,0,0.2,0.2,0.2c0,0.7,0,1.5,0,2.1c-0.5,0.5-1.1,1-1.6,1.5c-0.6,0-1.4,0-2,0c0.2,0,0.2,0.2,0.3,0.2c0-2.6,0-5.3,0-7.9
			c-3.8,1.2-6.7,4.3-7.7,8.4c-0.6,3.1,1.9,5.8,4.9,5.1c2.2-0.5,4.2-1,6.4-1.5c-1.3-2.3-2.5-4.6-3.8-6.9c-3.4,3.8-6.9,7.6-10.5,11.4
			c-3.1,3.3,0.8,8.9,4.7,6.4c6-3.8,11.4-8.6,16-14.2c-2.2-1-4.4-2-6.7-3c0,5.1-0.5,10.1-1.6,15c-1.1,5.1,6.1,7.3,7.5,2.1
			c1.9-6.9,3-14.2,3.1-21.4c-2.2,1-4.4,2-6.7,3c3,3.8,3.6,9.1,3.9,13.9c0.5,5.6,0.8,11.5,2.2,17c0.6,2,2.4,3.3,4.2,3
			c2-0.3,3.1-2,3.4-4.1c0.8-5.8,1.4-11.4,2.2-17.2c0.6-5.1,1.6-10.2,3.8-14.8c-2.2,0-4.5,0-6.7,0c1.9,4.1,3.1,8.6,3.9,13
			c0.5,2,0.6,4.1,0.9,6.3c0.2,1.2,0.2,2.5,0.2,3.6c0,0.5,0,1,0,1.5c0,0.3,0,0.7,0,1c0,0.8,0.2,0.3,0.8-1.3c0.6-0.2,1.3-0.3,2-0.5
			c0.8,0,0.5,0.5,0.2,0c-0.3-0.5-0.8-0.8-1.1-1.3c-0.6-0.8-1.3-1.6-1.9-2.5c-1.3-1.8-2.4-3.6-3.4-5.6c-2-4-3.6-7.9-4.7-12.2
			c-0.8-2.8-4.7-4.3-6.6-1.8c-3.6,4.6-6.7,9.6-9.4,14.7c2.4,1,4.7,2.1,7.2,3.1c2.2-8.7,5.8-16.8,11-24.2c-2.2,0-4.5,0-6.7,0
			c2.2,4.8,3.6,9.9,4.4,15c0.3,2.5,0.5,5.1,0.5,7.8c0,1.2,0,2.5-0.2,3.6c0,0.7-0.2,1.5-0.2,2.1c0.2,2-1.6-1.3,1.7-0.8
			c0.6,0.2,1.3,0.3,2,0.5c0.2,0-0.2,0.5-0.2-0.5c0-0.7-0.3-1.5-0.5-2.3c-0.3-1.8-0.3-3.6-0.5-5.4c0-3.6,0.5-7.1,1.4-10.7
			c1.4-5.3-5.8-7.1-7.5-2.1c-2,5.9-5.5,11-9.9,15.5c2.2,1,4.4,2,6.7,3c-0.6-5.3,0.6-10.6,4.1-14.7c-1.6,0.2-3.1,0.5-4.7,0.7
			c2.5,2,3.8,6.6,4.9,9.6c1.7,4.3,3.6,8.6,5.3,12.9c0.6,1.5,2.5,2.1,3.9,2c1.6-0.3,2.7-1.3,3.3-3c5-14.5,10.2-29,15.2-43.4
			c-2.5-0.3-5.2-0.7-7.7-1.2c0.8,7.3-0.2,14.2-2.2,20.9c-0.9,3.3-2.2,6.6-3.4,9.7c-0.6,1.6-1.4,3.3-2,4.9c-0.5,1-0.8,1.8-1.3,2.8
			c-0.3,0.5-0.6,1.6-0.9,2.1c0.9-0.3,1.9-0.8,2.8-1.2h0.2c0.6,0.3,1.1,0.7,1.7,1c-1.9-1.6-3.4-4.3-4.9-6.3c-1.7-2.3-3.4-4.6-5.2-6.9
			c-1.3-1.6-4.2-1.5-5.5,0c-3.8,4.6-7.8,9.2-11.9,13.7c2.2,0.7,4.4,1.2,6.6,1.8c-0.5-3.3,0-6.6,0.9-9.7c-0.9,1-1.9,2-2.7,2.8
			c-1.1,0-1.9-0.5-2-1.5c-0.2,5.3,7.7,5.3,7.8,0c0.2-2.5-1.3-4.6-3.1-5.9c-2.2-1.3-5.6-1.2-7.1,1.3c-1.1,2-1.4,4.9-1.6,7.3
			c-0.3,2.6,0,5.3,0.3,7.9c0.5,3.1,4.7,3.8,6.6,1.8c4.1-4.5,8-9.1,11.9-13.7c-1.9,0-3.8,0-5.5,0c1.9,2.5,3.8,4.9,5.6,7.4
			c1.7,2.1,3.3,5.3,5.6,6.6c3.3,1.6,5.6-0.8,7.1-3.8c1.3-2.8,2.5-5.4,3.6-8.2c4.5-10.9,8.3-22.8,6.9-35c-0.5-4.6-6.1-5.6-7.7-1.2
			c-5,14.5-10.2,29-15.2,43.4c2.4-0.3,4.7-0.7,7.2-1c-2-4.8-3.9-9.6-6-14.3c-1.7-4.3-3.4-8.1-7.1-11c-1.3-1-3.8-0.7-4.7,0.7
			c-4.7,5.6-7.2,13-6.4,20.4c0.3,3.5,4.1,5.6,6.7,3c5.3-5.3,9.2-11.9,11.9-19.1c-2.5-0.7-5-1.5-7.5-2.1c-1.7,6.4-2,13-1.1,19.6
			c0.5,3,1.1,6.4,3.9,8.2c3,1.8,6.4,0.3,7.7-2.8c1.1-2.6,0.9-6.1,0.9-8.9c0-3.1-0.2-6.4-0.6-9.6c-0.8-6.3-2.7-12.4-5.3-18.1
			c-1.4-3.1-5.2-2.3-6.7,0c-5.5,7.9-9.4,16.8-11.8,26.2c-1.1,4.5,5,7.4,7.2,3.1c2.4-4.6,5.2-8.9,8.2-13c-2.2-0.7-4.4-1.2-6.6-1.8
			c1.6,5.8,3.8,11.2,6.7,16.3c1.6,2.6,3.4,5.3,5.3,7.6c2,2.5,4.7,4.6,7.8,3.3c3.1-1.2,3.6-4.6,3.6-7.8s-0.3-6.4-0.8-9.6
			c-0.9-6.4-2.8-12.4-5.3-18.3c-1.3-2.8-5.5-2.6-6.7,0c-2.7,5.3-3.9,11-4.7,17c-0.8,6.4-1.6,12.7-2.4,19.1c2.5-0.3,5.2-0.7,7.7-1.2
			c-1.6-5.6-1.6-11.5-2.2-17.3c-0.8-6.4-2.2-12.2-6-17.2c-2.2-3-6.6-0.3-6.7,3c-0.2,6.6-1.1,13-2.8,19.3c2.5,0.7,5,1.5,7.5,2.1
			c1.3-5.6,1.9-11.4,1.9-17.2c0-3.3-4.4-5.8-6.7-3c-4.1,5.1-8.9,9.4-14.4,12.9c1.6,2.1,3.1,4.3,4.7,6.4c3.4-3.8,6.9-7.6,10.5-11.4
			c2.8-3,0-7.8-3.8-6.9c-2.2,0.5-4.2,1-6.4,1.5c1.6,1.6,3.3,3.5,4.9,5.1c0.3-1.3,0.9-2.3,2.2-2.6c3.9-1.2,3.6-6.6,0-7.9
			c-5.2-2-8.5,5.8-4.5,9.2c1.7,1.5,4.1,1.6,6.1,0.8s2.8-2.5,4.2-4.1c1.4-1.6,1.6-4.1,0-5.8C42,126.8,39.2,126.7,37.8,128.3
			L37.8,128.3z"/>
	</g>
</g>
<g>
	<g>
		<path class="st4" d="M74.8,140.9c4.9,0,9.4-1.8,13.6-4.1c2-1.2,3.9-2.3,6-3.5c1.1-0.7,2-1.2,3.1-1.8c0.5-0.3,1.3-0.5,1.7-0.8l0,0
			c1.1-0.3,0.6-0.5-1.4-0.7c0.2-0.3,0.5,1.5,0.6,1.6c0-1.2,0.5-1.8,1.4-2.1c-0.2,0-0.3,0-0.3,0.2c0.3,0,0.3,0-0.2,0
			c-0.2,0-0.5,0-0.6,0c-2.2-0.2-4.5-0.8-6.7-1.3c-5.2-1.3-10.3-2.6-15.7-1.5c-3.3,0.7-3.9,5.9-0.9,7.6c8.5,4.5,17.7,6.8,27.3,6.9
			c2.8,0,5-3.6,3.4-6.3c-3-4.8-8.2-7.3-13.6-7.4c-6-0.2-11.6,2.8-16.8,5.8c-1.7,1-2.4,3.3-1.6,5.1c0.8,2,2.7,2.8,4.5,2.3
			c2.8-0.5,5.2-2.1,7.5-3.6c2.4-1.6,4.7-3.3,7.2-4.6c2.4-1.3,4.7-2.3,7.2-3.3c1.3-0.5,2.7-1,3.9-1.3c1.1-0.3,2.8-1,3.6-1
			c-0.6-0.2-1.3-0.3-2-0.5c0.2,0,0.2,0.2,0.3,0.2c-0.6-0.8-1.3-1.6-1.7-2.5v0.2c0.2-1,0.3-2.1,0.5-3.1l-0.2,0.2
			c1.1-0.7,2.2-1.3,3.4-2h-0.2c-2-0.3-3.9,2.1-3.9,4.1c0,2.5,1.9,3.8,3.9,4.1h0.2c1.4,0.2,2.7-1,3.4-2c1.4-2,0.5-4.9-1.4-6.1
			c-1.9-1.2-4.1-0.3-6.1,0.2c-3.4,1-6.9,2.1-10.2,3.6c-3.1,1.3-6.1,3-8.9,4.9c-2.7,1.8-5.3,4.3-8.5,4.9c0.9,2.5,2,4.9,3,7.6
			c3.6-2,7.7-4.5,11.9-4.6c3-0.2,6.3,0.7,7.8,3.3c1.1-2.1,2.2-4.1,3.4-6.3c-8-0.2-16-2-23.2-5.8c-0.3,2.5-0.6,4.9-0.9,7.6
			c5.5-1.2,11.3,1.8,16.6,2.6c3.1,0.5,6.9,1.2,9.4-1.3c2.7-2.6,2-6.4,0.6-9.6c-1.6-3.1-4.5-4.9-7.8-3.8c-2.8,0.8-5.5,2.8-8,4.3
			c-4.4,2.6-9.1,5.6-14.3,5.6C69.8,132.6,69.8,140.9,74.8,140.9L74.8,140.9z"/>
	</g>
</g>
<g>
	<g>
		<path class="st4" d="M75.8,127.7c-0.9,6.7-5.4,12.6-8.8,18.2c-4.3,7.1-7.3,14.7-8.1,23c-0.2,1.9,1.6,3.6,3.1,4.2
			c1.9,0.5,3.8-0.3,4.8-1.9C74,160.5,82,150.8,91,141.8c-2.4-1.4-4.8-2.8-7.3-4.2c-1.4,4.8-3.3,9.5-5.5,14c-1.2,2.2-2.4,4.3-3.8,6.6
			c-0.7,1-1.4,2.1-2.1,3.1c-0.3,0.5-0.7,1-1,1.6c-0.5,0.9-0.7,0.2,0,0c0.7,0,1.6,0,2.3,0c0.9,0.2,0.5,2.1,0.7,0.2
			c0-0.7,0.2-1.6,0.3-2.2c0.3-1.7,0.7-3.5,1.2-5.2c0.9-3.3,1.9-6.4,3.1-9.7c2.4-6.2,5.7-12.3,9.5-17.8c-2.6-1-5.2-2.2-8-3.3
			c-1.9,7.4-6.1,13.8-10,20.2c-2.3,3.5,2.3,8.5,5.9,5.9c9.3-6.4,17.8-14,25.1-22.7c-2.1-2.1-4.2-4.2-6.1-6.1
			C87,132.8,79.2,143.7,71.9,155c2.4,1.4,5,2.9,7.4,4.3c4-8,9.3-14.9,16.1-20.6c-2.3-1.7-4.5-3.5-6.8-5.2
			c-2.9,5.9-6.4,11.6-10.2,16.8c-2.9,4,3.6,9,6.8,5.2c5-5.7,10-11.6,15.2-17.3c-2.4-1.4-4.8-2.8-7.3-4.2
			c-1.9,8.8-7.1,16.3-12.3,23.5c2.4,1.4,5,2.9,7.4,4.3c4-8.6,8.7-17,14.4-24.9c-2.6-1-5.2-2.2-8-3.3c-2.6,6.2-5.5,12.3-9,18
			c-3.3,5.5-7.6,10.7-8.8,17.1c-0.3,1.9,0.2,3.8,1.9,4.8c1.6,0.9,4.2,0.9,5.2-0.7c9.5-11.9,19-23.9,28.4-35.8
			c-2.3-1.7-4.5-3.5-6.8-5.2c-4.5,9.5-9.7,18.7-15.9,27.2c2.4,1.4,5,2.9,7.4,4.3c2.8-4,5.9-8,9-11.8c-2.3-1.7-4.5-3.5-6.8-5.2
			c-3.3,5.5-6.8,10.9-10.6,16.1c2.4,1.4,5,2.9,7.4,4.3c4-5.5,8.3-10.7,12.8-15.6c-2.1-2.1-4.2-4.2-6.1-6.1
			c-4.7,5.7-8.3,12.1-10.7,19c-1.6,4.3,4.3,6.9,7.3,4.2c0.3-0.3,0.5-0.3,0.9-0.7c1.9-1.4-0.2,1,0.2-0.3l-0.2-0.3
			c-1-1.9,1.6-1.2,1.6-1.9c0,0.2-2.9-1.4-2.9-1.6c-1.2-0.7-2.4-1.6-3.6-2.2c-5.2-2.8-13.3-4.2-16.6,2.1c-3.3,6.2,4.3,14.2,10.2,9
			c2.3-1.9,3.1-4.8,2.6-7.8c-0.5-2.9-2.8-5-4.2-7.6c-2.8-4.8-10.2-0.5-7.4,4.3c0.7,1.2,1.6,2.2,2.3,3.3c0.3,0.3,0.5,0.9,0.7,1.2
			s0.3,0.5,0.2,0.3c-0.2-0.2,2.9-1.2,3.5,0.2c0,0.2-0.2,1.6-0.3,1.4c0,0,0.5-0.2,0.7-0.2c0.9,0.2,1.9,0.2,2.8,0.5
			c1.2,0.5,2.3,1.2,3.3,1.7c2.3,1.4,4.3,2.9,6.9,3.5c6.2,1.4,11.4-4.2,8.5-10.2c-2.9-6.1-10.4-5.2-14.7-1.2c2.4,1.4,4.8,2.8,7.3,4.2
			c1.9-5.5,4.8-10.7,8.5-15.2c1.4-1.9,1.7-4.3,0-6.1c-1.6-1.6-4.5-1.7-6.1,0c-5.2,5.5-9.9,11.2-14.2,17.3c-1.4,1.9-0.3,4.8,1.6,5.9
			c2.3,1.2,4.5,0.3,5.9-1.6c3.8-5.2,7.3-10.6,10.6-16.1c2.4-4.2-3.6-9.2-6.8-5.2c-3.6,4.3-7.1,8.8-10.4,13.5
			c-1.4,1.9-0.3,4.8,1.6,5.9c2.3,1.2,4.5,0.3,5.9-1.6c6.1-8.5,11.4-17.6,15.9-27.2c0.9-1.9,0.7-4.2-1-5.5c-1.6-1.2-4.3-1.4-5.7,0.3
			c-9.5,11.9-19,23.9-28.4,35.8c2.4,1.4,4.8,2.8,7.3,4.2c1-6.1,5.7-11.2,8.7-16.4c3.5-6.1,6.4-12.3,9-18.7c0.9-1.9-0.7-4.3-2.4-5
			c-2.1-0.9-4.2,0-5.4,1.7c-5.5,7.8-10.4,16.1-14.4,24.9c-2.3,5,4.3,9,7.4,4.3c5.5-8,10.9-16.1,13.2-25.6c0.9-4-4.2-7.6-7.3-4.2
			c-5,5.7-10,11.6-15.2,17.3c2.3,1.7,4.5,3.5,6.8,5.2c4-5.4,7.4-10.9,10.2-16.8c2.3-4.5-2.9-8.5-6.8-5.2
			c-7.3,6.2-13.2,13.8-17.5,22.3c-2.4,5,4.5,9,7.4,4.3c6.9-10.7,14.2-20.9,22-31c1.4-1.9,1.7-4.3,0-6.1c-1.6-1.6-4.7-1.7-6.1,0
			c-6.8,8.1-14.5,15.2-23.4,21.3c1.9,1.9,4,4,5.9,5.9c4.5-6.9,8.8-14.2,10.9-22.3c1.2-4.8-5.2-7.3-8-3.3c-4.3,6.2-7.8,13-10.6,20.2
			c-1.4,3.5-2.4,7.1-3.3,10.7c-0.9,3.5-2.3,8.1-1,11.6c1.4,4.3,6.8,6.4,10.4,3.3c2.6-2.2,4.7-5.9,6.4-8.8c4-6.6,6.9-13.7,9.2-20.9
			c1.2-4.2-4.2-7.3-7.3-4.2c-9.3,9.5-18,20.1-25.6,31c2.8,0.7,5.4,1.4,8.1,2.2c0.9-7.8,4.3-14.4,8.5-20.9c4-6.4,7.6-12.6,8.7-20.2
			c0.3-2.2-2.3-4.3-4.3-4.3C77.7,123.3,76.1,125.4,75.8,127.7L75.8,127.7z"/>
	</g>
</g>
<g>
	<g>
		<path class="st4" d="M59.7,187.9c2.5,2.6,5.2,5.4,7.7,8.1c0.8,0.8,1.7,1.2,2.8,1.2c0.9,0,2-0.5,2.8-1.2c0.6-0.8,1.3-1.8,1.1-3
			c0-1.2-0.5-2.1-1.1-3c-2.5-2.6-5.2-5.4-7.7-8.1c-0.8-0.8-1.7-1.2-2.8-1.2c-0.9,0-2,0.5-2.8,1.2c-0.6,0.8-1.3,1.8-1.1,3
			C58.6,186,58.9,187,59.7,187.9L59.7,187.9z"/>
	</g>
</g>
<g>
	<g>
		<path class="st4" d="M49.8,189.5c3.8,3,7.7,5.6,11.8,7.9c2.7,1.6,5.8-0.5,6-3.6c0.2-2.6-1.7-4.6-3.8-5.8c-1.7-1-3.4-2-5.2-2.8
			c-0.9-0.5-2-1-3.1-1.3c-0.9-0.3-1.9-0.3-2.8-0.7c-0.2,0-0.9-0.5-0.3-0.2c-0.5-0.2-0.8-0.5-1.3-0.8c-0.9-0.5,0.5,0.5-0.3-0.3
			c-0.3-0.3-0.6-0.7-0.9-1c-1.3,2.3-2.5,4.6-3.8,6.9c7.5,1.2,15,2.3,22.6,3.3c2,0.3,4.2-0.5,4.9-2.8c0.5-2-0.6-4.8-2.7-5.1
			c-7.5-1.2-15-2.3-22.6-3.3c-1.7-0.3-3.6,0.2-4.4,1.8c-0.8,1.6-0.6,3.6,0.6,4.9c1.1,1.3,2.4,2.5,3.9,3.1c1.7,1,3.3,1.3,5.2,1.8
			c1.6,0.3,2.4,1,4.1,2c0.8,0.5,1.6,0.8,2.4,1.3c0.3,0.2,0.6,0.3,0.9,0.5c0.3,0.2,0.2,0.2-0.2-0.2c-0.3-0.5-0.6-1-0.6-1.6
			c2-1.2,3.9-2.3,6-3.6c-4.1-2.5-8-5.1-11.8-7.9c-1.7-1.3-4.4-0.3-5.3,1.5C47.3,185.9,48.1,188,49.8,189.5L49.8,189.5z"/>
	</g>
</g>
<g>
	<g>
		<path class="st4" d="M67.1,188.3c8.8,1,17.7,1.8,26.5,2.5s17.7,1.6,26.5,1.8c4.4,0,8.6-0.3,12.9-0.8c4.2-0.5,7.8-0.2,11.9,1
			c8.3,2.1,16.9,3.3,25.4,3.1c2.5,0,5-0.3,7.5-0.5c2.2-0.3,4.7-0.3,6.4-2.1c4.4-4.9-2.4-10.1-6.1-11.5c-2-0.8-4.2,0.8-4.9,2.8
			c-0.6,2.3,0.8,4.3,2.7,5.1c0.5,0.2,0.9,0.5,1.3,0.7c0.2,0.2,0.3,0.3,0.5,0.5c0.5,0.5,0.6,0.5,0.2,0.2c0-0.7,0-1.5,0-2.1
			c0,0.2-0.2,0.3-0.2,0.5c0.3-0.7,0.6-1.2,0.9-1.8c-0.2,0.2-0.3,0.2-0.3,0.3c0.6-0.3,1.1-0.7,1.7-1c-1.4,0.5-3,0.5-4.4,0.7
			c-2,0.2-3.9,0.3-6,0.3c-3.6,0-7.2-0.2-10.8-0.5c-3.4-0.3-6.9-1.2-10.3-2c-3.6-1-7.1-2-10.8-2c-3.6,0-7.4,0.8-11,1
			c-3.8,0.3-7.4,0.2-11.1,0c-7.5-0.5-15.2-1-22.7-1.6c-8.6-0.7-17.2-1.5-25.7-2.5c-2-0.3-3.9,2.1-3.9,4.1
			C63.2,186.5,64.9,188,67.1,188.3L67.1,188.3z"/>
	</g>
</g>
<g>
	<g>
		<path class="st4" d="M144,191.3c6.6,2.3,14.3,3.5,21.2,2.1c3.1-0.5,6-2.1,8.9-2.6c3.6-0.5,7.1-0.2,10.5-1.5c2-0.8,3.3-2.8,2.7-5.1
			c-0.5-2-2.8-3.6-4.9-2.8c-3,1.2-6,0.8-9.1,1.3c-3.1,0.3-6,1.8-8.9,2.5c-5.8,1.5-12.9,0.2-18.3-1.8
			C141.4,181.6,139.3,189.7,144,191.3L144,191.3z"/>
	</g>
</g>
<g>
	<g>
		<path class="st4" d="M154.5,189.2c9.2,1.2,18.5,0.7,27.6-1.3c2-0.5,3.3-3,2.7-5.1c-0.6-2.3-2.7-3.3-4.9-2.8
			c-8.3,1.8-16.9,2-25.5,1c-2-0.3-3.9,2.1-3.9,4.1C150.6,187.4,152.5,188.8,154.5,189.2L154.5,189.2z"/>
	</g>
</g>
<g>
	<g>
		<path class="st4" d="M72.1,202.7c2.2,2.6,5.3,4.6,8.5,5.4c0.3-2.6,0.6-5.4,1.1-8.1c0.8,0,0,0-0.3-0.2c0.6,0.3,0-0.2-0.2-0.3
			c-0.6,2.6-1.3,5.1-2,7.8c6,0.8,12.2,0,17.9-2.5c1.6-0.7,3-2,2.8-4c0-1.6-1.1-3.6-2.8-4c-4.7-0.8-9.4-0.8-14.1,0
			c-2,0.3-3.3,3.1-2.7,5.1c0.8,2.3,2.7,3.3,4.9,2.8c0.2,0,1.6-0.2,0.9-0.2c0.5,0,0.8-0.2,1.3-0.2c0.9,0,1.9-0.2,2.8-0.2
			c0.9,0,1.9,0,2.8,0.2c0.5,0,0.8,0,1.3,0.2c0.5,0,0.5,0,0.2,0c0.3,0,0.5,0.2,0.8,0.2c0-2.6,0-5.3,0-7.9c-1.3,0.5-2.7,1-3.9,1.5
			c-0.6,0.2-1.4,0.3-2,0.5c-0.3,0-0.6,0.2-0.9,0.2c0,0-1.3,0.2-0.5,0.2c-2.8,0.3-5.6,0.3-8.3,0c-1.6-0.2-3.4,1.5-3.8,3
			c-0.5,2,0.3,3.5,1.7,4.6c1.3,1,2.8,1.5,4.4,1.5c1.9,0.2,3.6-1.6,3.9-3.6c0.3-2-0.9-4-2.8-4.5c-0.6-0.2-1.3-0.3-1.7-0.5
			c-0.5-0.2,0.5,0.3-0.2-0.2c-0.3-0.2-0.6-0.3-0.9-0.5c-0.3-0.2-0.5-0.3-0.6-0.5c-0.3-0.2,0.5,0.3-0.2-0.2c-0.5-0.5-0.9-1-1.4-1.5
			c-1.4-1.6-4.2-1.6-5.5,0C70.5,198.6,70.5,200.9,72.1,202.7L72.1,202.7z"/>
	</g>
</g>
<g>
	<g>
		<path class="st4" d="M77.9,209.6c4.2,0.5,8.5,0.7,12.7-0.2c1.9-0.3,3.8-1.2,5.5-1.8c0.9-0.3,1.9-0.7,2.8-0.8c-0.6,0.2,0.5,0,0.6,0
			c0.5,0,0.5,0,0.2,0c0.3,0,0.5,0.2,0.8,0.2c0.6-2.6,1.4-5.3,2-7.9c-4.5-0.7-9.1-1-13.8-0.5c-2.4,0.2-4.7,2.5-3.8,5.3
			c1.1,3.5,5,4.8,8,5.6c2.8,0.8,5.8,1.2,8.8,1c2-0.2,4.1-1.8,3.9-4.1c-0.2-2.1-1.7-4.3-3.9-4.1c-2.2,0.2-3.9,0-5.6-0.5
			c-0.9-0.2-1.9-0.5-2.8-1c-0.5-0.2-0.5-0.2-0.3-0.2c-0.3-0.2-0.5-0.3-0.8-0.3c-0.3-0.2-0.5-0.3-0.8-0.3c-0.3-0.2-0.3-0.2,0.2,0.2
			c0.3,0.7,0.6,1.2,0.9,1.8c0-0.2,0-0.2-0.2-0.3c-1.3,1.8-2.5,3.5-3.8,5.3c2-0.2,4.1-0.3,6.1-0.3c1.9,0,4.1,0.2,5.5,0.5
			c2,0.3,4.4-0.5,4.9-2.8c0.5-2.1-0.6-4.5-2.7-5.1c-4.5-1.5-8.5,1-12.7,2.1c-0.5,0.2-0.9,0.2-1.6,0.3c0.5-0.2-0.8,0.2-0.9,0.2
			c-0.9,0.2-2,0.2-3.1,0.2c-2.2,0-4.2-0.2-6.4-0.5c-2-0.2-4.1,2-3.9,4.1C74.1,208,75.7,209.5,77.9,209.6L77.9,209.6z"/>
	</g>
</g>
<g>
	<g>
		<path class="st4" d="M103.3,208.3c7.7,2.6,16.5,1.6,24.3,1.6c8.6,0,17.2,0.2,25.7,0.2c5,0,5-8.2,0-8.2c-8.3,0-16.6-0.2-24.9-0.2
			c-4.1,0-8.3,0-12.4-0.2c-3.6,0-7.2-0.2-10.7-1.3C100.5,198.7,98.4,206.7,103.3,208.3L103.3,208.3z"/>
	</g>
</g>
<g>
	<g>
		<path class="st4" d="M69.9,198.9c9.9,3.1,20.2,4.3,30.4,3.3c3.9-0.3,5.3-5.3,2-7.8c-3.8-2.8-8.5-3.3-13-3.5
			c-3.4-0.2-8,0.2-10.8-2.1c-1.3,2.3-2.5,4.6-3.8,6.9c3.6,1,7.2,1.8,11,2.8c3.9,1,6.4-3.8,3.8-6.9c-1.7-2-3.6-3.6-5.8-4.8
			c-0.9,2.5-2,4.9-3,7.6c5,1.2,9.4,4.3,14.6,4.1c5-0.2,9.9-2.6,14.9-2.3c4.4,0.3,5.3-7.1,1.1-8.1c-3.4-0.8-7.1-1.5-10.7-1.8
			c-1.7-0.2-3.4-0.3-5.2-0.5c-1.7-0.2-3.6-0.3-5.2,0.5c-3.4,1.8-3.6,6.6-0.9,9.2c2.4,2.3,6.4,3.1,9.4,4.1c6.4,2,13.3,3.1,20.1,3.1
			c3,0,7.4,0.7,9.9-1.8c3.1-3,1.1-7.8-2.5-8.9c-1.9-0.7-4.1-0.7-6.1-1c-2-0.3-4.1-0.5-6.1-0.7c-4.1-0.3-8.2-0.3-12.2-0.2
			c-2.7,0.2-4.2,2.5-3.8,5.3c0.9,4.9,6.9,5.9,10.8,6.8c4.7,1,9.6,1.6,14.4,1.8c2.4,0,4.7-0.3,5.8-2.8c1.3-2.6,0-5.4-1.7-7.6
			c-3.3-4-8.5-4.6-13.2-4.8c-3.4-0.2-5,4.6-2.8,7.1c4.2,4.5,11,4,16.5,4.5c3.1,0.3,6.4,0.5,9.6,0.8c2.8,0.3,6.4,1.2,8.6-1.5
			c1.3-1.6,1.7-4.3,0-5.8c-3.4-3.1-7.4-4.8-11.9-5.3c-1.6-0.2-3.4,1.3-3.8,3c-0.6,3.5,0.5,6.9,3.6,8.9c1.4,1,3.4,1.5,5.2,0.8
			c1.9-0.8,3-2.8,3-4.8c0-4.3-3.8-5.8-7.1-6.8c-3.4-1-6.9-1.8-10.5-2.3c-1.9-0.3-3.8-0.7-5.5,0.2c-1.9,0.8-3,2.6-3.1,4.8
			c-0.2,3.5,2,6.3,3.9,8.7c4.1,5.1,10.2,8.7,16.6,7.9c3.9-0.5,8.5-3,8-7.8c-0.5-4.1-4.4-5.6-7.8-5.4c-2.8,0.2-5,3.3-3.4,6.3
			c3.3,5.4,12.4,10.7,17.7,5.3c2.7-2.8,2.7-7.1,0.8-10.2s-5.2-4.5-8.5-5.6c-2.2-0.7-5.2,1.3-5,4c0.6,6.3,5.6,9.1,11.1,9.6
			c2.8,0.3,6-0.2,6.9-3.5c0.8-3-0.3-5.9-2.4-8.1c-1.6-1.6-3.9-1.5-5.5,0c0,0-0.2,0-0.2,0.2c-1.3,1.3-1.4,3.5-0.6,4.9
			c0.9,1.8,3.1,3,5,2.1c1.7-0.7,2.8-2,2.8-4c0.2-4.9-6.4-8.2-10.2-9.7c-1.6-0.7-3.6,0.3-4.4,1.8c-0.9,1.6-0.5,3.6,0.6,4.9
			c4.5,5.8,11.6,8.1,18.5,6.9c2-0.3,3.3-3.1,2.7-5.1c-0.6-2.3-2.7-3.1-4.9-2.8c-4.2,0.7-8.2-1.6-10.8-4.9c-1.3,2.3-2.5,4.6-3.8,6.9
			c1.6,0.7,3.9,1.8,5,3.3c-0.2-0.7-0.3-1.3-0.5-2.1c0,0.2,0,0.3,0,0.5c0.9-1.3,1.9-2.6,2.8-4c0,0-0.2,0-0.2,0.2c0.9,0.2,2,0.3,3,0.5
			l-0.2-0.2c0.5,0.5,0.9,1,1.4,1.5c0,0,0-0.2-0.2-0.2c-0.2,1.6-0.5,3.3-0.6,4.9c0,0,0.2,0,0.2-0.2c-1.9,0-3.8,0-5.5,0
			c0.3,0.3,0.3-0.3,0.5-0.5c0.8-0.7,1.6-1.3,2.4-1.8c-0.5,0.2-2.7-0.2-3.6-0.5c-0.3-0.2-1.4-0.7-1.4-1c-1.7,1.3-3.3,2.6-5,4
			c1.1,0.3,2.8,0.7,3.6,1.6c0.2,0.2,0.3,0.5,0.3,0.7c0.2,0.2,0.3-0.3,0.2-0.3c-1.7-0.8-4.2-1.6-5.3-3.6c-1.1,2.1-2.2,4.1-3.4,6.3
			c0.2,0,0.9,0,1.1,0c0.8-0.3-0.2,0.2,0,0c-0.2-1.2-0.3-2.3-0.5-3.6c0,0.2-0.2,0.2-0.3,0.2c-0.3,0-0.8,0.2-1.1,0.3
			c-1.7,0.3-3.8-0.2-5.3-1c-1.7-0.8-3.1-2.1-4.4-3.6c-0.6-0.7-1.3-1.5-1.7-2.3c0-0.2-0.8-1.3-0.8-1.3c0.3-0.2-2,3.6-0.2,1
			c-0.5,0.5-0.9,1-1.4,1.5c-0.6,0.5,0.8,0.3,1.1,0.3c0.5,0,0.9,0.2,1.4,0.2c1.3,0.2,2.7,0.5,3.9,0.8c1.3,0.3,2.4,0.7,3.6,1
			c0.6,0.2,1.4,0.5,2,0.7c0.8,0.3,0.6,0.5,0.5,0c-0.2-0.7-0.3-1.3-0.5-2.1c0.2-0.3,0.2-0.5,0.3-0.8c0.5-0.5,0.9-1,1.4-1.5
			c-0.2,0-0.2,0.2-0.3,0.2c0.9-0.2,2-0.3,3-0.5c-0.2,0-0.5-0.2-0.6,0.2c-1.3,1-2.5,2-3.8,3c2.4,0.3,4.5,1.3,6.4,2.8c0-2,0-4,0-5.8
			c1.3-0.3,1.6-0.5,0.9-0.5c-0.2,0-0.5,0-0.6,0c-0.6,0-1.3-0.2-1.9-0.2c-1.3-0.2-2.5-0.2-3.8-0.3c-2.4-0.2-4.9-0.5-7.2-0.7
			c-2.4-0.2-4.7-0.3-7.1-0.7c-1.4-0.2-2.8-0.3-3.9-1.5c-0.9,2.3-1.9,4.6-2.8,7.1c1.7,0.2,3.8,0.2,5.3,0.8c0.5,0.2,0.9,0.5,1.4,0.8
			c0.5,0.3,0.8,1.5,0.8,0.5c0.2-0.7,0.3-1.3,0.5-2.1c0,0.2-0.2,0.3-0.2,0.5c0.5-0.5,0.9-1,1.4-1.5c1.1-0.2,1.1-0.3,0.2-0.2
			c-0.5,0-0.9,0-1.4,0c-0.9,0-1.9-0.2-3-0.2c-1.9-0.2-3.6-0.3-5.5-0.7s-3.8-0.8-5.8-1.3c-0.8-0.2-1.7-0.7-2.5-0.7
			c-0.9,0,0-0.3,0.2,0.3c-1.3,1.8-2.5,3.5-3.8,5.3c3.9-0.2,7.8-0.2,11.8,0.2c1.9,0.2,3.8,0.3,5.6,0.5c0.9,0.2,1.9,0.3,2.7,0.3
			c0.5,0,0.9,0.2,1.6,0.3c0.6,0.2,0.6,0.2-0.2-0.2c-0.3-0.7-0.6-1.2-0.9-1.8c0,0.2,0,0.3,0,0.5c0-0.7,0-1.5,0-2.1
			c0,0.2-0.2,0.3-0.2,0.5c0.3-0.7,0.6-1.2,0.9-1.8c1.3-0.5,1.6-0.7,0.8-0.5c-0.3,0-0.8,0-1.1,0c-0.8,0-1.4,0-2.2,0
			c-1.3,0-2.7,0-3.9,0c-2.7-0.2-5.3-0.3-7.8-0.8c-2.7-0.5-5.2-1-7.7-1.8c-1.4-0.3-2.8-0.8-4.1-1.3c-0.6-0.2-1.4-0.5-2-0.8
			c-1.7-0.8,0.5,0,0,1.6c-0.3,0.7-0.6,1.2-0.9,1.8c-1.3,0.3-1.4,0.7-0.6,0.5c0.3,0,0.8,0,1.1,0c0.8,0,1.6,0,2.2,0.2
			c1.4,0.2,2.8,0.2,4.1,0.3c2.8,0.3,5.5,0.8,8.2,1.5c0.3-2.6,0.6-5.4,1.1-8.1c-5-0.3-9.4,2-14.3,2.3c-4.7,0.3-8.8-2.6-13.2-3.8
			c-4.2-1-7.1,5.3-3,7.6c1.7,1,3,2.1,4.2,3.6c1.3-2.3,2.5-4.6,3.8-6.9c-3.6-1-7.2-1.8-11-2.8c-1.7-0.5-3.6,0.3-4.4,1.8
			c-0.8,1.5-0.8,4,0.6,4.9c4.1,3.3,8.5,4.1,13.5,4.5c4.1,0.2,8.3,0,11.9,2.5c0.6-2.6,1.3-5.1,2-7.8c-9.6,1-19.1,0-28.4-3
			C67.2,189.3,65.2,197.4,69.9,198.9L69.9,198.9z"/>
	</g>
</g>
<path class="st6" d="M214.4,223.3h-20.2c-3.8,0-6.9-3.3-6.9-7.3v-9.4c0-4,3.1-7.3,6.9-7.3h20.2c3.8,0,6.9,3.3,6.9,7.3v9.4
	C221.3,220,218.2,223.3,214.4,223.3z"/>
<path class="st6" d="M33.9,223.3H13.7c-3.8,0-6.9-3.3-6.9-7.3v-9.4c0-4,3.1-7.3,6.9-7.3h20.2c3.8,0,6.9,3.3,6.9,7.3v9.4
	C40.8,220,37.7,223.3,33.9,223.3z"/>
<polyline class="st6" points="9.1,157.8 9.1,199.2 15.2,206.7 53.9,214.6 81.7,202.4 "/>
<polyline class="st6" points="218.7,157.8 218.7,199.2 212.5,206.7 173.7,214.6 146.1,202.4 "/>
<line class="st7" x1="65.5" y1="209.5" x2="162.2" y2="209.5"/>
<path class="st6" d="M198.6,129.1H29.2v-1.5c0-22.3,17.2-40.4,38.4-40.4h92.6c21.2,0,38.4,18.1,38.4,40.4L198.6,129.1L198.6,129.1z"
	/>
<g>
	<polygon class="st6" points="27,128.8 15.4,134.9 9.1,144.8 9.1,157.8 25.9,175.5 73,183.1 154.7,183.1 201.9,175.3 218.7,157.8 
		218.7,144.8 212.4,134.9 200.8,128.8 172.7,158.3 143.9,167.2 128.8,167.2 120.5,163.3 107.2,163.3 98.9,167.2 83.9,167.2 
		55,158.3 	"/>
	<polygon class="st6" points="22.6,138.5 44.1,162.6 32.8,167.7 18.2,153.7 	"/>
	<polygon class="st6" points="204.9,139.2 182,161.8 192.8,167.7 208.3,154.7 	"/>
</g>
<polyline class="st7" points="25.9,175.5 15.5,195.3 15.2,206.7 "/>
<polyline class="st7" points="201.9,175.3 212.2,195.3 212.5,206.7 "/>
<g>
	<line class="st5" x1="23.8" y1="121.4" x2="28.9" y2="130.5"/>
	<polygon class="st8" points="7.9,115.4 2.8,125.6 22.9,125.6 27.6,115.4 	"/>
</g>
<g>
	<line class="st5" x1="199.3" y1="130.2" x2="204.4" y2="121"/>
	<polygon class="st8" points="200.6,115.1 205.3,125.3 225.4,125.3 220.2,115.1 	"/>
</g>
<circle class="st9" cx="168.5" cy="35.2" r="7.6"/>
<circle class="st9" cx="125.4" cy="61" r="2.5"/>
<circle class="st9" cx="199.3" cy="78.3" r="2.5"/>
<circle class="st9" cx="197.6" cy="12.8" r="4.3"/>
</svg>
