<?xml version="1.0" encoding="utf-8"?>
<!-- Generator: Adobe Illustrator 24.3.0, SVG Export Plug-In . SVG Version: 6.00 Build 0)  -->
<svg version="1.1" xmlns="http://www.w3.org/2000/svg"  height="140pt" width="140pt" xmlns:xlink="http://www.w3.org/1999/xlink" x="0px" y="0px"
	 viewBox="0 0 226.8 226.8" style="enable-background:new 0 0 226.8 226.8;" xml:space="preserve">
<style type="text/css">
	.st0{fill:#323232;}
	.st1{fill:#323232;stroke:#D3D3D3;stroke-width:2;stroke-miterlimit:10;}
	.st2{fill:#323232;stroke:#D3D3D3;stroke-width:2;stroke-linecap:round;stroke-miterlimit:10;}
</style>
<g id="Слой_1">
</g>
<g id="Слой_2">
	<rect x="-0.8" class="st0" width="228.2" height="228.2"/>
	<path class="st1" d="M168.2,62.4h-23.5V41.2c0-1.3,1-2.3,2.3-2.3h18.9c1.3,0,2.3,1,2.3,2.3V62.4z"/>
	<path class="st1" d="M185,210.2h-57V75.5c0-7.8,6.3-14.2,14.2-14.2h28.7c7.8,0,14.2,6.3,14.2,14.2V210.2z"/>
	<line class="st1" x1="137.9" y1="172.3" x2="137.9" y2="211.6"/>
	<line class="st1" x1="144.7" y1="47.9" x2="168.2" y2="47.9"/>
	<line class="st1" x1="128" y1="112.4" x2="185" y2="112.4"/>
	<line class="st1" x1="128" y1="143.1" x2="185" y2="143.1"/>
	<line class="st1" x1="156.5" y1="172.3" x2="156.5" y2="211.6"/>
	<line class="st1" x1="175.1" y1="172.3" x2="175.1" y2="211.6"/>
	<path class="st1" d="M169.2,77.5h-25.4c-3.3,0-5.9,2.7-5.9,5.9v7.7h37.3v-7.7C175.1,80.1,172.5,77.5,169.2,77.5z"/>
	<g>
		<path class="st1" d="M115,55.5H51.3V31.1H115c2.6,0,4.6,2.1,4.6,4.6v15.2C119.6,53.4,117.5,55.5,115,55.5z"/>
		<path class="st1" d="M48.1,52.1H33.7V34.5h14.4c1.8,0,3.3,1.5,3.3,3.3v11.1C51.3,50.7,49.9,52.1,48.1,52.1z"/>
		<path class="st1" d="M56.5,82.8h-5.2V55.5h11V77C62.3,80.2,59.7,82.8,56.5,82.8z"/>
		<rect x="76.1" y="55.5" class="st1" width="30.8" height="11.7"/>
		<rect x="69.3" y="66.5" class="st1" width="44" height="24.7"/>
		<g>
			<path class="st1" d="M116.1,210.2H45.3v-91.9c0-17.7,14.4-32.1,32.1-32.1h33.2c3,0,5.5,2.5,5.5,5.5V210.2z"/>
		</g>
		<g>
			<path class="st1" d="M105.4,197.2H56.8v-65.1c0-12.2,9.9-22,22-22h22.8c2.1,0,3.8,1.7,3.8,3.8V197.2z"/>
		</g>
	</g>
	<g>
		<g>
			<rect x="83.3" y="195.6" class="st1" width="104.4" height="26.6"/>
			<g>
				<line class="st2" x1="99.1" y1="220.2" x2="99.1" y2="211.3"/>
				<line class="st2" x1="111.2" y1="220.2" x2="111.2" y2="211.3"/>
				<line class="st2" x1="123.2" y1="220.2" x2="123.2" y2="211.3"/>
				<line class="st2" x1="135.3" y1="220.2" x2="135.3" y2="211.3"/>
				<line class="st2" x1="147.4" y1="220.2" x2="147.4" y2="211.3"/>
				<line class="st2" x1="159.4" y1="220.2" x2="159.4" y2="211.3"/>
				<line class="st2" x1="171.5" y1="220.2" x2="171.5" y2="211.3"/>
			</g>
		</g>
		<path class="st1" d="M187.8,197.3H82.7c-3.7,0-6.6-3-6.6-6.6V179c0-3.7,3-6.6,6.6-6.6h105.1c3.7,0,6.6,3,6.6,6.6v11.7
			C194.5,194.4,191.5,197.3,187.8,197.3z"/>
	</g>
</g>
</svg>
