<?xml version="1.0" encoding="utf-8"?>
<!-- Generator: Adobe Illustrator 24.3.0, SVG Export Plug-In . SVG Version: 6.00 Build 0)  -->
<svg version="1.1" id="Слой_1" height="140pt" width="140pt" xmlns="http://www.w3.org/2000/svg" xmlns:xlink="http://www.w3.org/1999/xlink" x="0px" y="0px"
	 viewBox="0 0 226.8 226.8" style="enable-background:new 0 0 226.8 226.8;" xml:space="preserve">
<style type="text/css">
	.st0{fill:#313131;}
	.st1{fill:#323232;}
	.st2{fill:#D3D3D3;}
	.st3{fill:#323232;stroke:#D3D3D3;stroke-width:3;stroke-linecap:square;stroke-linejoin:round;stroke-miterlimit:10;}
	.st4{fill:#323232;stroke:#D3D3D3;stroke-width:2;stroke-linecap:square;stroke-linejoin:round;stroke-miterlimit:10;}
</style>
<rect x="-3.6" y="-3.4" class="st0" width="232.4" height="232.4"/>
<g id="Слой_1_1_">
</g>
<g id="Слой_3">
</g>
<g>
	<g>
		<g>
			<path class="st1" d="M46.7,169c1.5,1.4,2.6,3.2,3.6,5c2.4,4.3,5.2,8.5,8.2,12.4"/>
			<g>
				<path class="st2" d="M44.7,171.1c0.2,0.2,0.6,0.6,0.8,0.8c0.1,0.1,0.2,0.3,0.3,0.5c-0.2-0.2,0,0,0.1,0.1
					c0.5,0.7,0.9,1.4,1.3,2.1c0.9,1.5,1.7,3,2.7,4.5c1.9,3,3.9,5.9,6,8.8c0.9,1.2,2.6,2,3.9,1c1.2-0.8,2-2.7,1-3.9
					c-2.2-2.9-4.3-5.9-6.3-9.1c-1.9-3-3.4-6.5-6-8.9c-1.2-1-3-1.2-4.1,0C43.6,168,43.5,170,44.7,171.1L44.7,171.1z"/>
			</g>
		</g>
		<g>
			<path class="st1" d="M53.8,170.1c3.4,3.2,6.8,6.7,8.2,11.1c-3.4-5.6-10-8.9-16.4-8.7c-0.9,0-1.9,0.1-2.8,0.6
				c-0.8,0.3-1.5,1-2.2,1.7c-3,2.7-6.3,4.9-9.9,6.5c-0.5-1.9,1.7-3.2,2.8-4.9c0.3-0.5,0.6-1.2,1-1.5s0.9-0.6,1.5-0.7
				c1.9-0.5,3.6-1,5.5-1.5c-6.4,6.2-12.9,12.3-20.2,17.3c0-3.5,1.9-7,4.6-9.1c1.3,1.9-0.5,4.3-2,5.9c-5,5.5-9.4,12-10.2,19.3
				c4.5,1.9,9.4-1.3,14.3-2c2.9-0.5,5.9,0,8.7,0.6c8.6,1.5,17.4,3.5,26,1.7c3.2-0.7,6.3-1.7,9.5-2.1c2.1-0.2,4.2-0.1,6.2,0
				c6.4,0.3,12.8,0.6,19.1,0.9"/>
			<g>
				<path class="st2" d="M51.9,172.2c2.9,2.9,6.2,5.9,7.4,9.9c1.7-0.7,3.5-1.5,5.3-2.2c-3.6-5.8-9.7-9.4-16.6-10.1
					c-1.6-0.1-3.5-0.1-5,0.3c-2,0.6-3.4,1.9-4.8,3.1c-2.7,2.3-5.7,4.2-8.9,5.8c1.4,0.6,2.8,1.2,4.3,1.7c0.1,0.8-0.1,0.5,0.2,0.1
					c0.3-0.2,0.6-0.6,0.8-0.9c0.7-0.8,1.2-1.6,1.9-2.4c0.2-0.2-0.3-0.1,0.5-0.2c0.6-0.1,1-0.3,1.6-0.5c1.3-0.3,2.6-0.7,3.8-1
					c-0.9-1.6-1.9-3.2-2.8-4.9c-6.3,5.9-12.4,12-19.6,16.8c1.5,0.8,2.9,1.6,4.4,2.6c0.1-2.4,1.3-5,3.2-6.5c-1.3-0.3-2.7-0.7-3.9-1
					c0.5,0.8-2.3,3.2-2.8,3.8c-1.6,1.9-3.2,3.9-4.6,6c-2.8,4.2-4.6,8.8-5.2,13.9c-0.1,1.3,1,2.4,2.1,2.8c5.1,1.9,9.9-0.8,14.9-1.9
					c2.6-0.5,5.1-0.1,7.7,0.3c2.9,0.5,5.7,1,8.6,1.5c5.8,0.9,11.7,1.5,17.6,0.6c2.8-0.5,5.5-1.3,8.2-1.9c2.7-0.6,5.3-0.7,8-0.5
					c6.6,0.3,13.1,0.6,19.7,0.9c3.7,0.2,3.7-5.6,0-5.8c-5.7-0.2-11.5-0.6-17.2-0.8c-2.8-0.1-5.7-0.3-8.5,0c-2.9,0.3-5.7,1.2-8.5,1.9
					c-5.2,1.3-10.8,1-16.1,0.3c-5.6-0.8-11.4-2.6-17.1-2.6c-3,0-5.8,0.8-8.6,1.6c-2.4,0.7-4.9,1.5-7.3,0.6c0.7,0.9,1.4,1.9,2.1,2.8
					c0.6-4.9,3.1-9.5,6-13.3c2.8-3.7,8.6-8.1,5.7-13.3c-0.7-1.3-2.7-2-3.9-1c-3.7,2.8-6,6.8-6.2,11.5c-0.1,2.1,2.6,3.7,4.4,2.6
					c7.5-5.1,14.3-11.4,20.8-17.8c2.1-2-0.1-5.6-2.8-4.9c-3.4,0.9-7.4,1.3-9.4,4.4c-0.7,1.2-1.6,2-2.4,3c-1,1.4-1.3,2.9-1,4.6
					c0.2,2,2.8,2.4,4.3,1.7c2.8-1.3,5.5-2.9,7.9-4.9c1.2-0.9,2.2-2,3.5-2.9c1-0.8,2.4-0.7,3.6-0.7c5,0.2,9.7,3,12.4,7.2
					c1.7,2.7,6.4,1,5.3-2.2c-1.7-5-5.2-8.8-8.9-12.4C53.2,165.5,49.2,169.5,51.9,172.2L51.9,172.2z"/>
			</g>
		</g>
		<g>
			<path class="st1" d="M56.7,170.5c6.6,1.5,13.2,3.2,19.6,5.2c1.3,0.5,2.7,0.8,3.7,1.7c0.9,0.8,1.6,2,2.3,3
				c2.3,3.2,5.6,5.7,8.4,8.5c2.8,2.8,5.3,6.3,5.3,10.2"/>
			<g>
				<path class="st2" d="M55.9,173.3c4.5,1,8.9,2.1,13.5,3.4c2.2,0.6,4.5,1.3,6.7,2c1.7,0.6,2.6,1.4,3.6,2.9
					c2.3,3.4,5.5,5.9,8.4,8.7c2.4,2.3,5.1,5.2,5.2,8.9s5.9,3.7,5.8,0c-0.1-4.5-2.4-8.5-5.6-11.6c-3-3.1-6.6-5.7-9.1-9.3
					c-1.3-2-2.7-3.5-4.9-4.4c-2.3-1-4.9-1.6-7.3-2.3c-4.9-1.4-9.9-2.7-14.7-3.7C53.8,166.8,52.3,172.4,55.9,173.3L55.9,173.3z"/>
			</g>
		</g>
		<g>
			<path class="st1" d="M82.5,182.3c2,5.1,3.9,10.3,5.9,15.4c-3.9-5.5-7.8-10.9-11.7-16.5c-0.6,3.4-0.7,6.8-0.5,10.3
				c-1.4,0.9-3.1-0.6-4.1-1.9c-4.2-5.5-8.4-11-12.3-16.7c-0.7,6.3,0.2,12.6,2.6,18.5c-0.9-4.4-0.8-8.9,0.2-13.2
				c5.1,8.1,5.6,18.7,11.7,26c-1.4-6.6-2.3-13.3-2.7-20.2c-1.2-1.5-2.4-3-3.6-4.5c3.5,8.6,8.1,16.8,13.9,24.1
				c-3.1-2.8-1.5-8.8-4.9-11.4"/>
			<g>
				<path class="st2" d="M79.7,183.1c2,5.1,3.9,10.3,5.9,15.4c1.7-0.7,3.5-1.5,5.3-2.2c-3.9-5.5-7.8-10.9-11.7-16.5
					c-0.7-0.9-1.6-1.6-2.9-1.4c-1,0.1-2.2,0.9-2.4,2.1c-0.6,3.7-0.8,7.4-0.6,11.1c0.5-0.8,0.9-1.6,1.4-2.6c0.7,0,1,0,0.7-0.1h-0.1
					c0-0.2-0.7-0.6-0.8-0.8c-0.6-0.7-1.2-1.4-1.6-2.1c-1.2-1.5-2.3-3.1-3.6-4.8c-2.4-3.2-4.8-6.5-7.1-9.7c-1.7-2.4-5.1-1.5-5.5,1.5
					c-0.7,6.5,0.2,13.1,2.7,19.1c1.4,3.5,6.3,2.2,5.6-1.5c-0.7-3.9-0.6-7.9,0.2-11.7c-1.7,0.2-3.5,0.5-5.3,0.7
					c2.6,4.1,3.8,8.7,5.3,13.2c1.6,4.8,3.5,9.4,6.7,13.3c2,2.4,5.3-0.2,4.9-2.8c-0.9-4.4-1.6-8.9-2.1-13.5c-0.1-1.2-0.2-2.2-0.2-3.4
					c-0.1-1.2,0-2.6-0.3-3.7c-0.5-1-1.4-2-2.1-2.8c-0.7-0.9-1.4-1.7-2.1-2.7c-1.7-2.2-5.9,0.2-4.9,2.8c3.7,9.2,8.6,17.6,14.6,25.4
					c1.4-1.4,2.8-2.8,4.1-4.1c-0.6-0.6-0.8-0.9-1-1.9c-0.3-1-0.5-2.2-0.7-3.4c-0.5-2.3-1.3-4.6-3.1-6.2c-1.3-0.9-2.9-1.2-4.1,0
					c-1,1-1.3,3.1,0,4.1c0.7,0.6,1,1,1.3,1.7c0.3,1,0.5,2.2,0.7,3.2c0.5,2.3,1.2,4.6,3,6.4c1.2,1,3,1.2,4.1,0c1.3-1.3,0.9-2.9,0-4.1
					c-5.5-7-9.9-14.6-13.1-22.9c-1.6,0.9-3.2,1.9-4.9,2.8c1.2,1.5,2.4,3,3.6,4.5c-0.2-0.7-0.6-1.4-0.8-2.1c0.3,7.1,1.3,14,2.7,20.9
					c1.6-0.9,3.2-1.9,4.9-2.8c-2.9-3.5-4.3-7.9-5.7-12.1c-1.5-4.5-3-9.2-5.6-13.3c-1.3-2.1-4.8-1.9-5.3,0.7
					c-1.2,4.9-1.3,9.9-0.2,14.9c1.9-0.5,3.7-1,5.6-1.5c-2.2-5.7-3-11.6-2.4-17.6c-1.9,0.5-3.6,0.9-5.5,1.5c3,4.2,6,8.4,9.2,12.4
					c2.7,3.5,6,9.7,11.3,7.2c0.8-0.5,1.5-1.5,1.4-2.6c-0.2-3.2-0.2-6.4,0.3-9.5c-1.7,0.2-3.5,0.5-5.3,0.7
					c3.9,5.5,7.8,10.9,11.7,16.5c0.8,1.2,2.2,1.9,3.6,1.2c1.2-0.6,2.2-2.1,1.6-3.4c-2-5.1-3.9-10.3-5.9-15.4c-0.6-1.5-2-2.4-3.6-2
					C80.3,180,79.1,181.6,79.7,183.1L79.7,183.1z"/>
			</g>
		</g>
		<g>
			<path class="st1" d="M55.1,178.2c0.5,2.3-1.2,4.5-2.9,6.3c-3.7,3.7-7.9,7-12.5,9.4c3-5.5,5.9-11,8.5-16.7
				c-2.8,4.2-5.5,8.4-8.2,12.4c1.4-3.1,2.8-6.3,4.2-9.3c-3.1,4.4-5.9,9.1-8.4,13.8c0.9-2.7,1.7-5.2,2.7-7.9
				c-1.9,1.4-3.9,2.3-5.7,3.8c-1.7,1.5-3.1,3.5-3.1,5.8c1.6-1.2,2.9-2.9,3.5-4.9c-4.3,1.4-8.1,3.9-11.3,7.3c2.7-1.5,4.5-4.5,4.6-7.7
				c-1.9,2.8-3.6,5.7-5.1,8.6c0.8,0.9,2.2,1,3.5,1c4.3,0,8.6-0.6,12.9-1c6.6-0.8,13.1-1.5,19.7-2.3c1.3-0.1,3-0.8,2.8-2.1
				c-3.4,0.3-6.6,1.2-9.7,2.7c-0.7,0.3-1.4,0.7-1.9,1.4c-0.8,1.5,0.7,3.5,2.4,3.6c1.7,0.2,3.4-0.7,4.8-1.6c1.2-0.7,2.4-1.6,2.8-3
				c0.2-0.8,0.1-1.7,0-2.6c-0.8-4.4-1.9-8.7-3.1-13c-0.1-0.3-0.2-0.7-0.5-0.8c-0.5-0.2-0.9,0.1-1.3,0.5c-2.1,2.1-3.5,4.9-3.9,7.8
				c-0.1,0.9-0.2,2,0.1,2.9c0.2,0.8,0.8,1.5,1.4,2.2c3.2,4.1,6.8,8.2,11.8,9.4c1.5,0.3,3.7,0,3.9-1.6c0.1-0.7-0.2-1.3-0.5-1.9
				c-0.9-1.9-2.1-3.7-3.2-5.5c-0.5,1.6-0.9,3.2-1.4,4.9c-2.2-2.1-4.3-4.3-6.2-6.8"/>
			<g>
				<path class="st2" d="M52.3,179.1c0.1,1-1.2,2.3-1.7,3.1c-1.2,1.3-2.6,2.4-3.8,3.6c-2.6,2.2-5.5,4.1-8.5,5.7
					c1.3,1.3,2.7,2.7,3.9,3.9c3-5.5,5.9-11,8.5-16.7c1.5-3.4-2.9-6.2-5-2.9c-2.8,4.2-5.5,8.4-8.2,12.4c1.6,0.9,3.4,2,5,2.9
					c1.4-3.1,2.8-6.3,4.2-9.3c1.5-3.4-2.8-6-5-2.9c-3.1,4.4-5.9,9.1-8.4,13.8c1.7,0.7,3.5,1.5,5.3,2.2c0.9-2.7,1.7-5.2,2.7-7.9
					c0.8-2.3-2.2-4.8-4.3-3.2c-4.5,3.2-10.1,5.8-10.2,12.2c-0.1,2,2.6,3.8,4.4,2.6c2.3-1.7,3.9-3.8,4.8-6.6c0.7-2-1.5-4.3-3.6-3.6
					c-4.8,1.6-9.1,4.3-12.5,8c-2.2,2.3,0.6,6.3,3.5,4.5c3.7-2.2,5.8-5.9,6.2-10.2c0.2-3-3.9-3.7-5.5-1.5c-1.9,2.8-3.6,5.7-5.1,8.6
					c-0.6,1.2-0.5,2.6,0.5,3.5c2.9,2.8,7.5,1.9,11.1,1.6c4.2-0.3,8.2-0.9,12.3-1.4c4.2-0.5,8.2-0.9,12.4-1.4c3.2-0.3,8.1-0.8,8-5.2
					c0-1.4-1.3-3-2.9-2.9c-4.1,0.5-8.4,1.3-11.8,3.4c-3.8,2.2-3.5,7.2,0.2,9.4c3.6,2.1,8-0.3,10.8-2.8c3.6-3.1,2.1-7.7,1.3-11.7
					c-0.5-2-0.9-3.9-1.5-5.9c-0.6-2-1-4.8-3.4-5.5c-4.1-1.3-7,4.6-8.1,7.7c-0.6,1.6-1,3.6-0.9,5.5c0.1,2.2,1.3,3.8,2.7,5.5
					c2.2,2.8,4.5,5.3,7.4,7.4c3,2.1,7.7,3.8,10.9,1.6c4.6-3.1,0-9.2-2.2-12.4c-1.4-2-4.6-1.9-5.3,0.7c-0.5,1.6-0.9,3.2-1.4,4.9
					c1.6-0.5,3.2-0.8,4.9-1.3c-2.1-1.9-4.1-3.9-5.7-6.3c-0.9-1.3-2.6-1.9-3.9-1c-1.3,0.7-2,2.7-1,3.9c2,2.7,4.2,5.1,6.6,7.4
					c1.6,1.5,4.3,0.9,4.9-1.3c0.5-1.6,0.9-3.2,1.4-4.9c-1.7,0.2-3.5,0.5-5.3,0.7c1,1.5,2,3,2.8,4.5c0.1,0.2,0.3,0.9,0.6,1
					c0.1,0.3,0.2,0.1,0.2-0.6c0.1-0.1,0.2-0.2,0.3-0.3c0,0.1-0.6,0.1-0.9,0.1c-2.2-0.2-4.6-2.2-6.4-3.9c-1-1-2.1-2.2-3-3.4
					c-0.7-0.8-1.7-1.7-1.9-2.8c-0.1-1.2,0.5-2.8,0.9-3.8c0.3-0.7,0.7-1.4,1.2-2.1c0.1-0.2,0.3-0.5,0.6-0.7c0.2-0.2,1-0.7,0.3-0.6
					c-0.5,0-1,0-1.5,0c0.1,0,0.2,0,0.3,0.1c-0.5-0.2-0.8-0.5-1.3-0.7c-0.3-0.3-0.2-0.7-0.1,0c0.1,0.5,0.2,0.9,0.3,1.3
					c0.2,0.8,0.5,1.6,0.7,2.4c0.3,1.5,0.8,3,1.2,4.6c0.3,1.4,0.9,3.1,0.8,4.6c0,0.9-0.9,1.4-1.6,1.9c-0.9,0.6-1.7,0.9-2.7,1.2
					c0,0-0.3-0.2-0.2-0.2l-0.1,0.9c0.1,0,0.3-0.1,0.5-0.2c1.3-0.3,2.6-1,3.9-1.5c1.5-0.5,3.1-0.8,4.8-0.9c-0.9-0.9-2-2-2.9-2.9
					c0-0.1,0.6-1,0.6-1c0,0.1-0.3,0.1-0.5,0.1c-0.5,0.1-0.9,0.1-1.5,0.2c-1.7,0.2-3.4,0.3-5.1,0.6c-3.2,0.3-6.6,0.8-9.9,1.2
					c-3.1,0.3-6.4,0.8-9.5,1c-1.6,0.1-3.4,0.2-5.1,0.3c-0.7,0-2.6,0.3-3.1-0.1c0.1,1.2,0.3,2.3,0.5,3.5c1.6-2.9,3.2-5.8,5.1-8.6
					c-1.9-0.5-3.6-0.9-5.5-1.5c-0.1,2.2-1.4,4.1-3.2,5.2c1.2,1.5,2.3,3,3.5,4.5c2.8-2.9,6.2-5.2,10-6.5c-1.2-1.2-2.4-2.4-3.6-3.6
					c-0.3,1.2-1.2,2.3-2.1,3.1c1.5,0.8,2.9,1.6,4.4,2.6c0.1-3.5,5-5.3,7.3-7.1c-1.4-1-2.8-2.2-4.3-3.2c-0.9,2.7-1.7,5.2-2.7,7.9
					c-1,3.1,3.8,5.2,5.3,2.2c2.4-4.9,5.2-9.5,8.4-13.8c-1.6-0.9-3.4-2-5-2.9c-1.4,3.1-2.8,6.3-4.2,9.3c-1.5,3.4,2.9,6.2,5,2.9
					c2.8-4.2,5.5-8.4,8.2-12.4c-1.6-0.9-3.4-2-5-2.9c-2.7,5.7-5.5,11.3-8.5,16.7c-1.4,2.6,1.4,5.3,3.9,3.9c3.8-2.1,7.5-4.6,10.8-7.5
					c3.4-3,6.7-6.5,6-11.4c-0.2-1.5-2.2-2.4-3.6-2C52.7,175.9,52.1,177.5,52.3,179.1L52.3,179.1z"/>
			</g>
		</g>
		<g>
			<path class="st1" d="M64.6,133.3c-0.3-1.2-0.8-2.3-1.2-3.4c-0.1-0.2-0.2-0.6-0.5-0.7c-0.3-0.1-0.7,0.1-0.9,0.2
				c-1.5,0.9-3,1.9-4.1,3.2s-1.6,3.2-0.9,4.8c2.1-0.8,3.1-3.5,2.9-5.8s-1.6-4.3-3-6.2c-0.1-0.2-0.3-0.5-0.6-0.5
				c-0.2,0-0.5,0.3-0.3,0.5c0.7-1.7-0.5-3.9-2.3-4.4c-2.2-0.5-4.3,1.3-5.3,3.2c-1.2,2-1.7,4.2-3.2,5.9c-0.5,0.5-1,0.9-1.7,0.9
				c-0.7,0-1.3-0.7-1.2-1.3c0.1-0.3,0.3-0.6,0.7-0.7c0.9-0.7,1.9-1.4,2.8-2.1c-4.3,3.7-4.2,10.9-0.8,15.6c0.8,1.2,1.9,2.1,2.9,3
				c1.3,1.2,2.8,2.3,4.5,2.7c2.2,0.5,4.4-0.1,6.6-0.7c2.6-0.8,5.1-1.5,7.7-2.3c0.7-0.2,1.5-0.5,2.1-1s0.8-1.4,1-2.2
				c1-3.9,2.1-8.6,0-12.1c-1-1.7-2.8-3-4.5-4.2c-1.3-0.9-2.6-1.7-3.7-2.7c-1-0.7-2.3-1.5-3.5-0.9c-0.7,0.3-1,1-1.4,1.7
				c-2.1,4.3-3,9.2-2.4,13.9c-1.4-1.3-2.7-2.7-3.8-4.1c1,2.7,2.8,5.1,5,6.8c0.3,0.2,0.6,0.5,1,0.6c0.9,0.2,1.9-0.6,2.1-1.5
				c0.2-0.9,0.1-1.9-0.1-2.8c2.1,0,4.1,1.3,5,3.1c-0.3,0.2-0.7,0.3-1,0.6"/>
			<g>
				<path class="st2" d="M67.4,132.6c-0.6-1.9-1-4.5-2.8-5.7c-2-1.3-3.9-0.1-5.7,1.2c-3.2,2.3-6,6-4.6,10.3c0.6,1.9,2.6,2.6,4.3,1.7
					c3.9-1.9,5.1-7,3.8-10.8c-0.7-2.1-2-4.4-3.6-5.9c-2.4-2.3-6.3-0.1-5.5,3.1c0.7,2.9,4.8,2.6,5.6,0c1.6-5.1-3.6-9.6-8.5-7.7
					c-2.1,0.9-3.8,2.7-4.9,4.8c-0.5,0.9-0.9,2-1.4,2.9c-0.2,0.5-0.5,1-0.8,1.4c-0.1,0.1-0.2,0.2-0.3,0.3c-0.9,0.8-0.2,1.3,2.1,1.6
					c-0.1,0.5-0.2,0.9-0.3,1.5c0.2-0.3,1.7-1.3,2.3-1.7c-1.2-1.5-2.3-3-3.5-4.5c-4.8,4.2-5.1,11.4-2.6,16.8c1.4,3.1,4.2,5.8,7,7.7
					c3.5,2.3,7.2,2.1,11,1c1.9-0.6,3.7-1.2,5.7-1.6c1.9-0.6,4.1-0.9,5.6-2.2c1.3-1.2,1.9-2.8,2.3-4.4c0.5-1.7,0.8-3.6,1-5.5
					c0.3-3.7-0.5-7.4-3.1-10.2c-1.2-1.2-2.6-2.2-3.8-3.1c-1.5-1-3-2.3-4.6-3.2c-9.4-5.5-11.6,12-11,17.6c1.6-0.7,3.2-1.4,5-2.1
					c-1.4-1.3-2.7-2.7-3.8-4.1c-1.9-2.1-5.9,0.1-4.9,2.8c1.4,3.4,3.6,7.3,7,9.1c2,1,4.3,0.5,5.7-1.2c1.5-1.7,1.4-4.1,0.9-6.3
					c-0.9,1.3-1.9,2.4-2.8,3.7c1.2,0,2,0.7,2.4,1.7c0.3-1.3,0.7-2.7,1-3.9c-0.3,0.2-0.7,0.3-1,0.6c-3.2,1.9-0.3,6.8,2.9,5
					c0.3-0.2,0.7-0.3,1-0.6c1.4-0.8,1.7-2.7,1-3.9c-1.5-2.8-4.4-4.4-7.5-4.5c-2-0.1-3.1,2-2.8,3.7c0,0.1,0.1,1,0.1,1.2
					c-0.1,0.2,0,0.2,0.1,0c0.1-0.3,0.5-0.5,0.9-0.5c0.7,0.3,0.9,0.3,0.5,0.1c-0.1-0.1-0.3-0.3-0.5-0.5c-0.3-0.3-0.7-0.6-0.9-0.9
					c-1-1.2-2-2.6-2.6-4.1c-1.6,0.9-3.2,1.9-4.9,2.8c1.3,1.4,2.6,2.7,3.8,4.1c1.6,1.6,5.2,0.6,5-2.1c-0.2-2.7-0.2-5.3,0.5-8
					c0.3-1.3,0.7-2.4,1.2-3.6c0.1-0.2,0.8-1.4,0.8-1.5l0,0c0.2-0.1,0-0.1-0.7,0.2c0,0,0.3,0.2,0.3,0.1c0.5,0.5,1.2,0.8,1.7,1.2
					s1.2,0.8,1.6,1.2c1,0.7,2.2,1.5,3.1,2.3c1.7,1.6,2.6,3.4,2.4,5.7c0,1.2-0.2,2.2-0.5,3.2c-0.1,0.7-0.3,1.3-0.5,2
					c-0.1,0.3-0.2,1.3-0.5,1.5c-0.5,0.5-2,0.7-2.7,0.8c-1.5,0.5-3.1,0.9-4.6,1.4c-2.4,0.7-5.2,2-7.7,0.6c-1.9-1.2-3.7-2.9-4.9-4.8
					c-2.2-3.5-2.2-8.4,0.9-11.1c2.4-2.2-0.8-6.6-3.5-4.5c-2.2,1.7-6.4,3.9-4.4,7.4c0.8,1.4,2.3,2.2,3.9,2.1c1.7-0.1,3.1-1.3,4.2-2.7
					c1.5-2,2-4.5,3.6-6.4c0.3-0.3,1-1,1.5-1c0.5,0,0.3,0.7,0.3,0.9c1.9,0,3.7,0,5.6,0c0-0.1,0-0.1,0-0.2c-0.1,0.7-0.2,1.5-0.3,2.2
					c0-0.1,0.1-0.1,0.1-0.2c-0.6,0.5-1.2,0.9-1.7,1.3c0.1,0,0.1,0,0.2-0.1c-0.7-0.1-1.5-0.2-2.2-0.3c-0.2-0.3-0.2-0.3,0.1,0.1
					c0.2,0.2,0.3,0.5,0.6,0.8c0.2,0.3,0.5,0.8,0.7,1.2c0.3,0.7,0.7,1.5,0.8,2.3c0.1,1.3-0.3,2.3-1.5,2.9c1.4,0.6,2.8,1.2,4.3,1.7
					c-0.3-0.9,0-1.7,0.7-2.6c0.3-0.5,0.8-0.8,1.4-1.2c0.2-0.2,0.5-0.3,0.8-0.6c0.2-0.1,0.3-0.2,0.6-0.3c0.3-0.2,0.2-0.2-0.3,0
					c-0.5-0.1-0.9-0.2-1.5-0.3c0.1,0,0.1,0.1,0.2,0.1c-0.3-0.3-0.7-0.7-1-1c0-0.3,0-0.2,0.1,0.3c0.1,0.3,0.2,0.7,0.3,0.9
					c0.2,0.7,0.5,1.3,0.7,2c0.5,1.5,2,2.4,3.6,2C66.8,135.8,67.9,134,67.4,132.6L67.4,132.6z"/>
			</g>
		</g>
		<g>
			<path class="st3" d="M56,164.2c25.9,0,46.8,20.9,46.8,46.8H9.3C9.3,185.1,30.2,164.2,56,164.2"/>
		</g>
		
			<ellipse transform="matrix(7.088900e-02 -0.9975 0.9975 7.088900e-02 -83.0203 181.7149)" class="st3" cx="56" cy="135.4" rx="19.4" ry="19.4"/>
	</g>
	<path class="st4" d="M57.9,75.2l3.4,7c0.3,0.7,1,1.2,1.7,1.3l7.7,1.2c2,0.2,2.7,2.7,1.3,4.1L66.4,94c-0.6,0.6-0.8,1.3-0.7,2.1
		l1.3,7.7c0.3,2-1.7,3.4-3.4,2.4l-6.6-3.6c-0.7-0.3-1.5-0.3-2.2,0l-6.8,3.6c-1.7,0.9-3.7-0.6-3.4-2.4l1.3-7.7
		c0.1-0.8-0.1-1.5-0.7-2.1l-5.6-5.3c-1.4-1.4-0.6-3.7,1.3-4.1l7.7-1.2c0.8-0.1,1.4-0.6,1.7-1.3l3.4-7C54.5,73.5,57.1,73.5,57.9,75.2
		z"/>
	<g>
		<g>
			<path class="st1" d="M160.9,169c1.5,1.4,2.6,3.2,3.6,5c2.4,4.3,5.2,8.5,8.2,12.4"/>
			<g>
				<path class="st2" d="M158.9,171.1c0.2,0.2,0.6,0.6,0.8,0.8c0.1,0.1,0.2,0.3,0.3,0.5c-0.2-0.2,0,0,0.1,0.1
					c0.5,0.7,0.9,1.4,1.3,2.1c0.9,1.5,1.7,3,2.7,4.5c1.9,3,3.9,5.9,6,8.8c0.9,1.2,2.6,2,3.9,1c1.2-0.8,2-2.7,1-3.9
					c-2.2-2.9-4.3-5.9-6.3-9.1c-1.9-3-3.4-6.5-6-8.9c-1.2-1-3-1.2-4.1,0C157.9,168,157.7,170,158.9,171.1L158.9,171.1z"/>
			</g>
		</g>
		<g>
			<path class="st1" d="M168.1,170.1c3.4,3.2,6.8,6.7,8.2,11.1c-3.4-5.6-10-8.9-16.4-8.7c-0.9,0-1.9,0.1-2.8,0.6
				c-0.8,0.3-1.5,1-2.2,1.7c-3,2.7-6.3,4.9-9.9,6.5c-0.5-1.9,1.7-3.2,2.8-4.9c0.3-0.5,0.6-1.2,1-1.5c0.5-0.3,0.9-0.6,1.5-0.7
				c1.9-0.5,3.6-1,5.5-1.5c-6.4,6.2-12.9,12.3-20.2,17.3c0-3.5,1.9-7,4.6-9.1c1.3,1.9-0.5,4.3-2,5.9c-5,5.5-9.4,12-10.2,19.3
				c4.5,1.9,9.4-1.3,14.3-2c2.9-0.5,5.9,0,8.7,0.6c8.6,1.5,17.4,3.5,26,1.7c3.2-0.7,6.3-1.7,9.5-2.1c2.1-0.2,4.2-0.1,6.2,0
				c6.4,0.3,12.8,0.6,19.1,0.9"/>
			<g>
				<path class="st2" d="M166.1,172.2c2.9,2.9,6.2,5.9,7.4,9.9c1.7-0.7,3.5-1.5,5.3-2.2c-3.6-5.8-9.7-9.4-16.6-10.1
					c-1.6-0.1-3.5-0.1-5,0.3c-2,0.6-3.4,1.9-4.8,3.1c-2.7,2.3-5.7,4.2-8.9,5.8c1.4,0.6,2.8,1.2,4.3,1.7c0.1,0.8-0.1,0.5,0.2,0.1
					c0.3-0.2,0.6-0.6,0.8-0.9c0.7-0.8,1.2-1.6,1.9-2.4c0.2-0.2-0.3-0.1,0.5-0.2c0.6-0.1,1-0.3,1.6-0.5c1.3-0.3,2.6-0.7,3.8-1
					c-0.9-1.6-1.9-3.2-2.8-4.9c-6.3,5.9-12.4,12-19.6,16.8c1.5,0.8,2.9,1.6,4.4,2.6c0.1-2.4,1.3-5,3.2-6.5c-1.3-0.3-2.7-0.7-3.9-1
					c0.5,0.8-2.3,3.2-2.8,3.8c-1.6,1.9-3.2,3.9-4.6,6c-2.8,4.2-4.6,8.8-5.2,13.9c-0.1,1.3,1,2.4,2.1,2.8c5.1,1.9,9.9-0.8,14.9-1.9
					c2.6-0.5,5.1-0.1,7.7,0.3c2.9,0.5,5.7,1,8.6,1.5c5.8,0.9,11.7,1.5,17.6,0.6c2.8-0.5,5.5-1.3,8.2-1.9c2.7-0.6,5.3-0.7,8-0.5
					c6.6,0.3,13.1,0.6,19.7,0.9c3.7,0.2,3.7-5.6,0-5.8c-5.7-0.2-11.5-0.6-17.2-0.8c-2.8-0.1-5.7-0.3-8.5,0c-2.9,0.3-5.7,1.2-8.5,1.9
					c-5.2,1.3-10.8,1-16.1,0.3c-5.6-0.8-11.4-2.6-17.1-2.6c-3,0-5.8,0.8-8.6,1.6c-2.4,0.7-4.9,1.5-7.3,0.6c0.7,0.9,1.4,1.9,2.1,2.8
					c0.6-4.9,3.1-9.5,6-13.3c2.8-3.7,8.6-8.1,5.7-13.3c-0.7-1.3-2.7-2-3.9-1c-3.7,2.8-6,6.8-6.2,11.5c-0.1,2.1,2.6,3.7,4.4,2.6
					c7.5-5.1,14.3-11.4,20.8-17.8c2.1-2-0.1-5.6-2.8-4.9c-3.4,0.9-7.4,1.3-9.4,4.4c-0.7,1.2-1.6,2-2.4,3c-1,1.4-1.3,2.9-1,4.6
					c0.2,2,2.8,2.4,4.3,1.7c2.8-1.3,5.5-2.9,7.9-4.9c1.2-0.9,2.2-2,3.5-2.9c1-0.8,2.4-0.7,3.6-0.7c5,0.2,9.7,3,12.4,7.2
					c1.7,2.7,6.4,1,5.3-2.2c-1.7-5-5.2-8.8-8.9-12.4C167.4,165.5,163.4,169.5,166.1,172.2L166.1,172.2z"/>
			</g>
		</g>
		<g>
			<path class="st1" d="M170.9,170.5c6.6,1.5,13.2,3.2,19.6,5.2c1.3,0.5,2.7,0.8,3.7,1.7c0.9,0.8,1.6,2,2.3,3
				c2.3,3.2,5.6,5.7,8.4,8.5c2.8,2.8,5.3,6.3,5.3,10.2"/>
			<g>
				<path class="st2" d="M170.1,173.3c4.5,1,8.9,2.1,13.5,3.4c2.2,0.6,4.5,1.3,6.7,2c1.7,0.6,2.6,1.4,3.6,2.9
					c2.3,3.4,5.5,5.9,8.4,8.7c2.4,2.3,5.1,5.2,5.2,8.9s5.9,3.7,5.8,0c-0.1-4.5-2.4-8.5-5.6-11.6c-3-3.1-6.6-5.7-9.1-9.3
					c-1.3-2-2.7-3.5-4.9-4.4c-2.3-1-4.9-1.6-7.3-2.3c-4.9-1.4-9.9-2.7-14.7-3.7C168,166.8,166.5,172.4,170.1,173.3L170.1,173.3z"/>
			</g>
		</g>
		<g>
			<path class="st1" d="M196.7,182.3c2,5.1,3.9,10.3,5.9,15.4c-3.9-5.5-7.8-10.9-11.7-16.5c-0.6,3.4-0.7,6.8-0.5,10.3
				c-1.4,0.9-3.1-0.6-4.1-1.9c-4.2-5.5-8.4-11-12.3-16.7c-0.7,6.3,0.2,12.6,2.6,18.5c-0.9-4.4-0.8-8.9,0.2-13.2
				c5.1,8.1,5.6,18.7,11.7,26c-1.4-6.6-2.3-13.3-2.7-20.2c-1.2-1.5-2.4-3-3.6-4.5c3.5,8.6,8.1,16.8,13.9,24.1
				c-3.1-2.8-1.5-8.8-4.9-11.4"/>
			<g>
				<path class="st2" d="M193.9,183.1c2,5.1,3.9,10.3,5.9,15.4c1.7-0.7,3.5-1.5,5.3-2.2c-3.9-5.5-7.8-10.9-11.7-16.5
					c-0.7-0.9-1.6-1.6-2.9-1.4c-1,0.1-2.2,0.9-2.4,2.1c-0.6,3.7-0.8,7.4-0.6,11.1c0.5-0.8,0.9-1.6,1.4-2.6c0.7,0,1,0,0.7-0.1h-0.1
					c0-0.2-0.7-0.6-0.8-0.8c-0.6-0.7-1.2-1.4-1.6-2.1c-1.2-1.5-2.3-3.1-3.6-4.8c-2.4-3.2-4.8-6.5-7.1-9.7c-1.7-2.4-5.1-1.5-5.5,1.5
					c-0.7,6.5,0.2,13.1,2.7,19.1c1.4,3.5,6.3,2.2,5.6-1.5c-0.7-3.9-0.6-7.9,0.2-11.7c-1.7,0.2-3.5,0.5-5.3,0.7
					c2.6,4.1,3.8,8.7,5.3,13.2c1.6,4.8,3.5,9.4,6.7,13.3c2,2.4,5.3-0.2,4.9-2.8c-0.9-4.4-1.6-8.9-2.1-13.5c-0.1-1.2-0.2-2.2-0.2-3.4
					c-0.1-1.2,0-2.6-0.3-3.7c-0.5-1-1.4-2-2.1-2.8c-0.7-0.9-1.4-1.7-2.1-2.7c-1.7-2.2-5.9,0.2-4.9,2.8c3.7,9.2,8.6,17.6,14.6,25.4
					c1.4-1.4,2.8-2.8,4.1-4.1c-0.6-0.6-0.8-0.9-1-1.9c-0.3-1-0.5-2.2-0.7-3.4c-0.5-2.3-1.3-4.6-3.1-6.2c-1.3-0.9-2.9-1.2-4.1,0
					c-1,1-1.3,3.1,0,4.1c0.7,0.6,1,1,1.3,1.7c0.3,1,0.5,2.2,0.7,3.2c0.5,2.3,1.2,4.6,3,6.4c1.2,1,3,1.2,4.1,0c1.3-1.3,0.9-2.9,0-4.1
					c-5.5-7-9.9-14.6-13.1-22.9c-1.6,0.9-3.2,1.9-4.9,2.8c1.2,1.5,2.4,3,3.6,4.5c-0.2-0.7-0.6-1.4-0.8-2.1c0.3,7.1,1.3,14,2.7,20.9
					c1.6-0.9,3.2-1.9,4.9-2.8c-2.9-3.5-4.3-7.9-5.7-12.1c-1.5-4.5-3-9.2-5.6-13.3c-1.3-2.1-4.8-1.9-5.3,0.7
					c-1.2,4.9-1.3,9.9-0.2,14.9c1.9-0.5,3.7-1,5.6-1.5c-2.2-5.7-3-11.6-2.4-17.6c-1.9,0.5-3.6,0.9-5.5,1.5c3,4.2,6,8.4,9.2,12.4
					c2.7,3.5,6,9.7,11.3,7.2c0.8-0.5,1.5-1.5,1.4-2.6c-0.2-3.2-0.2-6.4,0.3-9.5c-1.7,0.2-3.5,0.5-5.3,0.7
					c3.9,5.5,7.8,10.9,11.7,16.5c0.8,1.2,2.2,1.9,3.6,1.2c1.2-0.6,2.2-2.1,1.6-3.4c-2-5.1-3.9-10.3-5.9-15.4c-0.6-1.5-2-2.4-3.6-2
					C194.5,180,193.3,181.6,193.9,183.1L193.9,183.1z"/>
			</g>
		</g>
		<g>
			<path class="st1" d="M169.4,178.2c0.5,2.3-1.2,4.5-2.9,6.3c-3.7,3.7-7.9,7-12.5,9.4c3-5.5,5.9-11,8.5-16.7
				c-2.8,4.2-5.5,8.4-8.2,12.4c1.4-3.1,2.8-6.3,4.2-9.3c-3.1,4.4-5.9,9.1-8.4,13.8c0.9-2.7,1.7-5.2,2.7-7.9
				c-1.9,1.4-3.9,2.3-5.7,3.8c-1.7,1.5-3.1,3.5-3.1,5.8c1.6-1.2,2.9-2.9,3.5-4.9c-4.3,1.4-8.1,3.9-11.3,7.3c2.7-1.5,4.5-4.5,4.6-7.7
				c-1.9,2.8-3.6,5.7-5.1,8.6c0.8,0.9,2.2,1,3.5,1c4.3,0,8.6-0.6,12.9-1c6.6-0.8,13.1-1.5,19.7-2.3c1.3-0.1,3-0.8,2.8-2.1
				c-3.4,0.3-6.6,1.2-9.7,2.7c-0.7,0.3-1.4,0.7-1.9,1.4c-0.8,1.5,0.7,3.5,2.4,3.6c1.7,0.2,3.4-0.7,4.8-1.6c1.2-0.7,2.4-1.6,2.8-3
				c0.2-0.8,0.1-1.7,0-2.6c-0.8-4.4-1.9-8.7-3.1-13c-0.1-0.3-0.2-0.7-0.5-0.8c-0.5-0.2-0.9,0.1-1.3,0.5c-2.1,2.1-3.5,4.9-3.9,7.8
				c-0.1,0.9-0.2,2,0.1,2.9c0.2,0.8,0.8,1.5,1.4,2.2c3.2,4.1,6.8,8.2,11.8,9.4c1.5,0.3,3.7,0,3.9-1.6c0.1-0.7-0.2-1.3-0.5-1.9
				c-0.9-1.9-2.1-3.7-3.2-5.5c-0.5,1.6-0.9,3.2-1.4,4.9c-2.2-2.1-4.3-4.3-6.2-6.8"/>
			<g>
				<path class="st2" d="M166.6,179.1c0.1,1-1.2,2.3-1.7,3.1c-1.2,1.3-2.6,2.4-3.8,3.6c-2.6,2.2-5.5,4.1-8.5,5.7
					c1.3,1.3,2.7,2.7,3.9,3.9c3-5.5,5.9-11,8.5-16.7c1.5-3.4-2.9-6.2-5-2.9c-2.8,4.2-5.5,8.4-8.2,12.4c1.6,0.9,3.4,2,5,2.9
					c1.4-3.1,2.8-6.3,4.2-9.3c1.5-3.4-2.8-6-5-2.9c-3.1,4.4-5.9,9.1-8.4,13.8c1.7,0.7,3.5,1.5,5.3,2.2c0.9-2.7,1.7-5.2,2.7-7.9
					c0.8-2.3-2.2-4.8-4.3-3.2c-4.5,3.2-10.1,5.8-10.2,12.2c-0.1,2,2.6,3.8,4.4,2.6c2.3-1.7,3.9-3.8,4.8-6.6c0.7-2-1.5-4.3-3.6-3.6
					c-4.8,1.6-9.1,4.3-12.5,8c-2.2,2.3,0.6,6.3,3.5,4.5c3.7-2.2,5.8-5.9,6.2-10.2c0.2-3-3.9-3.7-5.5-1.5c-1.9,2.8-3.6,5.7-5.1,8.6
					c-0.6,1.2-0.5,2.6,0.5,3.5c2.9,2.8,7.5,1.9,11.1,1.6c4.2-0.3,8.2-0.9,12.3-1.4c4.2-0.5,8.2-0.9,12.4-1.4c3.2-0.3,8.1-0.8,8-5.2
					c0-1.4-1.3-3-2.9-2.9c-4.1,0.5-8.4,1.3-11.8,3.4c-3.8,2.2-3.5,7.2,0.2,9.4c3.6,2.1,8-0.3,10.8-2.8c3.6-3.1,2.1-7.7,1.3-11.7
					c-0.5-2-0.9-3.9-1.5-5.9c-0.6-2-1-4.8-3.4-5.5c-4.1-1.3-7,4.6-8.1,7.7c-0.6,1.6-1,3.6-0.9,5.5c0.1,2.2,1.3,3.8,2.7,5.5
					c2.2,2.8,4.5,5.3,7.4,7.4c3,2.1,7.7,3.8,10.9,1.6c4.6-3.1,0-9.2-2.2-12.4c-1.4-2-4.6-1.9-5.3,0.7c-0.5,1.6-0.9,3.2-1.4,4.9
					c1.6-0.5,3.2-0.8,4.9-1.3c-2.1-1.9-4.1-3.9-5.7-6.3c-0.9-1.3-2.6-1.9-3.9-1c-1.3,0.7-2,2.7-1,3.9c2,2.7,4.2,5.1,6.6,7.4
					c1.6,1.5,4.3,0.9,4.9-1.3c0.5-1.6,0.9-3.2,1.4-4.9c-1.7,0.2-3.5,0.5-5.3,0.7c1,1.5,2,3,2.8,4.5c0.1,0.2,0.3,0.9,0.6,1
					c0.1,0.3,0.2,0.1,0.2-0.6c0.1-0.1,0.2-0.2,0.3-0.3c0,0.1-0.6,0.1-0.9,0.1c-2.2-0.2-4.6-2.2-6.4-3.9c-1-1-2.1-2.2-3-3.4
					c-0.7-0.8-1.7-1.7-1.9-2.8c-0.1-1.2,0.5-2.8,0.9-3.8c0.3-0.7,0.7-1.4,1.2-2.1c0.1-0.2,0.3-0.5,0.6-0.7c0.2-0.2,1-0.7,0.3-0.6
					c-0.5,0-1,0-1.5,0c0.1,0,0.2,0,0.3,0.1c-0.5-0.2-0.8-0.5-1.3-0.7c-0.3-0.3-0.2-0.7-0.1,0c0.1,0.5,0.2,0.9,0.3,1.3
					c0.2,0.8,0.5,1.6,0.7,2.4c0.3,1.5,0.8,3,1.2,4.6c0.3,1.4,0.9,3.1,0.8,4.6c0,0.9-0.9,1.4-1.6,1.9c-0.9,0.6-1.7,0.9-2.7,1.2
					c0,0-0.3-0.2-0.2-0.2l-0.1,0.9c0.1,0,0.3-0.1,0.5-0.2c1.3-0.3,2.6-1,3.9-1.5c1.5-0.5,3.1-0.8,4.8-0.9c-0.9-0.9-2-2-2.9-2.9
					c0-0.1,0.6-1,0.6-1c0,0.1-0.3,0.1-0.5,0.1c-0.5,0.1-0.9,0.1-1.5,0.2c-1.7,0.2-3.4,0.3-5.1,0.6c-3.2,0.3-6.6,0.8-9.9,1.2
					c-3.1,0.3-6.4,0.8-9.5,1c-1.6,0.1-3.4,0.2-5.1,0.3c-0.7,0-2.6,0.3-3.1-0.1c0.1,1.2,0.3,2.3,0.5,3.5c1.6-2.9,3.2-5.8,5.1-8.6
					c-1.9-0.5-3.6-0.9-5.5-1.5c-0.1,2.2-1.4,4.1-3.2,5.2c1.2,1.5,2.3,3,3.5,4.5c2.8-2.9,6.2-5.2,10-6.5c-1.2-1.2-2.4-2.4-3.6-3.6
					c-0.3,1.2-1.2,2.3-2.1,3.1c1.5,0.8,2.9,1.6,4.4,2.6c0.1-3.5,5-5.3,7.3-7.1c-1.4-1-2.8-2.2-4.3-3.2c-0.9,2.7-1.7,5.2-2.7,7.9
					c-1,3.1,3.8,5.2,5.3,2.2c2.4-4.9,5.2-9.5,8.4-13.8c-1.6-0.9-3.4-2-5-2.9c-1.4,3.1-2.8,6.3-4.2,9.3c-1.5,3.4,2.9,6.2,5,2.9
					c2.8-4.2,5.5-8.4,8.2-12.4c-1.6-0.9-3.4-2-5-2.9c-2.7,5.7-5.5,11.3-8.5,16.7c-1.4,2.6,1.4,5.3,3.9,3.9c3.8-2.1,7.5-4.6,10.8-7.5
					c3.4-3,6.7-6.5,6-11.4c-0.2-1.5-2.2-2.4-3.6-2C167,175.9,166.4,177.5,166.6,179.1L166.6,179.1z"/>
			</g>
		</g>
		<g>
			<path class="st1" d="M178.8,133.3c-0.3-1.2-0.8-2.3-1.2-3.4c-0.1-0.2-0.2-0.6-0.5-0.7c-0.3-0.1-0.7,0.1-0.9,0.2
				c-1.4,0.9-2.9,1.9-3.9,3.2c-1,1.4-1.6,3.2-0.9,4.8c2.1-0.8,3.1-3.5,2.9-5.8s-1.6-4.3-3-6.2c-0.1-0.2-0.3-0.5-0.6-0.5
				s-0.5,0.3-0.3,0.5c0.7-1.7-0.5-3.9-2.3-4.4c-2.2-0.5-4.3,1.3-5.3,3.2c-1.2,2-1.7,4.2-3.2,5.9c-0.5,0.5-1,0.9-1.7,0.9
				s-1.3-0.7-1.2-1.3c0.1-0.3,0.3-0.6,0.7-0.7c0.9-0.7,1.9-1.4,2.8-2.1c-4.3,3.7-4.2,10.9-0.8,15.6c0.8,1.2,1.9,2.1,2.9,3
				c1.3,1.2,2.8,2.3,4.5,2.7c2.2,0.5,4.4-0.1,6.6-0.7c2.6-0.8,5.1-1.5,7.7-2.3c0.7-0.2,1.5-0.5,2.1-1c0.6-0.6,0.8-1.4,1-2.2
				c1-3.9,2.1-8.6,0-12.1c-1-1.7-2.8-3-4.5-4.2c-1.3-0.9-2.6-1.7-3.7-2.7c-1-0.7-2.3-1.5-3.5-0.9c-0.7,0.3-1,1-1.4,1.7
				c-2.1,4.3-3,9.2-2.4,13.9c-1.4-1.3-2.7-2.7-3.8-4.1c1,2.7,2.8,5.1,5,6.8c0.3,0.2,0.6,0.5,1,0.6c0.9,0.2,1.9-0.6,2.1-1.5
				c0.2-0.9,0.1-1.9-0.1-2.8c2.1,0,4.1,1.3,5,3.1c-0.3,0.2-0.7,0.3-1,0.6"/>
			<g>
				<path class="st2" d="M181.6,132.6c-0.6-1.9-1-4.5-2.8-5.7c-2-1.3-3.9-0.1-5.7,1.2c-3.2,2.3-6,6-4.6,10.3
					c0.6,1.9,2.6,2.6,4.3,1.7c3.9-1.9,5.1-7,3.8-10.8c-0.7-2.1-2-4.4-3.6-5.9c-2.4-2.3-6.3-0.1-5.5,3.1c0.7,2.9,4.8,2.6,5.6,0
					c1.6-5.1-3.6-9.6-8.5-7.7c-2.1,0.9-3.8,2.7-4.9,4.8c-0.5,0.9-0.9,2-1.4,2.9c-0.2,0.5-0.5,1-0.8,1.4c-0.1,0.1-0.2,0.2-0.3,0.3
					c-0.9,0.8-0.2,1.3,2.1,1.6c-0.1,0.5-0.2,0.9-0.3,1.5c0.2-0.3,1.7-1.3,2.3-1.7c-1.2-1.5-2.3-3-3.5-4.5
					c-4.8,4.2-5.1,11.4-2.6,16.8c1.4,3.1,4.2,5.8,7,7.7c3.5,2.3,7.2,2.1,11,1c1.9-0.6,3.7-1.2,5.7-1.6c1.9-0.6,4.1-0.9,5.6-2.2
					c1.3-1.2,1.9-2.8,2.3-4.4c0.5-1.7,0.8-3.6,1-5.5c0.3-3.7-0.5-7.4-3.1-10.2c-1.2-1.2-2.6-2.2-3.8-3.1c-1.5-1-3-2.3-4.6-3.2
					c-9.4-5.5-11.6,12-11,17.6c1.6-0.7,3.2-1.4,5-2.1c-1.4-1.3-2.7-2.7-3.8-4.1c-1.9-2.1-5.9,0.1-4.9,2.8c1.4,3.4,3.6,7.3,7,9.1
					c2,1,4.3,0.5,5.7-1.2c1.5-1.7,1.4-4.1,0.9-6.3c-0.9,1.3-1.9,2.4-2.8,3.7c1.2,0,2,0.7,2.4,1.7c0.3-1.3,0.7-2.7,1-3.9
					c-0.3,0.2-0.7,0.3-1,0.6c-3.2,1.9-0.3,6.8,2.9,5c0.3-0.2,0.7-0.3,1-0.6c1.4-0.8,1.7-2.7,1-3.9c-1.5-2.8-4.4-4.4-7.5-4.5
					c-2-0.1-3.1,2-2.8,3.7c0,0.1,0.1,1,0.1,1.2c-0.1,0.2,0,0.2,0.1,0c0.1-0.3,0.5-0.5,0.9-0.5c0.7,0.3,0.9,0.3,0.5,0.1
					c-0.1-0.1-0.3-0.3-0.5-0.5c-0.3-0.3-0.7-0.6-0.9-0.9c-1-1.2-2-2.6-2.6-4.1c-1.6,0.9-3.2,1.9-4.9,2.8c1.3,1.4,2.6,2.7,3.8,4.1
					c1.6,1.6,5.2,0.6,5-2.1c-0.2-2.7-0.2-5.3,0.5-8c0.3-1.3,0.7-2.4,1.2-3.6c0.1-0.2,0.8-1.4,0.8-1.5l0,0c0.2-0.1,0-0.1-0.7,0.2
					c0,0,0.3,0.2,0.3,0.1c0.5,0.5,1.2,0.8,1.7,1.2s1.2,0.8,1.6,1.2c1,0.7,2.2,1.5,3.1,2.3c1.7,1.6,2.6,3.4,2.4,5.7
					c0,1.2-0.2,2.2-0.5,3.2c-0.1,0.7-0.3,1.3-0.5,2c-0.1,0.3-0.2,1.3-0.5,1.5c-0.5,0.5-2,0.7-2.7,0.8c-1.5,0.5-3.1,0.9-4.6,1.4
					c-2.4,0.7-5.2,2-7.7,0.6c-1.9-1.2-3.7-2.9-4.9-4.8c-2.2-3.5-2.2-8.4,0.9-11.1c2.4-2.2-0.8-6.6-3.5-4.5c-2.2,1.7-6.4,3.9-4.4,7.4
					c0.8,1.4,2.3,2.2,3.9,2.1c1.7-0.1,3.1-1.3,4.2-2.7c1.5-2,2-4.5,3.6-6.4c0.3-0.3,1-1,1.5-1c0.5,0,0.3,0.7,0.3,0.9
					c1.9,0,3.7,0,5.6,0c0-0.1,0-0.1,0-0.2c-0.1,0.7-0.2,1.5-0.3,2.2c0-0.1,0.1-0.1,0.1-0.2c-0.6,0.5-1.2,0.9-1.7,1.3
					c0.1,0,0.1,0,0.2-0.1c-0.7-0.1-1.5-0.2-2.2-0.3c-0.2-0.3-0.2-0.3,0.1,0.1c0.2,0.2,0.3,0.5,0.6,0.8c0.2,0.3,0.5,0.8,0.7,1.2
					c0.3,0.7,0.7,1.5,0.8,2.3c0.1,1.3-0.3,2.3-1.5,2.9c1.4,0.6,2.8,1.2,4.3,1.7c-0.3-0.9,0-1.7,0.7-2.6c0.3-0.5,0.8-0.8,1.4-1.2
					c0.2-0.2,0.5-0.3,0.8-0.6c0.2-0.1,0.3-0.2,0.6-0.3c0.3-0.2,0.2-0.2-0.3,0c-0.5-0.1-0.9-0.2-1.5-0.3c0.1,0,0.1,0.1,0.2,0.1
					c-0.3-0.3-0.7-0.7-1-1c0-0.3,0-0.2,0.1,0.3c0.1,0.3,0.2,0.7,0.3,0.9c0.2,0.7,0.5,1.3,0.7,2c0.5,1.5,2,2.4,3.6,2
					C181,135.8,182.1,134,181.6,132.6L181.6,132.6z"/>
			</g>
		</g>
		<g>
			<path class="st3" d="M170.3,164.2c25.9,0,46.8,20.9,46.8,46.8h-93.5C123.6,185.1,144.5,164.2,170.3,164.2"/>
		</g>
		<circle class="st3" cx="170.3" cy="135.4" r="19.4"/>
	</g>
	<path class="st4" d="M172.2,75.2l3.4,7c0.3,0.7,1,1.2,1.7,1.3l7.7,1.2c2,0.2,2.7,2.7,1.3,4.1l-5.6,5.3c-0.6,0.6-0.8,1.3-0.7,2.1
		l1.3,7.7c0.3,2-1.7,3.4-3.4,2.4l-6.8-3.6c-0.7-0.3-1.5-0.3-2.2,0l-6.8,3.6c-1.7,0.9-3.7-0.6-3.4-2.4l1.3-7.7
		c0.1-0.8-0.1-1.5-0.7-2.1l-5.6-5.3c-1.4-1.4-0.6-3.7,1.3-4.1l7.7-1.2c0.8-0.1,1.4-0.6,1.7-1.3l3.4-7
		C168.8,73.5,171.3,73.5,172.2,75.2z"/>
	<g>
		<g>
			<path class="st1" d="M103.8,181.4c1.5,1.4,2.6,3.2,3.6,5c2.4,4.3,5.2,8.5,8.2,12.4"/>
			<g>
				<path class="st2" d="M101.8,183.4c0.2,0.2,0.6,0.6,0.8,0.8c0.1,0.1,0.2,0.3,0.3,0.5c-0.2-0.2,0,0,0.1,0.1
					c0.5,0.7,0.9,1.4,1.3,2.1c0.9,1.5,1.7,3,2.7,4.5c1.9,3,3.9,5.9,6,8.8c0.9,1.2,2.6,2,3.9,1c1.2-0.8,2-2.7,1-3.9
					c-2.2-2.9-4.3-5.9-6.3-9.1c-1.9-3-3.4-6.5-6-8.9c-1.2-1-3-1.2-4.1,0C100.7,180.5,100.6,182.3,101.8,183.4L101.8,183.4z"/>
			</g>
		</g>
		<g>
			<path class="st1" d="M111,182.4c3.4,3.2,6.8,6.7,8.2,11.1c-3.4-5.6-10-8.9-16.4-8.7c-0.9,0-1.9,0.1-2.8,0.6
				c-0.8,0.3-1.5,1-2.2,1.7c-3,2.7-6.3,4.9-9.9,6.5c-0.5-1.9,1.7-3.2,2.8-4.9c0.3-0.5,0.6-1.2,1-1.5c0.5-0.3,0.9-0.6,1.5-0.7
				c1.9-0.5,3.6-1,5.5-1.5c-6.4,6.2-12.9,12.3-20.2,17.3c0-3.5,1.9-7,4.6-9.1c1.3,1.9-0.5,4.3-2,5.9c-5,5.5-9.4,12-10.2,19.3
				c4.5,1.9,9.4-1.3,14.3-2c2.9-0.5,5.9,0,8.7,0.6c8.6,1.5,17.4,3.5,26,1.7c3.2-0.7,6.3-1.7,9.5-2.1c2.1-0.2,4.2-0.1,6.2,0
				c6.4,0.3,12.8,0.6,19.1,0.9"/>
			<g>
				<path class="st2" d="M109,184.5c2.9,2.9,6.2,5.9,7.4,9.9c1.7-0.7,3.5-1.5,5.3-2.2c-3.6-5.8-9.7-9.4-16.6-10.1
					c-1.6-0.1-3.5-0.1-5,0.3c-2,0.6-3.4,1.9-4.8,3.1c-2.7,2.3-5.7,4.2-8.9,5.8c1.4,0.6,2.8,1.2,4.3,1.7c0.1,0.8-0.1,0.5,0.2,0.1
					c0.3-0.2,0.6-0.6,0.8-0.9c0.7-0.8,1.2-1.6,1.9-2.4c0.2-0.2-0.3-0.1,0.5-0.2c0.6-0.1,1-0.3,1.6-0.5c1.3-0.3,2.6-0.7,3.8-1
					c-0.9-1.6-1.9-3.2-2.8-4.9c-6.3,5.9-12.4,12-19.6,16.8c1.5,0.8,2.9,1.6,4.4,2.6c0.1-2.4,1.3-5,3.2-6.5c-1.3-0.3-2.7-0.7-3.9-1
					c0.5,0.8-2.3,3.2-2.8,3.8c-1.6,1.9-3.2,3.9-4.6,6c-2.8,4.2-4.6,8.8-5.2,13.9c-0.1,1.3,1,2.4,2.1,2.8c5.1,1.9,9.9-0.8,14.9-1.9
					c2.6-0.5,5.1-0.1,7.7,0.3c2.9,0.5,5.7,1,8.6,1.5c5.8,0.9,11.7,1.5,17.6,0.6c2.8-0.5,5.5-1.3,8.2-1.9c2.7-0.6,5.3-0.7,8-0.5
					c6.6,0.3,13.1,0.6,19.7,0.9c3.7,0.2,3.7-5.6,0-5.8c-5.7-0.2-11.5-0.6-17.2-0.8c-2.8-0.1-5.7-0.3-8.5,0c-2.9,0.3-5.7,1.2-8.5,1.9
					c-5.2,1.3-10.8,1-16.1,0.3c-5.6-0.8-11.4-2.6-17.1-2.6c-3,0-5.8,0.8-8.6,1.6c-2.4,0.7-4.9,1.5-7.3,0.6c0.7,0.9,1.4,1.9,2.1,2.8
					c0.6-4.9,3.1-9.5,6-13.3c2.8-3.7,8.6-8.1,5.7-13.3c-0.7-1.3-2.7-2-3.9-1c-3.7,2.8-6,6.8-6.2,11.5c-0.1,2.1,2.6,3.7,4.4,2.6
					c7.5-5.1,14.3-11.4,20.8-17.8c2.1-2-0.1-5.6-2.8-4.9c-3.4,0.9-7.4,1.3-9.4,4.4c-0.7,1.2-1.6,2-2.4,3c-1,1.4-1.3,2.9-1,4.6
					c0.2,2,2.8,2.4,4.3,1.7c2.8-1.3,5.5-2.9,7.9-4.9c1.2-0.9,2.2-2,3.5-2.9c1-0.8,2.4-0.7,3.6-0.7c5,0.2,9.7,3,12.4,7.2
					c1.7,2.7,6.4,1,5.3-2.2c-1.7-5-5.2-8.8-8.9-12.4C110.3,177.8,106.3,181.8,109,184.5L109,184.5z"/>
			</g>
		</g>
		<g>
			<path class="st1" d="M113.8,182.8c6.6,1.5,13.2,3.2,19.6,5.2c1.3,0.5,2.7,0.8,3.7,1.7c0.9,0.8,1.6,2,2.3,3
				c2.3,3.2,5.6,5.7,8.4,8.5c2.8,2.8,5.3,6.3,5.3,10.2"/>
			<g>
				<path class="st2" d="M113,185.6c4.5,1,8.9,2.1,13.5,3.4c2.2,0.6,4.5,1.3,6.7,2c1.7,0.6,2.6,1.4,3.6,2.9c2.3,3.4,5.5,5.9,8.4,8.7
					c2.4,2.3,5.1,5.2,5.2,8.9s5.9,3.7,5.8,0c-0.1-4.5-2.4-8.5-5.6-11.6c-3-3.1-6.6-5.7-9.1-9.3c-1.3-2-2.7-3.5-4.9-4.4
					c-2.3-1-4.9-1.6-7.3-2.3c-4.9-1.4-9.9-2.7-14.7-3.7C110.9,179.2,109.4,184.7,113,185.6L113,185.6z"/>
			</g>
		</g>
		<g>
			<path class="st1" d="M139.6,194.7c2,5.1,3.9,10.3,5.9,15.4c-3.9-5.5-7.8-10.9-11.7-16.5c-0.6,3.4-0.7,6.8-0.5,10.3
				c-1.4,0.9-3.1-0.6-4.1-1.9c-4.2-5.5-8.4-11-12.3-16.7c-0.7,6.3,0.2,12.6,2.6,18.5c-0.9-4.4-0.8-8.9,0.2-13.2
				c5.1,8.1,5.6,18.7,11.7,26c-1.4-6.6-2.3-13.3-2.7-20.2c-1.2-1.5-2.4-3-3.6-4.5c3.5,8.6,8.1,16.8,13.9,24.1
				c-3.1-2.8-1.5-8.8-4.9-11.4"/>
			<g>
				<path class="st2" d="M136.8,195.4c2,5.1,3.9,10.3,5.9,15.4c1.7-0.7,3.5-1.5,5.3-2.2c-3.9-5.5-7.8-10.9-11.7-16.5
					c-0.7-0.9-1.6-1.6-2.9-1.4c-1,0.1-2.2,0.9-2.4,2.1c-0.6,3.7-0.8,7.4-0.6,11.1c0.5-0.8,0.9-1.6,1.4-2.6c0.7,0,1,0,0.7-0.1h-0.1
					c0-0.2-0.7-0.6-0.8-0.8c-0.6-0.7-1.2-1.4-1.6-2.1c-1.2-1.5-2.3-3.1-3.6-4.8c-2.4-3.2-4.8-6.5-7.1-9.7c-1.7-2.4-5.1-1.5-5.5,1.5
					c-0.7,6.5,0.2,13.1,2.7,19.1c1.4,3.5,6.3,2.2,5.6-1.5c-0.7-3.9-0.6-7.9,0.2-11.7c-1.7,0.2-3.5,0.5-5.3,0.7
					c2.6,4.1,3.8,8.7,5.3,13.2c1.6,4.8,3.5,9.4,6.7,13.3c2,2.4,5.3-0.2,4.9-2.8c-0.9-4.4-1.6-8.9-2.1-13.5c-0.1-1.2-0.2-2.2-0.2-3.4
					c-0.1-1.2,0-2.6-0.3-3.7c-0.5-1-1.4-2-2.1-2.8c-0.7-0.9-1.4-1.7-2.1-2.7c-1.7-2.2-5.9,0.2-4.9,2.8c3.7,9.2,8.6,17.6,14.6,25.4
					c1.4-1.4,2.8-2.8,4.1-4.1c-0.6-0.6-0.8-0.9-1-1.9c-0.3-1-0.5-2.2-0.7-3.4c-0.5-2.3-1.3-4.6-3.1-6.2c-1.3-0.9-2.9-1.2-4.1,0
					c-1,1-1.3,3.1,0,4.1c0.7,0.6,1,1,1.3,1.7c0.3,1,0.5,2.2,0.7,3.2c0.5,2.3,1.2,4.6,3,6.4c1.2,1,3,1.2,4.1,0c1.3-1.3,0.9-2.9,0-4.1
					c-5.5-7-9.9-14.6-13.1-22.9c-1.6,0.9-3.2,1.9-4.9,2.8c1.2,1.5,2.4,3,3.6,4.5c-0.2-0.7-0.6-1.4-0.8-2.1c0.3,7.1,1.3,14,2.7,20.9
					c1.6-0.9,3.2-1.9,4.9-2.8c-2.9-3.5-4.3-7.9-5.7-12.1c-1.5-4.5-3-9.2-5.6-13.3c-1.3-2.1-4.8-1.9-5.3,0.7
					c-1.2,4.9-1.3,9.9-0.2,14.9c1.9-0.5,3.7-1,5.6-1.5c-2.2-5.7-3-11.6-2.4-17.6c-1.9,0.5-3.6,0.9-5.5,1.5c3,4.2,6,8.4,9.2,12.4
					c2.7,3.5,6,9.7,11.3,7.2c0.8-0.5,1.5-1.5,1.4-2.6c-0.2-3.2-0.2-6.4,0.3-9.5c-1.7,0.2-3.5,0.5-5.3,0.7
					c3.9,5.5,7.8,10.9,11.7,16.5c0.8,1.2,2.2,1.9,3.6,1.2c1.2-0.6,2.2-2.1,1.6-3.4c-2-5.1-3.9-10.3-5.9-15.4c-0.6-1.5-2-2.4-3.6-2
					C137.4,192.3,136.2,194,136.8,195.4L136.8,195.4z"/>
			</g>
		</g>
		<g>
			<path class="st1" d="M112.3,190.7c0.5,2.3-1.2,4.5-2.9,6.3c-3.7,3.7-7.9,7-12.5,9.4c3-5.5,5.9-11,8.5-16.7
				c-2.8,4.2-5.5,8.4-8.2,12.4c1.4-3.1,2.8-6.3,4.2-9.3c-3.1,4.4-5.9,9.1-8.4,13.8c0.9-2.7,1.7-5.2,2.7-7.9
				c-1.9,1.4-3.9,2.3-5.7,3.8c-1.7,1.5-3.1,3.5-3.1,5.8c1.6-1.2,2.9-2.9,3.5-4.9c-4.3,1.4-8.1,3.9-11.3,7.3c2.7-1.5,4.5-4.5,4.6-7.7
				c-1.9,2.8-3.6,5.7-5.1,8.6c0.8,0.9,2.2,1,3.5,1c4.3,0,8.6-0.6,12.9-1c6.6-0.8,13.1-1.5,19.7-2.3c1.3-0.1,3-0.8,2.8-2.1
				c-3.4,0.3-6.6,1.2-9.7,2.7c-0.7,0.3-1.4,0.7-1.9,1.4c-0.8,1.5,0.7,3.5,2.4,3.6c1.7,0.2,3.4-0.7,4.8-1.6c1.2-0.7,2.4-1.6,2.8-3
				c0.2-0.8,0.1-1.7,0-2.6c-0.8-4.4-1.9-8.7-3.1-13c-0.1-0.3-0.2-0.7-0.5-0.8c-0.5-0.2-0.9,0.1-1.3,0.5c-2.1,2.1-3.5,4.9-3.9,7.8
				c-0.1,0.9-0.2,2,0.1,2.9c0.2,0.8,0.8,1.5,1.4,2.2c3.2,4.1,6.8,8.2,11.8,9.4c1.5,0.3,3.7,0,3.9-1.6c0.1-0.7-0.2-1.3-0.5-1.9
				c-0.9-1.9-2.1-3.7-3.2-5.5c-0.5,1.6-0.9,3.2-1.4,4.9c-2.2-2.1-4.3-4.3-6.2-6.8"/>
			<g>
				<path class="st2" d="M109.4,191.4c0.1,1-1.2,2.3-1.7,3.1c-1.2,1.3-2.6,2.4-3.8,3.6c-2.6,2.2-5.5,4.1-8.5,5.7
					c1.3,1.3,2.7,2.7,3.9,3.9c3-5.5,5.9-11,8.5-16.7c1.5-3.4-2.9-6.2-5-2.9c-2.8,4.2-5.5,8.4-8.2,12.4c1.6,0.9,3.4,2,5,2.9
					c1.4-3.1,2.8-6.3,4.2-9.3c1.5-3.4-2.8-6-5-2.9c-3.1,4.4-5.9,9.1-8.4,13.8c1.7,0.7,3.5,1.5,5.3,2.2c0.9-2.7,1.7-5.2,2.7-7.9
					c0.8-2.3-2.2-4.8-4.3-3.2c-4.5,3.2-10.1,5.8-10.2,12.2c-0.1,2,2.6,3.8,4.4,2.6c2.3-1.7,3.9-3.8,4.8-6.6c0.7-2-1.5-4.3-3.6-3.6
					c-4.8,1.6-9.1,4.3-12.5,8c-2.2,2.3,0.6,6.3,3.5,4.5c3.7-2.2,5.8-5.9,6.2-10.2c0.2-3-3.9-3.7-5.5-1.5c-1.9,2.8-3.6,5.7-5.1,8.6
					c-0.6,1.2-0.5,2.6,0.5,3.5c2.9,2.8,7.5,1.9,11.1,1.6c4.2-0.3,8.2-0.9,12.3-1.4c4.2-0.5,8.2-0.9,12.4-1.4c3.2-0.3,8.1-0.8,8-5.2
					c0-1.4-1.3-3-2.9-2.9c-4.1,0.5-8.4,1.3-11.8,3.4c-3.8,2.2-3.5,7.2,0.2,9.4c3.6,2.1,8-0.3,10.8-2.8c3.6-3.1,2.1-7.7,1.3-11.7
					c-0.5-2-0.9-3.9-1.5-5.9c-0.6-2-1-4.8-3.4-5.5c-4.1-1.3-7,4.6-8.1,7.7c-0.6,1.6-1,3.6-0.9,5.5c0.1,2.2,1.3,3.8,2.7,5.5
					c2.2,2.8,4.5,5.3,7.4,7.4c3,2.1,7.7,3.8,10.9,1.6c4.6-3.1,0-9.2-2.2-12.4c-1.4-2-4.6-1.9-5.3,0.7c-0.5,1.6-0.9,3.2-1.4,4.9
					c1.6-0.5,3.2-0.8,4.9-1.3c-2.1-1.9-4.1-3.9-5.7-6.3c-0.9-1.3-2.6-1.9-3.9-1c-1.3,0.7-2,2.7-1,3.9c2,2.7,4.2,5.1,6.6,7.4
					c1.6,1.5,4.3,0.9,4.9-1.3c0.5-1.6,0.9-3.2,1.4-4.9c-1.7,0.2-3.5,0.5-5.3,0.7c1,1.5,2,3,2.8,4.5c0.1,0.2,0.3,0.9,0.6,1
					c0.1,0.3,0.2,0.1,0.2-0.6c0.1-0.1,0.2-0.2,0.3-0.3c0,0.1-0.6,0.1-0.9,0.1c-2.2-0.2-4.6-2.2-6.4-3.9c-1-1-2.1-2.2-3-3.4
					c-0.7-0.8-1.7-1.7-1.9-2.8c-0.1-1.2,0.5-2.8,0.9-3.8c0.3-0.7,0.7-1.4,1.2-2.1c0.1-0.2,0.3-0.5,0.6-0.7c0.2-0.2,1-0.7,0.3-0.6
					c-0.5,0-1,0-1.5,0c0.1,0,0.2,0,0.3,0.1c-0.5-0.2-0.8-0.5-1.3-0.7c-0.3-0.3-0.2-0.7-0.1,0c0.1,0.5,0.2,0.9,0.3,1.3
					c0.2,0.8,0.5,1.6,0.7,2.4c0.3,1.5,0.8,3,1.2,4.6c0.3,1.4,0.9,3.1,0.8,4.6c0,0.9-0.9,1.4-1.6,1.9c-0.9,0.6-1.7,0.9-2.7,1.2
					c0,0-0.3-0.2-0.2-0.2l-0.1,0.9c0.1,0,0.3-0.1,0.5-0.2c1.3-0.3,2.6-1,3.9-1.5c1.5-0.5,3.1-0.8,4.8-0.9c-0.9-0.9-2-2-2.9-2.9
					c0-0.1,0.6-1,0.6-1c0,0.1-0.3,0.1-0.5,0.1c-0.5,0.1-0.9,0.1-1.5,0.2c-1.7,0.2-3.4,0.3-5.1,0.6c-3.2,0.3-6.6,0.8-9.9,1.2
					c-3.1,0.3-6.4,0.8-9.5,1c-1.6,0.1-3.4,0.2-5.1,0.3c-0.7,0-2.6,0.3-3.1-0.1c0.1,1.2,0.3,2.3,0.5,3.5c1.6-2.9,3.2-5.8,5.1-8.6
					c-1.9-0.5-3.6-0.9-5.5-1.5c-0.1,2.2-1.4,4.1-3.2,5.2c1.2,1.5,2.3,3,3.5,4.5c2.8-2.9,6.2-5.2,10-6.5c-1.2-1.2-2.4-2.4-3.6-3.6
					c-0.3,1.2-1.2,2.3-2.1,3.1c1.5,0.8,2.9,1.6,4.4,2.6c0.1-3.5,5-5.3,7.3-7.1c-1.4-1-2.8-2.2-4.3-3.2c-0.9,2.7-1.7,5.2-2.7,7.9
					c-1,3.1,3.8,5.2,5.3,2.2c2.4-4.9,5.2-9.5,8.4-13.8c-1.6-0.9-3.4-2-5-2.9c-1.4,3.1-2.8,6.3-4.2,9.3c-1.5,3.4,2.9,6.2,5,2.9
					c2.8-4.2,5.5-8.4,8.2-12.4c-1.6-0.9-3.4-2-5-2.9c-2.7,5.7-5.5,11.3-8.5,16.7c-1.4,2.6,1.4,5.3,3.9,3.9c3.8-2.1,7.5-4.6,10.8-7.5
					c3.4-3,6.7-6.5,6-11.4c-0.2-1.5-2.2-2.4-3.6-2C109.9,188.2,109.3,189.9,109.4,191.4L109.4,191.4z"/>
			</g>
		</g>
		<g>
			<path class="st1" d="M121.7,145.6c-0.3-1.2-0.8-2.3-1.2-3.4c-0.1-0.2-0.2-0.6-0.5-0.7c-0.3-0.1-0.7,0.1-0.9,0.2
				c-1.4,0.9-2.9,1.9-3.9,3.2s-1.6,3.2-0.9,4.8c2.1-0.8,3.1-3.5,2.9-5.8s-1.6-4.3-3-6.2c-0.1-0.2-0.3-0.5-0.6-0.5
				c-0.2,0-0.5,0.3-0.3,0.5c0.7-1.7-0.5-3.9-2.3-4.4c-2.2-0.5-4.3,1.3-5.3,3.2c-1.2,2-1.7,4.2-3.2,5.9c-0.5,0.5-1,0.9-1.7,0.9
				c-0.7,0-1.3-0.7-1.2-1.3c0.1-0.3,0.3-0.6,0.7-0.7c0.9-0.7,1.9-1.4,2.8-2.1c-4.3,3.7-4.2,10.9-0.8,15.6c0.8,1.2,1.9,2.1,2.9,3
				c1.3,1.2,2.8,2.3,4.5,2.7c2.2,0.5,4.4-0.1,6.6-0.7c2.6-0.8,5.1-1.5,7.7-2.3c0.7-0.2,1.5-0.5,2.1-1c0.6-0.6,0.8-1.4,1-2.2
				c1-3.9,2.1-8.6,0-12.1c-1-1.7-2.8-3-4.5-4.2c-1.3-0.9-2.6-1.7-3.7-2.7c-1-0.7-2.3-1.5-3.5-0.9c-0.7,0.3-1,1-1.4,1.7
				c-2.1,4.3-3,9.2-2.4,13.9c-1.4-1.3-2.7-2.7-3.8-4.1c1,2.7,2.8,5.1,5,6.8c0.3,0.2,0.6,0.5,1,0.6c0.9,0.2,1.9-0.6,2.1-1.5
				c0.2-0.9,0.1-1.9-0.1-2.8c2.1,0,4.1,1.3,5,3.1c-0.3,0.2-0.7,0.3-1,0.6"/>
			<g>
				<path class="st2" d="M124.5,144.9c-0.6-1.9-1-4.5-2.8-5.7c-2-1.3-3.9-0.1-5.7,1.2c-3.2,2.3-6,6-4.6,10.3
					c0.6,1.9,2.6,2.6,4.3,1.7c3.9-1.9,5.1-7,3.8-10.8c-0.7-2.1-2-4.4-3.6-5.9c-2.4-2.3-6.3-0.1-5.5,3.1c0.7,2.9,4.8,2.6,5.6,0
					c1.6-5.1-3.6-9.6-8.5-7.7c-2.1,0.9-3.8,2.7-4.9,4.8c-0.5,0.9-0.9,2-1.4,2.9c-0.2,0.5-0.5,1-0.8,1.4c-0.1,0.1-0.2,0.2-0.3,0.3
					c-0.9,0.8-0.2,1.3,2.1,1.6c-0.1,0.5-0.2,0.9-0.3,1.5c0.2-0.3,1.7-1.3,2.3-1.7c-1.2-1.5-2.3-3-3.5-4.5
					c-4.8,4.2-5.1,11.4-2.6,16.8c1.4,3.1,4.2,5.8,7,7.7c3.5,2.3,7.2,2.1,11,1c1.9-0.6,3.7-1.2,5.7-1.6c1.9-0.6,4.1-0.9,5.6-2.2
					c1.3-1.2,1.9-2.8,2.3-4.4c0.5-1.7,0.8-3.6,1-5.5c0.3-3.7-0.5-7.4-3.1-10.2c-1.2-1.2-2.6-2.2-3.8-3.1c-1.5-1-3-2.3-4.6-3.2
					c-9.4-5.5-11.6,12-11,17.6c1.6-0.7,3.2-1.4,5-2.1c-1.4-1.3-2.7-2.7-3.8-4.1c-1.9-2.1-5.9,0.1-4.9,2.8c1.4,3.4,3.6,7.3,7,9.1
					c2,1,4.3,0.5,5.7-1.2c1.5-1.7,1.4-4.1,0.9-6.3c-0.9,1.3-1.9,2.4-2.8,3.7c1.2,0,2,0.7,2.4,1.7c0.3-1.3,0.7-2.7,1-3.9
					c-0.3,0.2-0.7,0.3-1,0.6c-3.2,1.9-0.3,6.8,2.9,5c0.3-0.2,0.7-0.3,1-0.6c1.4-0.8,1.7-2.7,1-3.9c-1.5-2.8-4.4-4.4-7.5-4.5
					c-2-0.1-3.1,2-2.8,3.7c0,0.1,0.1,1,0.1,1.2c-0.1,0.2,0,0.2,0.1,0c0.1-0.3,0.5-0.5,0.9-0.5c0.7,0.3,0.9,0.3,0.5,0.1
					c-0.1-0.1-0.3-0.3-0.5-0.5c-0.3-0.3-0.7-0.6-0.9-0.9c-1-1.2-2-2.6-2.6-4.1c-1.6,0.9-3.2,1.9-4.9,2.8c1.3,1.4,2.6,2.7,3.8,4.1
					c1.6,1.6,5.2,0.6,5-2.1s-0.2-5.3,0.5-8c0.3-1.3,0.7-2.4,1.2-3.6c0.1-0.2,0.8-1.4,0.8-1.5l0,0c0.2-0.1,0-0.1-0.7,0.2
					c0,0,0.3,0.2,0.3,0.1c0.5,0.5,1.2,0.8,1.7,1.2c0.6,0.3,1.2,0.8,1.6,1.2c1,0.7,2.2,1.5,3.1,2.3c1.7,1.6,2.6,3.4,2.4,5.7
					c0,1.2-0.2,2.2-0.5,3.2c-0.1,0.7-0.3,1.3-0.5,2c-0.1,0.3-0.2,1.3-0.5,1.5c-0.5,0.5-2,0.7-2.7,0.8c-1.5,0.5-3.1,0.9-4.6,1.4
					c-2.4,0.7-5.2,2-7.7,0.6c-1.9-1.2-3.7-2.9-4.9-4.8c-2.2-3.5-2.2-8.4,0.9-11.1c2.4-2.2-0.8-6.6-3.5-4.5c-2.2,1.7-6.4,3.9-4.4,7.4
					c0.8,1.4,2.3,2.2,3.9,2.1c1.7-0.1,3.1-1.3,4.2-2.7c1.5-2,2-4.5,3.6-6.4c0.3-0.3,1-1,1.5-1s0.3,0.7,0.3,0.9c1.9,0,3.7,0,5.6,0
					c0-0.1,0-0.1,0-0.2c-0.1,0.7-0.2,1.5-0.3,2.2c0-0.1,0.1-0.1,0.1-0.2c-0.6,0.5-1.2,0.9-1.7,1.3c0.1,0,0.1,0,0.2-0.1
					c-0.7-0.1-1.5-0.2-2.2-0.3c-0.2-0.3-0.2-0.3,0.1,0.1c0.2,0.2,0.3,0.5,0.6,0.8c0.2,0.3,0.5,0.8,0.7,1.2c0.3,0.7,0.7,1.5,0.8,2.3
					c0.1,1.3-0.3,2.3-1.5,2.9c1.4,0.6,2.8,1.2,4.3,1.7c-0.3-0.9,0-1.7,0.7-2.6c0.3-0.5,0.8-0.8,1.4-1.2c0.2-0.2,0.5-0.3,0.8-0.6
					c0.2-0.1,0.3-0.2,0.6-0.3c0.3-0.2,0.2-0.2-0.3,0c-0.5-0.1-0.9-0.2-1.5-0.3c0.1,0,0.1,0.1,0.2,0.1c-0.3-0.3-0.7-0.7-1-1
					c0-0.3,0-0.2,0.1,0.3c0.1,0.3,0.2,0.7,0.3,0.9c0.2,0.7,0.5,1.3,0.7,2c0.5,1.5,2,2.4,3.6,2C123.9,148.1,125,146.4,124.5,144.9
					L124.5,144.9z"/>
			</g>
		</g>
		<g>
			<path class="st3" d="M113.1,176.5c25.9,0,46.8,20.9,46.8,46.8H66.4C66.4,197.5,87.4,176.5,113.1,176.5"/>
		</g>
		<circle class="st3" cx="113.1" cy="147.7" r="19.4"/>
	</g>
	<path class="st4" d="M115.1,87.5l3.4,7c0.3,0.7,1,1.2,1.7,1.3l7.7,1.2c2,0.2,2.7,2.7,1.3,4.1l-5.6,5.3c-0.6,0.6-0.8,1.3-0.7,2.1
		l1.3,7.7c0.3,2-1.7,3.4-3.4,2.4l-6.8-3.6c-0.7-0.3-1.5-0.3-2.2,0l-6.8,3.6c-1.7,0.9-3.7-0.6-3.4-2.4l1.3-7.7
		c0.1-0.8-0.1-1.5-0.7-2.1l-5.6-5.3c-1.4-1.4-0.6-3.7,1.3-4.1l7.7-1.2c0.8-0.1,1.4-0.6,1.7-1.3l3.4-7
		C111.7,85.8,114.2,85.8,115.1,87.5z"/>
</g>
</svg>
