<svg xmlns="http://www.w3.org/2000/svg" viewBox="0 0 100 125" x="0px" y="0px"  height="140pt" width="140pt" style="fill: #d3d3d3;"><g data-name="200"><path data-name="Specialists - specialists, experts, team, professional, consultants" d="M28.27393,38.9375c-3.84521,0-6.97314,3.12793-6.97314,6.97363,0,3.84473,3.12793,6.97266,6.97314,6.97266s6.97314-3.12793,6.97314-6.97266c0-3.8457-3.12793-6.97363-6.97314-6.97363Zm0,11.44629c-2.46631,0-4.47314-2.00684-4.47314-4.47266,0-2.4668,2.00684-4.47363,4.47314-4.47363s4.47314,2.00684,4.47314,4.47363c0,2.46582-2.00684,4.47266-4.47314,4.47266Zm4.7124,19.18359c0,.69043-.55957,1.25-1.25,1.25h-13.40283c-2.41113,0-4.37305-1.96191-4.37305-4.37305v-3.73926c0-1.4541,.72021-2.80957,1.92676-3.625,.1095-.07458,.23065-.11182,.3512-.14746,.04004-.03149,.06598-.07458,.11072-.10156,.48779-.29492,12.07812-7.12793,23.85107,.00098,.59033,.35742,.7793,1.12598,.42188,1.7168-.23486,.3877-.64746,.60254-1.07031,.60254-.2207,0-.44385-.05859-.64648-.18066-10.49365-6.35254-21.15723-.06348-21.26416,.00098-.08673,.05225-.18188,.06897-.27441,.09827-.02979,.02441-.04663,.05847-.0791,.08044-.51807,.35059-.82715,.93164-.82715,1.55469v3.73926c0,1.0332,.84033,1.87305,1.87305,1.87305h13.40283c.69043,0,1.25,.55957,1.25,1.25Zm38.73877-30.62988c-3.84521,0-6.97314,3.12793-6.97314,6.97363,0,3.84473,3.12793,6.97266,6.97314,6.97266s6.97314-3.12793,6.97314-6.97266c0-3.8457-3.12793-6.97363-6.97314-6.97363Zm0,11.44629c-2.46631,0-4.47314-2.00684-4.47314-4.47266,0-2.4668,2.00684-4.47363,4.47314-4.47363s4.47314,2.00684,4.47314,4.47363c0,2.46582-2.00684,4.47266-4.47314,4.47266Zm14.31445,12.32129v3.73926c0,2.41113-1.96191,4.37305-4.37305,4.37305h-13.50439c-.69043,0-1.25-.55957-1.25-1.25s.55957-1.25,1.25-1.25h13.50439c1.03271,0,1.87305-.83984,1.87305-1.87305v-3.73926c0-.58203-.26416-1.12207-.72461-1.47949-.04083-.03174-.06122-.07715-.09698-.11267-.12415-.0293-.24634-.07288-.36151-.14221-10.49316-6.35254-21.15723-.06348-21.26416,.00098-.59131,.35645-1.35938,.16797-1.71631-.4248-.35645-.59082-.1665-1.35938,.42432-1.71582,.48779-.29492,12.07764-7.12793,23.85107,.00098,.08612,.05212,.14459,.12817,.2132,.19604,.17096,.03955,.33679,.10852,.48456,.2229,1.07422,.83594,1.69043,2.09473,1.69043,3.4541Zm-36.04004-15.88965c-4.48047,0-8.12549,3.64551-8.12549,8.12598s3.64502,8.125,8.12549,8.125,8.12549-3.64453,8.12549-8.125-3.64502-8.12598-8.12549-8.12598Zm0,13.75098c-3.10205,0-5.62549-2.52344-5.62549-5.625,0-3.10254,2.52344-5.62598,5.62549-5.62598s5.62549,2.52344,5.62549,5.62598c0,3.10156-2.52344,5.625-5.62549,5.625Zm15.01123,10.60059c-.16095-.12488-.34332-.1908-.53027-.22693-.08337-.09631-.16937-.19177-.28418-.26135-14.01172-8.48535-27.81201-.35254-28.39258-.00098-.05304,.03198-.08484,.08228-.13135,.12048-.14246,.03381-.2832,.08484-.41162,.17151-1.38037,.93164-2.20459,2.48242-2.20459,4.14746v4.49121c0,2.75781,2.24365,5.00195,5.00146,5.00195h23.88477c2.75781,0,5.00146-2.24414,5.00146-5.00195v-4.49121c0-1.55566-.70459-2.99512-1.93311-3.9502Zm-.56689,8.44141c0,1.37988-1.12207,2.50195-2.50146,2.50195h-23.88477c-1.37939,0-2.50146-1.12207-2.50146-2.50195v-4.49121c0-.83301,.4126-1.60938,1.10303-2.0752,.04199-.02832,.06482-.07153,.10223-.10388,.11365-.02966,.22864-.05603,.33429-.11975,.12939-.07715,13.07227-7.71191,25.80566-.00098,.13519,.08154,.28021,.12463,.42688,.151,.05035,.05676,.08533,.12305,.14734,.17126,.61523,.47852,.96826,1.19922,.96826,1.97754v4.49121ZM22.65186,26.32227l-.58838,3.43262c-.14014,.81543,.18896,1.62305,.85791,2.1084,.37793,.27441,.81982,.41406,1.26465,.41406,.34277,0,.68701-.08301,1.00488-.25l3.08301-1.62109,3.08203,1.62109c.73145,.38281,1.60107,.32227,2.27051-.16406,.66895-.48535,.99756-1.29395,.85742-2.10742l-.58838-3.43359,2.49414-2.43066c.5918-.57715,.80078-1.4248,.54443-2.21094-.25537-.78613-.92285-1.34766-1.73975-1.46582l-3.44629-.50098-1.54102-3.12207c-.36523-.74121-1.10596-1.20215-1.93262-1.20215h-.00049c-.82666,0-1.56738,.45996-1.93359,1.20215l-1.54053,3.12207-3.4458,.50098c-.81787,.11816-1.48486,.68066-1.74072,1.46582-.25586,.78613-.04736,1.63379,.54492,2.21191l2.49365,2.42969Zm2.68652-4.16016c.70312-.10254,1.30957-.54395,1.62305-1.17969l1.3125-2.65918,1.3125,2.65918c.31348,.63574,.91992,1.07715,1.62305,1.17969l2.93506,.42676-2.12402,2.06934c-.50781,.49512-.73926,1.20898-.61963,1.9082l.50098,2.92285-2.62549-1.37988c-.62793-.3291-1.37842-.3291-2.00537,0l-2.62549,1.37988,.50098-2.9209c.12061-.7002-.11084-1.41406-.61963-1.91016l-2.12402-2.06934,2.93555-.42676Zm40.76514,4.16016l-.58887,3.43359c-.13965,.81445,.18945,1.62207,.8584,2.1084,.37793,.27344,.81934,.41309,1.26416,.41309,.34277,0,.6875-.08301,1.00537-.25l3.08252-1.62109,3.08203,1.62109c.73047,.38281,1.60156,.32031,2.27002-.16309,.66895-.48633,.99805-1.29395,.8584-2.1084l-.58887-3.43359,2.49463-2.43066c.5918-.57812,.80029-1.4248,.54395-2.21094-.25586-.78613-.92236-1.34766-1.73926-1.46582l-3.44678-.50098-1.54102-3.12207c-.36572-.74219-1.10645-1.20215-1.93311-1.20215s-1.56787,.45996-1.93311,1.20117l-1.54102,3.12305-3.44531,.50098c-.81787,.11816-1.48535,.67969-1.74072,1.46582-.25635,.78613-.04736,1.63379,.54492,2.21191l2.49365,2.42969Zm2.68652-4.16016c.70264-.10254,1.30908-.54395,1.62256-1.17871l1.3125-2.66016,1.3125,2.65918c.31348,.63574,.91992,1.07715,1.62305,1.17969l2.93555,.42676-2.12402,2.06934c-.50781,.49609-.73975,1.20898-.62012,1.9082l.50146,2.92383-2.625-1.38086c-.62891-.33008-1.37842-.33008-2.00635,0l-2.62549,1.38086,.50146-2.92383c.12012-.7002-.1123-1.41406-.62012-1.9082l-2.12354-2.06934,2.93555-.42676Zm-24.85791,12.53613l-.66162,3.85645c-.146,.85059,.19678,1.69336,.89502,2.20117,.39453,.28613,.85596,.43164,1.3208,.43164,.35742,0,.7168-.08594,1.04883-.26074l3.46436-1.82129,3.46387,1.82129c.76416,.40137,1.6709,.33496,2.36963-.1709,.69824-.50781,1.04102-1.35059,.89502-2.2002l-.66113-3.85742,2.80176-2.73242c.61816-.60156,.83643-1.48535,.57031-2.30566-.2666-.82129-.96289-1.4082-1.81689-1.53223l-3.87305-.5625-1.73193-3.50977c-.38184-.77344-1.15479-1.25488-2.01709-1.25488h-.00049c-.8623,0-1.63574,.48047-2.01807,1.25488l-1.73145,3.50977-3.87305,.5625c-.854,.12402-1.55029,.71094-1.81689,1.53223-.26611,.82031-.04834,1.70312,.56934,2.30566l2.80273,2.73242Zm2.80908-4.67871c.73242-.10742,1.36523-.56738,1.69238-1.23047l1.56592-3.17285,1.56592,3.17285c.32715,.66309,.95996,1.12305,1.69434,1.23145l3.50098,.50879-2.53223,2.46973c-.53125,.5166-.77344,1.26074-.64795,1.99121l.59766,3.4873-3.13428-1.64746c-.65527-.34277-1.43604-.3418-2.09131,.00098l-3.13232,1.64746,.59814-3.4873c.12549-.73145-.1167-1.47559-.64697-1.99219l-2.53369-2.46973,3.50342-.50977Z"/></g></svg>